<?xml version="1.0" encoding="UTF-8"?>
<svg width="402px" height="245px" viewBox="0 0 402 245" version="1.1" xmlns="http://www.w3.org/2000/svg" xmlns:xlink="http://www.w3.org/1999/xlink">
    <!-- Generator: Sketch 42 (36781) - http://www.bohemiancoding.com/sketch -->
    <title>bankIcon</title>
    <desc>Created with Sketch.</desc>
    <defs>
        <polygon id="path-1" points="0.017608061 150 138.516746 150 138.516746 0 0.017608061 0"></polygon>
    </defs>
    <g id="Index" stroke="none" stroke-width="1" fill="none" fill-rule="evenodd">
        <g id="indexImage-Copy" transform="translate(-2847.000000, -1026.000000)">
            <g id="bankIcon" transform="translate(2847.000000, 1026.000000)">
                <rect id="Rectangle" fill="#FFFFFF" x="0" y="0" width="402" height="245"></rect>
                <g id="Group-2" transform="translate(132.000000, 48.000000)">
                    <g id="007-bank"></g>
                    <g id="Group">
                        <polyline id="Fill-1" fill="#FFFFFF" points="117.387073 46.875 23.4774146 46.875 23.4774146 42.1875 122.082556 42.1875 122.082556 46.875 117.387073 46.875"></polyline>
                        <polyline id="Fill-2" fill="#FFFFFF" points="103.300624 52.9359375 103.300624 51.5625 112.69159 51.5625 112.69159 52.9359375 110.343849 55.2796875 110.343849 84.375 105.648366 84.375 105.648366 55.2796875 103.300624 52.9359375"></polyline>
                        <polyline id="Fill-3" fill="#FFFFFF" points="68.0845025 97.4671875 68.0845025 57.2203125 70.4322439 54.8765625 70.4322439 51.5625 75.1277269 51.5625 75.1277269 54.8765625 77.4754683 57.2203125 77.4754683 97.4671875 75.1277269 99.8109375 75.1277269 103.125 70.4322439 103.125 70.4322439 99.8109375 68.0845025 97.4671875"></polyline>
                        <polyline id="Fill-4" fill="#FFFFFF" points="65.736761 101.751563 65.736761 103.125 56.3457952 103.125 56.3457952 101.751563 58.6935366 99.4078125 58.6935366 55.2796875 56.3457952 52.9359375 56.3457952 51.5625 65.736761 51.5625 65.736761 52.9359375 63.3890195 55.2796875 63.3890195 99.4078125 65.736761 101.751563"></polyline>
                        <polyline id="Fill-5" fill="#FFFFFF" points="53.9980537 57.2203125 53.9980537 58.59375 44.6070878 58.59375 44.6070878 57.2203125 46.9548293 54.8765625 46.9548293 51.5625 51.6503122 51.5625 51.6503122 54.8765625 53.9980537 57.2203125"></polyline>
                        <polyline id="Fill-6" fill="#FFFFFF" points="32.8683805 52.9359375 32.8683805 51.5625 42.2593464 51.5625 42.2593464 52.9359375 39.9116049 55.2796875 39.9116049 58.59375 35.216122 58.59375 35.216122 55.2796875 32.8683805 52.9359375"></polyline>
                        <polyline id="Fill-7" fill="#FFFFFF" points="30.520639 57.2203125 30.520639 58.59375 23.4774146 58.59375 23.4774146 51.5625 28.1728976 51.5625 28.1728976 54.8765625 30.520639 57.2203125"></polyline>
                        <polyline id="Fill-8" fill="#FFFFFF" points="44.6070878 97.4671875 44.6070878 96.09375 53.9980537 96.09375 53.9980537 97.4671875 51.6503122 99.8109375 51.6503122 103.125 46.9548293 103.125 46.9548293 99.8109375 44.6070878 97.4671875"></polyline>
                        <polyline id="Fill-9" fill="#FFFFFF" points="42.2593464 101.751562 42.2593464 103.125 32.8683805 103.125 32.8683805 101.751562 35.216122 99.4078125 35.216122 96.09375 39.9116049 96.09375 39.9116049 99.4078125 42.2593464 101.751562"></polyline>
                        <polyline id="Fill-10" fill="#FFFFFF" points="30.520639 96.09375 30.520639 97.4671875 28.1728976 99.8109375 28.1728976 103.125 23.4774146 103.125 23.4774146 96.09375 30.520639 96.09375"></polyline>
                        <polygon id="Fill-11" fill="#FFFFFF" points="16.4341903 126.5625 86.8664342 126.5625 86.8664342 117.1875 16.4341903 117.1875"></polygon>
                        <polygon id="Fill-12" fill="#FFFFFF" points="23.4774146 112.5 86.8664342 112.5 86.8664342 107.8125 23.4774146 107.8125"></polygon>
                        <polyline id="Fill-13" fill="#FFFFFF" points="89.2141757 52.9359375 86.8664342 55.2796875 86.8664342 103.125 79.8232098 103.125 79.8232098 101.751563 82.1709513 99.4078125 82.1709513 55.2796875 79.8232098 52.9359375 79.8232098 51.5625 89.2141757 51.5625 89.2141757 52.9359375"></polyline>
                        <polyline id="Fill-14" fill="#FFFFFF" points="122.082556 51.5625 122.082556 84.375 115.039332 84.375 115.039332 57.2203125 117.387073 54.8765625 117.387073 51.5625 122.082556 51.5625"></polyline>
                        <polyline id="Fill-15" fill="#FFFFFF" points="100.952883 57.2203125 100.952883 84.375 91.5619171 84.375 91.5619171 57.2203125 93.9096586 54.8765625 93.9096586 51.5625 98.6051415 51.5625 98.6051415 54.8765625 100.952883 57.2203125"></polyline>
                        <polyline id="Fill-16" fill="#FFFFFF" points="16.4341903 37.5 16.4341903 31.9429688 72.7799854 5.20078125 129.125781 31.9429688 129.125781 37.5 16.4341903 37.5"></polyline>
                        <polyline id="Fill-17" fill="#D9DAD6" points="131.473522 39.84375 72.7799854 39.84375 72.7799854 2.34375 131.473522 30.46875 131.473522 39.84375"></polyline>
                        <polygon id="Fill-18" fill="#D9DAD6" points="72.7799854 112.5 122.082556 112.5 122.082556 107.8125 72.7799854 107.8125"></polygon>
                        <polygon id="Fill-19" fill="#D9DAD6" points="72.7799854 126.5625 122.082556 126.5625 122.082556 117.1875 72.7799854 117.1875"></polygon>
                        <polyline id="Fill-20" fill="#D9DAD6" points="96.2574 56.25 96.2574 49.21875 84.5186927 49.21875 84.5186927 105.46875 96.2574 105.46875 96.2574 98.4375 93.9096586 96.09375 93.9096586 58.59375 96.2574 56.25"></polyline>
                        <polyline id="Fill-21" fill="#D9DAD6" points="72.7799854 56.25 72.7799854 49.21875 61.0412781 49.21875 61.0412781 105.46875 72.7799854 105.46875 72.7799854 98.4375 70.4322439 96.09375 70.4322439 58.59375 72.7799854 56.25"></polyline>
                        <polyline id="Fill-22" fill="#D9DAD6" points="119.734815 56.25 119.734815 49.21875 107.996107 49.21875 107.996107 105.46875 119.734815 105.46875 119.734815 98.4375 117.387073 96.09375 117.387073 58.59375 119.734815 56.25"></polyline>
                        <polyline id="Fill-23" fill="#D9DAD6" points="49.3025708 56.25 49.3025708 49.21875 37.5638634 49.21875 37.5638634 105.46875 49.3025708 105.46875 49.3025708 98.4375 46.9548293 96.09375 46.9548293 58.59375 49.3025708 56.25"></polyline>
                        <polygon id="Fill-24" fill="#FFFFFF" points="91.5619171 145.3125 133.821263 145.3125 133.821263 89.0625 91.5619171 89.0625"></polygon>
                        <polygon id="Fill-25" fill="#D9DAD6" points="112.69159 145.3125 133.821263 145.3125 133.821263 89.0625 112.69159 89.0625"></polygon>
                        <polygon id="Fill-26" fill="#CCE5FE" points="98.6051415 110.15625 126.778039 110.15625 126.778039 96.09375 98.6051415 96.09375"></polygon>
                        <path d="M4.69548293,63.28125 L9.18906009,63.28125 C8.29691834,65.1 6.57132836,66.8179687 4.69548293,67.7554687 L4.69548293,63.28125" id="Fill-27" fill="#CCE5FE"></path>
                        <path d="M4.69548293,91.40625 L4.69548293,86.9203125 C6.51733031,87.8109375 8.2382248,89.5335938 9.17732139,91.40625 L4.69548293,91.40625" id="Fill-28" fill="#CCE5FE"></path>
                        <path d="M13.9408888,90.5976562 C12.5580691,86.8382812 9.15149623,83.446875 5.47023761,82.1601562 L4.69548293,81.8929687 L4.69548293,72.8109375 L5.50545373,72.5132812 C9.27357879,71.1304687 12.6684129,67.7320313 13.9549753,64.0570312 L14.2249655,63.28125 L51.4953613,63.28125 L51.7935245,64.0898438 C52.2888979,65.4351562 53.0636526,66.7195312 53.9957059,67.8890625 L53.9957059,86.7914062 C53.0378274,87.9820312 52.2536818,89.278125 51.779438,90.6304687 L51.5117955,91.40625 L14.239052,91.40625 L13.9408888,90.5976562 Z" id="Fill-29" fill="#CCE5FE"></path>
                        <polygon id="Fill-30" fill="#0073E1" points="49.3025708 150 53.9980537 150 53.9980537 145.3125 49.3025708 145.3125"></polygon>
                        <polygon id="Fill-31" fill="#0073E1" points="58.6935366 150 63.3890195 150 63.3890195 145.3125 58.6935366 145.3125"></polygon>
                        <polygon id="Fill-32" fill="#0073E1" points="68.0845025 150 72.7799854 150 72.7799854 145.3125 68.0845025 145.3125"></polygon>
                        <polygon id="Fill-33" fill="#0073E1" points="77.4754683 150 82.1709513 150 82.1709513 145.3125 77.4754683 145.3125"></polygon>
                        <polygon id="Fill-34" fill="#0073E1" points="39.9116049 150 44.6070878 150 44.6070878 145.3125 39.9116049 145.3125"></polygon>
                        <path d="M72.7799854,18.75 C75.3695442,18.75 77.4754683,20.8523437 77.4754683,23.4375 C77.4754683,26.0226563 75.3695442,28.125 72.7799854,28.125 C70.1904266,28.125 68.0845025,26.0226563 68.0845025,23.4375 C68.0845025,20.8523437 70.1904266,18.75 72.7799854,18.75 Z M72.7799854,32.8125 C77.9591031,32.8125 82.1709513,28.6078125 82.1709513,23.4375 C82.1709513,18.2671875 77.9591031,14.0625 72.7799854,14.0625 C67.6008677,14.0625 63.3890195,18.2671875 63.3890195,23.4375 C63.3890195,28.6078125 67.6008677,32.8125 72.7799854,32.8125 L72.7799854,32.8125 Z" id="Fill-35" fill="#0073E1"></path>
                        <polygon id="Fill-36" fill="#FFFFFF" points="46.9548293 79.6875 51.6503122 79.6875 51.6503122 75 46.9548293 75"></polygon>
                        <polygon id="Fill-37" fill="#FFFFFF" points="14.0864488 79.6875 18.7819317 79.6875 18.7819317 75 14.0864488 75"></polygon>
                        <g id="Group-41">
                            <mask id="mask-2" fill="white">
                                <use xlink:href="#path-1"></use>
                            </mask>
                            <g id="Clip-39"></g>
                            <path d="M32.8683805,82.03125 C30.2788217,82.03125 28.1728976,79.9289062 28.1728976,77.34375 C28.1728976,74.7585938 30.2788217,72.65625 32.8683805,72.65625 C35.4579393,72.65625 37.5638634,74.7585938 37.5638634,77.34375 C37.5638634,79.9289062 35.4579393,82.03125 32.8683805,82.03125 Z M32.8683805,67.96875 C27.6892628,67.96875 23.4774146,72.1734375 23.4774146,77.34375 C23.4774146,82.5140625 27.6892628,86.71875 32.8683805,86.71875 C38.0474982,86.71875 42.2593464,82.5140625 42.2593464,77.34375 C42.2593464,72.1734375 38.0474982,67.96875 32.8683805,67.96875 L32.8683805,67.96875 Z" id="Fill-38" fill="#0073E1" mask="url(#mask-2)"></path>
                            <path d="M91.5619171,145.3125 L133.821263,145.3125 L133.821263,89.0625 L91.5619171,89.0625 L91.5619171,145.3125 Z M89.2141757,52.9359375 L86.8664342,55.2796875 L86.8664342,103.125 L79.8232098,103.125 L79.8232098,101.751563 L82.1709513,99.4078125 L82.1709513,55.2796875 L79.8232098,52.9359375 L79.8232098,51.5625 L89.2141757,51.5625 L89.2141757,52.9359375 Z M23.4774146,112.5 L86.8664342,112.5 L86.8664342,107.8125 L23.4774146,107.8125 L23.4774146,112.5 Z M16.4341903,126.5625 L86.8664342,126.5625 L86.8664342,117.1875 L16.4341903,117.1875 L16.4341903,126.5625 Z M30.520639,96.09375 L30.520639,97.4671875 L28.1728976,99.8109375 L28.1728976,103.125 L23.4774146,103.125 L23.4774146,96.09375 L30.520639,96.09375 Z M42.2593464,101.751563 L42.2593464,103.125 L32.8683805,103.125 L32.8683805,101.751563 L35.216122,99.4078125 L35.216122,96.09375 L39.9116049,96.09375 L39.9116049,99.4078125 L42.2593464,101.751563 Z M44.6070878,97.4671875 L44.6070878,96.09375 L53.9980537,96.09375 L53.9980537,97.4671875 L51.6503122,99.8109375 L51.6503122,103.125 L46.9548293,103.125 L46.9548293,99.8109375 L44.6070878,97.4671875 Z M14.239052,91.40625 L13.9408888,90.5976562 C12.5580691,86.8382812 9.15149623,83.446875 5.47023761,82.1601562 L4.69548293,81.8929687 L4.69548293,72.8109375 L5.50545373,72.5132813 C9.27357879,71.1304687 12.6684129,67.7320313 13.9549753,64.0570312 L14.2249655,63.28125 L51.4953613,63.28125 L51.7935245,64.0898438 C52.2888979,65.4351563 53.0636526,66.7195313 53.9957059,67.8890625 L53.9957059,86.7914062 C53.0378274,87.9820313 52.2536818,89.278125 51.779438,90.6304687 L51.5117955,91.40625 L14.239052,91.40625 Z M4.69548293,91.40625 L4.69548293,86.9203125 C6.51733031,87.8109375 8.2382248,89.5335938 9.17732139,91.40625 L4.69548293,91.40625 Z M4.69548293,63.28125 L9.18906009,63.28125 C8.29691834,65.1 6.57132836,66.8179688 4.69548293,67.7554688 L4.69548293,63.28125 Z M30.520639,57.2203125 L30.520639,58.59375 L23.4774146,58.59375 L23.4774146,51.5625 L28.1728976,51.5625 L28.1728976,54.8765625 L30.520639,57.2203125 Z M32.8683805,52.9359375 L32.8683805,51.5625 L42.2593464,51.5625 L42.2593464,52.9359375 L39.9116049,55.2796875 L39.9116049,58.59375 L35.216122,58.59375 L35.216122,55.2796875 L32.8683805,52.9359375 Z M53.9980537,57.2203125 L53.9980537,58.59375 L44.6070878,58.59375 L44.6070878,57.2203125 L46.9548293,54.8765625 L46.9548293,51.5625 L51.6503122,51.5625 L51.6503122,54.8765625 L53.9980537,57.2203125 Z M65.736761,101.751563 L65.736761,103.125 L56.3457952,103.125 L56.3457952,101.751563 L58.6935366,99.4078125 L58.6935366,55.2796875 L56.3457952,52.9359375 L56.3457952,51.5625 L65.736761,51.5625 L65.736761,52.9359375 L63.3890195,55.2796875 L63.3890195,99.4078125 L65.736761,101.751563 Z M68.0845025,97.4671875 L68.0845025,57.2203125 L70.4322439,54.8765625 L70.4322439,51.5625 L75.1277269,51.5625 L75.1277269,54.8765625 L77.4754683,57.2203125 L77.4754683,97.4671875 L75.1277269,99.8109375 L75.1277269,103.125 L70.4322439,103.125 L70.4322439,99.8109375 L68.0845025,97.4671875 Z M100.952883,57.2203125 L100.952883,84.375 L91.5619171,84.375 L91.5619171,57.2203125 L93.9096586,54.8765625 L93.9096586,51.5625 L98.6051415,51.5625 L98.6051415,54.8765625 L100.952883,57.2203125 Z M103.300624,52.9359375 L103.300624,51.5625 L112.69159,51.5625 L112.69159,52.9359375 L110.343849,55.2796875 L110.343849,84.375 L105.648366,84.375 L105.648366,55.2796875 L103.300624,52.9359375 Z M122.082556,51.5625 L122.082556,84.375 L115.039332,84.375 L115.039332,57.2203125 L117.387073,54.8765625 L117.387073,51.5625 L122.082556,51.5625 Z M117.387073,46.875 L23.4774146,46.875 L23.4774146,42.1875 L122.082556,42.1875 L122.082556,46.875 L117.387073,46.875 Z M16.4341903,37.5 L16.4341903,31.9429688 L72.7799854,5.20078125 L129.125781,31.9429688 L129.125781,37.5 L16.4341903,37.5 Z M126.778039,42.1875 L133.821263,42.1875 L133.821263,28.9945313 L72.7799854,0 L11.7387073,28.9945313 L11.7387073,42.1875 L18.7819317,42.1875 L18.7819317,58.59375 L0,58.59375 L0,96.09375 L18.7819317,96.09375 L18.7819317,112.5 L11.7387073,112.5 L11.7387073,131.25 L86.8664342,131.25 L86.8664342,150 L138.516746,150 L138.516746,84.375 L126.778039,84.375 L126.778039,42.1875 Z" id="Fill-40" fill="#0073E1" mask="url(#mask-2)"></path>
                        </g>
                        <polygon id="Fill-42" fill="#0073E1" points="96.2574 121.875 100.952883 121.875 100.952883 117.1875 96.2574 117.1875"></polygon>
                        <polygon id="Fill-43" fill="#0073E1" points="105.648366 121.875 110.343849 121.875 110.343849 117.1875 105.648366 117.1875"></polygon>
                        <polygon id="Fill-44" fill="#0073E1" points="115.039332 121.875 119.734815 121.875 119.734815 117.1875 115.039332 117.1875"></polygon>
                        <polygon id="Fill-45" fill="#0073E1" points="96.2574 131.25 100.952883 131.25 100.952883 126.5625 96.2574 126.5625"></polygon>
                        <polygon id="Fill-46" fill="#0073E1" points="105.648366 131.25 110.343849 131.25 110.343849 126.5625 105.648366 126.5625"></polygon>
                        <polygon id="Fill-47" fill="#0073E1" points="115.039332 131.25 119.734815 131.25 119.734815 126.5625 115.039332 126.5625"></polygon>
                        <polygon id="Fill-48" fill="#0073E1" points="96.2574 140.625 100.952883 140.625 100.952883 135.9375 96.2574 135.9375"></polygon>
                        <polygon id="Fill-49" fill="#0073E1" points="105.648366 140.625 110.343849 140.625 110.343849 135.9375 105.648366 135.9375"></polygon>
                        <polygon id="Fill-50" fill="#0073E1" points="115.039332 140.625 119.734815 140.625 119.734815 135.9375 115.039332 135.9375"></polygon>
                        <polygon id="Fill-51" fill="#0073E1" points="124.430298 121.875 129.125781 121.875 129.125781 117.1875 124.430298 117.1875"></polygon>
                        <path d="M101.196172,108.148923 L124.673587,108.148923 L124.673587,98.7739234 L101.196172,98.7739234 L101.196172,108.148923 Z M96.1722488,112.5 L129.040629,112.5 L129.040629,93.75 L96.1722488,93.75 L96.1722488,112.5 Z" id="Fill-52" fill="#0080FB"></path>
                        <polygon id="Fill-53" fill="#0073E1" points="124.430298 140.625 129.125781 140.625 129.125781 126.5625 124.430298 126.5625"></polygon>
                        <polygon id="Fill-54" fill="#0073E1" points="39.9116049 140.625 44.6070878 140.625 44.6070878 135.9375 39.9116049 135.9375"></polygon>
                        <polygon id="Fill-55" fill="#0073E1" points="86.8664342 25.78125 91.5619171 25.78125 91.5619171 21.09375 86.8664342 21.09375"></polygon>
                        <polygon id="Fill-56" fill="#0073E1" points="53.9980537 25.78125 58.6935366 25.78125 58.6935366 21.09375 53.9980537 21.09375"></polygon>
                        <path d="M32.8683805,72.65625 C35.4617544,72.65625 37.5638634,74.7547852 37.5638634,77.34375 C37.5638634,79.9327148 35.4617544,82.03125 32.8683805,82.03125 C30.2750066,82.03125 28.1728976,79.9327148 28.1728976,77.34375 C28.1728976,74.7547852 30.2750066,72.65625 32.8683805,72.65625" id="Fill-57" fill="#FFFFFF"></path>
                        <path d="M77.4754683,23.4375 C77.4754683,26.0264648 75.3733593,28.125 72.7799854,28.125 C70.1866115,28.125 68.0845025,26.0264648 68.0845025,23.4375 C68.0845025,20.8485352 70.1866115,18.75 72.7799854,18.75 C75.3733593,18.75 77.4754683,20.8485352 77.4754683,23.4375 Z" id="Fill-58" fill="#FFFFFF"></path>
                        <polygon id="Fill-59" fill="#D9DAD6" points="72.7799854 46.875 122.082556 46.875 122.082556 42.1875 72.7799854 42.1875"></polygon>
                    </g>
                </g>
            </g>
        </g>
    </g>
</svg>