
<svg width="124px" height="125px" viewBox="0 0 124 125" version="1.1" xmlns="http://www.w3.org/2000/svg" xmlns:xlink="http://www.w3.org/1999/xlink">
    <!-- Generator: Sketch 46.2 (44496) - http://www.bohemiancoding.com/sketch -->
    <desc>Created with Sketch.</desc>
    <defs>
        <polygon id="path-1" points="0.0002 0 124.002 0 124.002 124.0397 0.0002 124.0397"></polygon>
    </defs>
    <g id="Page-1" stroke="none" stroke-width="1" fill="none" fill-rule="evenodd">
        <g id="Mysafe-Icon">
            <mask id="mask-2" fill="white">
                <use xlink:href="#path-1"></use>
            </mask>
            <g id="Clip-2"></g>
            <path d="M62.0392,109.8437 C35.6252,109.8437 14.1962,88.4527 14.1962,62.0007 C14.1962,59.7557 14.3492,57.5477 14.6912,55.4157 L35.0542,55.4157 L35.0542,82.3247 L45.9012,82.3247 C47.4242,82.3247 48.6422,81.1077 48.6422,79.5847 L48.6422,56.4447 C49.0222,56.0637 49.4022,55.7207 49.7832,55.4157 L57.5862,55.4157 C57.9292,56.3297 58.1182,57.7767 58.1182,59.7557 L58.1182,79.5847 C58.1182,81.1077 59.3752,82.3247 60.8972,82.3247 L69.0042,82.3247 C70.4882,82.3247 71.7442,81.1077 71.7442,79.5847 L71.7442,56.4447 C72.1252,56.0637 72.5062,55.7207 72.8482,55.4157 L80.6502,55.4157 C81.0312,56.3297 81.2222,57.7767 81.2222,59.7557 L81.2222,79.5847 C81.2222,81.1077 82.4392,82.3247 83.9622,82.3247 L94.8102,82.3247 L94.8102,58.0047 C94.8102,53.1327 93.8192,49.2127 91.8032,46.2817 C90.0522,43.6947 87.4262,42.2857 83.8482,41.9817 L83.8482,41.8287 L18.6492,41.8287 C26.2622,25.5007 42.8182,14.1967 62.0392,14.1967 C88.4532,14.1967 109.8822,35.5867 109.8822,62.0007 C109.8822,88.4527 88.4532,109.8437 62.0392,109.8437 M62.0012,-0.0003 C27.7462,-0.0003 0.0002,27.7847 0.0002,62.0007 C0.0002,96.2557 27.7462,124.0397 62.0012,124.0397 C96.2562,124.0397 124.0022,96.2557 124.0022,62.0007 C124.0022,27.7847 96.2562,-0.0003 62.0012,-0.0003" id="Fill-1" fill="#0080FB" mask="url(#mask-2)"></path>
        </g>
    </g>
</svg>