<?xml version="1.0" encoding="UTF-8"?>
<svg width="439px" height="259px" viewBox="0 0 439 259" version="1.1" xmlns="http://www.w3.org/2000/svg" xmlns:xlink="http://www.w3.org/1999/xlink">
    <!-- Generator: Sketch 42 (36781) - http://www.bohemiancoding.com/sketch -->
    <title>indeximage2</title>
    <desc>Created with Sketch.</desc>
    <defs>
        <path d="M117.931034,150.832241 L117.931034,5.89189655 C117.931034,2.63793103 115.293103,0 112.039138,0 L5.89189655,0 C2.63793103,0 0,2.63793103 0,5.89189655 L0,150.832241 C0,154.086207 2.63793103,156.724138 5.89189655,156.724138 L112.039138,156.724138 C115.293103,156.724138 117.931034,154.086207 117.931034,150.832241 Z M0,0 L117.931034,0 L117.931034,156.724138 L0,156.724138 L0,0 Z" id="path-1"></path>
        <path d="M60.5172414,108.569483 L60.5172414,3.15465517 C60.5172414,1.41206897 59.1051724,0 57.3625862,0 L3.15465517,0 C1.41206897,0 0,1.41206897 0,3.15465517 L0,108.569483 C0,110.312069 1.41206897,111.724138 3.15465517,111.724138 L57.3625862,111.724138 C59.1051724,111.724138 60.5172414,110.312069 60.5172414,108.569483 Z M0,0 L60.5172414,0 L60.5172414,111.724138 L0,111.724138 L0,0 Z" id="path-3"></path>
        <ellipse id="path-5" cx="8.5" cy="8.5" rx="8.5" ry="8.5"></ellipse>
        <mask id="mask-6" maskContentUnits="userSpaceOnUse" maskUnits="objectBoundingBox" x="0" y="0" width="17" height="17" fill="white">
            <use xlink:href="#path-5"></use>
        </mask>
        <ellipse id="path-7" cx="2.26083706" cy="2.26924198" rx="2.26083706" ry="2.26924198"></ellipse>
        <mask id="mask-8" maskContentUnits="userSpaceOnUse" maskUnits="objectBoundingBox" x="0" y="0" width="4.52167413" height="4.53848395" fill="white">
            <use xlink:href="#path-7"></use>
        </mask>
    </defs>
    <g id="Index" stroke="none" stroke-width="1" fill="none" fill-rule="evenodd">
        <g id="Desktop" transform="translate(-316.000000, -367.000000)">
            <g id="indeximage2" transform="translate(306.000000, 367.000000)">
                <g>
                    <path d="M57.5914655,231.448276 L57.5914655,239.982759 C57.5914655,240.187586 57.661595,240.386207 57.7846524,240.532069 C57.9090331,240.676379 58.0784024,240.758621 58.2530646,240.758621 L220.344828,240.758621 L220.344828,239.206897 L58.9146636,239.206897 L58.9146636,231.448276 L57.5914655,231.448276" id="Fill-209" fill="#99A3AD"></path>
                    <path d="M409.655172,231.448276 L409.655172,239.206897 L220.344828,239.206897 L220.344828,240.758621 L410.431034,240.758621 C410.638966,240.758621 410.832931,240.677931 410.980345,240.532069 C411.126207,240.384655 411.206897,240.19069 411.206897,239.982759 L411.206897,231.448276 L409.655172,231.448276" id="Fill-210" fill="#99A3AD"></path>
                    <path d="M220.700172,39.2113793 C220.700172,46.1662069 215.062759,51.802069 208.109483,51.802069 C201.154655,51.802069 195.517241,46.1662069 195.517241,39.2113793 C195.517241,32.2581034 201.154655,26.6206897 208.109483,26.6206897 C215.062759,26.6206897 220.700172,32.2581034 220.700172,39.2113793" id="Fill-211" fill="#99A3AD"></path>
                    <path d="M217.174655,39.0018966 C217.174655,44.1256897 213.022241,48.2812069 207.896897,48.2812069 C202.773103,48.2812069 198.62069,44.1256897 198.62069,39.0018966 C198.62069,33.8765517 202.773103,29.7241379 207.896897,29.7241379 C213.022241,29.7241379 217.174655,33.8765517 217.174655,39.0018966" id="Fill-212" fill="#CCD1D6"></path>
                    <path d="M208.590517,41.6196552 C209.232931,41.552931 209.552586,41.3093103 209.552586,40.8872414 L209.552586,40.8577586 C209.552586,40.6684483 209.485862,40.5086207 209.352414,40.3844828 C209.218966,40.2603448 208.964483,40.1455172 208.590517,40.04 L208.590517,41.6196552 Z M207.254483,35.7432759 C206.90069,35.7743103 206.647759,35.8534483 206.500345,35.9806897 C206.351379,36.1110345 206.278448,36.2724138 206.278448,36.4632759 L206.278448,36.4912069 C206.278448,36.6836207 206.342069,36.8387931 206.472414,36.9582759 C206.599655,37.0762069 206.860345,37.1910345 207.254483,37.2965517 L207.254483,35.7432759 Z M207.155172,43.6881034 C206.446034,43.6105172 205.757069,43.4537931 205.092931,43.2132759 C204.427241,42.9743103 203.820517,42.6593103 203.275862,42.2667241 L204.57,40.355 C205.027759,40.6824138 205.476207,40.9415517 205.912241,41.1324138 C206.345172,41.3232759 206.790517,41.4567241 207.238966,41.5327586 L207.238966,39.8103448 C206.666379,39.6753448 206.160517,39.5232759 205.724483,39.3494828 C205.29,39.1772414 204.923793,38.9693103 204.633621,38.7256897 C204.338793,38.482069 204.121552,38.1965517 203.972586,37.8706897 C203.823621,37.5448276 203.747586,37.1568966 203.747586,36.7068966 L203.747586,36.6805172 C203.747586,36.2568966 203.826724,35.8689655 203.978793,35.5151724 C204.132414,35.1613793 204.35431,34.8525862 204.647586,34.5887931 C204.93931,34.3234483 205.29931,34.1108621 205.724483,33.9494828 C206.148103,33.785 206.636897,33.6872414 207.184655,33.6468966 L207.184655,32.8275862 L208.675862,32.8275862 L208.675862,33.6903448 C209.270172,33.7586207 209.814828,33.8874138 210.316034,34.0782759 C210.812586,34.2706897 211.276552,34.5143103 211.706379,34.8106897 L210.527069,36.7363793 C210.233793,36.5253448 209.918793,36.3484483 209.588276,36.2041379 C209.260862,36.0598276 208.930345,35.9512069 208.602931,35.8736207 L208.602931,37.5386207 C209.178621,37.6751724 209.679828,37.8303448 210.106552,38.0072414 C210.533276,38.1841379 210.888621,38.3951724 211.17569,38.6387931 C211.46431,38.8824138 211.68,39.1741379 211.821207,39.5093103 C211.967069,39.8444828 212.036897,40.2324138 212.036897,40.6715517 L212.036897,40.7010345 C212.036897,41.1417241 211.954655,41.5358621 211.794828,41.8865517 C211.630345,42.2372414 211.40069,42.5398276 211.10431,42.7974138 C210.809483,43.0565517 210.449483,43.262931 210.033621,43.415 C209.61931,43.5701724 209.155345,43.667931 208.649483,43.7175862 L208.649483,45.1265517 L207.155172,45.1265517 L207.155172,43.6881034 L207.155172,43.6881034 Z" id="Fill-213" fill="#99A3AD"></path>
                    <path d="M70.182931,73.3477586 C70.182931,80.3041379 64.5455172,85.9415517 57.5891379,85.9415517 C50.6374138,85.9415517 45,80.3041379 45,73.3477586 C45,66.3960345 50.6374138,60.7586207 57.5891379,60.7586207 C64.5455172,60.7586207 70.182931,66.3960345 70.182931,73.3477586" id="Fill-214" fill="#99A3AD"></path>
                    <path d="M68.2122414,73.1382759 C68.2122414,78.2636207 64.0567241,82.4191379 58.9313793,82.4191379 C53.8106897,82.4191379 49.6551724,78.2636207 49.6551724,73.1382759 C49.6551724,68.0160345 53.8106897,63.862069 58.9313793,63.862069 C64.0567241,63.862069 68.2122414,68.0160345 68.2122414,73.1382759" id="Fill-215" fill="#CCD1D6"></path>
                    <path d="M59.625,75.7575862 C60.2658621,75.6908621 60.587069,75.4472414 60.587069,75.0251724 L60.587069,74.9972414 C60.587069,74.8048276 60.5203448,74.6481034 60.3868966,74.5224138 C60.2534483,74.3982759 59.9958621,74.2834483 59.625,74.1794828 L59.625,75.7575862 Z M58.2858621,69.8827586 C57.9351724,69.9122414 57.6822414,69.9913793 57.5348276,70.1201724 C57.3858621,70.2505172 57.3098276,70.4103448 57.3098276,70.6012069 L57.3098276,70.6306897 C57.3098276,70.8231034 57.3734483,70.9767241 57.5037931,71.0962069 C57.6341379,71.2156897 57.8948276,71.3274138 58.2858621,71.432931 L58.2858621,69.8827586 Z M58.1896552,77.8260345 C57.4774138,77.75 56.7915517,77.5932759 56.1258621,77.3527586 C55.4586207,77.1122414 54.855,76.7972414 54.3103448,76.4046552 L55.6044828,74.4944828 C56.0622414,74.8203448 56.5106897,75.077931 56.9467241,75.2703448 C57.3796552,75.4612069 57.8218966,75.5946552 58.2734483,75.6737931 L58.2734483,73.9482759 C57.6977586,73.8132759 57.195,73.6612069 56.7589655,73.4874138 C56.322931,73.3167241 55.9582759,73.1072414 55.6681034,72.8636207 C55.3732759,72.62 55.1560345,72.3344828 55.007069,72.0086207 C54.8581034,71.6827586 54.782069,71.2948276 54.782069,70.8448276 L54.782069,70.8168966 C54.782069,70.3948276 54.8581034,70.0068966 55.0132759,69.6531034 C55.1637931,69.2993103 55.3887931,68.9905172 55.682069,68.7251724 C55.9737931,68.462931 56.3337931,68.2487931 56.7589655,68.0874138 C57.1825862,67.9260345 57.6713793,67.8236207 58.2160345,67.7863793 L58.2160345,66.9655172 L59.7103448,66.9655172 L59.7103448,67.8282759 C60.3046552,67.8965517 60.8493103,68.0253448 61.3474138,68.2162069 C61.8439655,68.4086207 62.3110345,68.6522414 62.7408621,68.9501724 L61.5615517,70.8727586 C61.2651724,70.6632759 60.9532759,70.4863793 60.6227586,70.342069 C60.2922414,70.1993103 59.9648276,70.0891379 59.6374138,70.0131034 L59.6374138,71.6781034 C60.2131034,71.8115517 60.7143103,71.9682759 61.1410345,72.1451724 C61.5646552,72.322069 61.9231034,72.5331034 62.2101724,72.7782759 C62.4956897,73.0218966 62.7144828,73.312069 62.8556897,73.6456897 C62.9984483,73.9824138 63.0713793,74.3703448 63.0713793,74.8094828 L63.0713793,74.8405172 C63.0713793,75.2796552 62.9891379,75.6753448 62.8293103,76.0244828 C62.6648276,76.3736207 62.4351724,76.6777586 62.1387931,76.9368966 C61.8408621,77.1944828 61.4839655,77.4008621 61.0681034,77.5544828 C60.6506897,77.7065517 60.1898276,77.8089655 59.6808621,77.8555172 L59.6808621,79.2644828 L58.1896552,79.2644828 L58.1896552,77.8260345 L58.1896552,77.8260345 Z" id="Fill-216" fill="#99A3AD"></path>
                    <path d="M448.996034,101.390824 C426.735,94.5197896 410.826724,120.0891 388.567241,113.216514 C386.802931,104.207203 385.038621,95.1963413 383.275862,86.1854793 C405.535345,93.054962 421.446724,67.4856517 443.704655,74.3566862 C445.468966,83.3675482 447.231724,92.379962 448.996034,101.390824" id="Fill-217" fill="#CCD1D6"></path>
                    <path d="M445.020517,95.5881511 C426.36569,93.0836683 411.872586,111.826944 393.21931,109.324013 C391.973276,102.963496 390.727241,96.601427 389.482759,90.239358 C408.136034,92.7438408 422.632241,74.0036683 441.283966,76.5065994 C442.528448,82.8655649 443.774483,89.2260821 445.020517,95.5881511" id="Fill-218" fill="#99A3AD"></path>
                    <path d="M422.618927,90.5138552 C423.430479,94.6693724 420.863927,99.5014414 416.917892,101.464372 C412.971858,103.431959 409.075479,101.456614 408.253065,97.2700621 C407.441513,93.1129931 410.014272,88.3243724 413.96341,86.358338 C417.909444,84.3923035 421.798065,86.3257518 422.618927,90.5138552" id="Fill-219" fill="#E5E8EA"></path>
                    <path d="M417.574459,94.7056897 C418.084976,94.3937931 418.302218,94.057069 418.23239,93.6955172 L418.226183,93.6706897 C418.1967,93.5077586 418.114459,93.3991379 417.984114,93.3448276 C417.856873,93.292069 417.630321,93.2936207 417.309114,93.3510345 C417.396011,93.8025862 417.487562,94.2541379 417.574459,94.7056897 Z M415.506011,90.2041379 C415.220493,90.3686207 415.032735,90.5346552 414.931873,90.7068966 C414.832562,90.8760345 414.798424,91.0436207 414.832562,91.2065517 L414.835666,91.2298276 C414.868252,91.3943103 414.94739,91.502931 415.071528,91.5556897 C415.195666,91.6068966 415.426873,91.5975862 415.765149,91.5324138 C415.678252,91.0901724 415.589804,90.6463793 415.506011,90.2041379 Z M416.753597,97.0503448 C416.165493,97.2660345 415.580493,97.4025862 415.0017,97.4584483 C414.419804,97.5143103 413.875149,97.4786207 413.36308,97.352931 C413.608252,96.6406897 413.850321,95.9284483 414.095493,95.2146552 C414.523769,95.3124138 414.931873,95.3589655 415.3167,95.3512069 C415.701528,95.3434483 416.084804,95.282931 416.463424,95.1696552 C416.365666,94.6762069 416.269459,94.1843103 416.174804,93.6924138 C415.687562,93.8056897 415.246873,93.8755172 414.865149,93.8972414 C414.480321,93.922069 414.152907,93.887931 413.875149,93.7917241 C413.595838,93.697069 413.369286,93.5387931 413.19239,93.3184483 C413.017045,93.0965517 412.892907,92.7924138 412.816873,92.4060345 L412.810666,92.3812069 C412.743942,92.0196552 412.740838,91.6581034 412.804459,91.2965517 C412.86808,90.9318966 412.998424,90.5812069 413.19239,90.2413793 C413.383252,89.9031034 413.640838,89.5787931 413.962045,89.27 C414.277045,88.9643103 414.657218,88.685 415.093252,88.4336207 C415.048252,88.1993103 415.0017,87.9665517 414.9567,87.7322414 C415.360149,87.5351724 415.765149,87.3365517 416.168597,87.137931 C416.2167,87.3846552 416.266355,87.6298276 416.314459,87.8765517 C416.807907,87.6981034 417.271873,87.5941379 417.707907,87.56 C418.145493,87.5274138 418.562907,87.5537931 418.963252,87.6391379 C418.750666,88.3436207 418.542735,89.0465517 418.330149,89.7510345 C418.053942,89.6889655 417.768424,89.6610345 417.478252,89.6703448 C417.184976,89.6765517 416.899459,89.7137931 416.623252,89.7774138 C416.714804,90.2537931 416.807907,90.727069 416.902562,91.205 C417.389804,91.0917241 417.824286,91.025 418.199804,91.0094828 C418.575321,90.9924138 418.899631,91.0327586 419.175838,91.1289655 C419.448942,91.2251724 419.67239,91.3896552 419.844631,91.6224138 C420.018424,91.8536207 420.142562,92.1562069 420.215493,92.5332759 L420.2217,92.5581034 C420.29308,92.9351724 420.29308,93.3060345 420.2217,93.6706897 C420.148769,94.0322414 420.012218,94.382931 419.815149,94.7212069 C419.614976,95.057931 419.360493,95.3760345 419.045493,95.6708621 C418.7367,95.9672414 418.375149,96.2372414 417.9717,96.4777586 C418.050838,96.8812069 418.129976,97.2846552 418.209114,97.6865517 C417.805666,97.8836207 417.399114,98.0822414 416.992562,98.2808621 C416.914976,97.8696552 416.835838,97.46 416.753597,97.0503448 L416.753597,97.0503448 Z" id="Fill-220" fill="#99A3AD"></path>
                    <path d="M126.408103,50.8198276 C115.237241,40.022931 98.0674138,50.435 86.8965517,39.6396552 C88.5631034,33.7462069 90.2296552,27.8558621 91.9008621,21.9655172 C103.068621,32.7624138 120.24,22.3472414 131.40931,33.1456897 C129.741207,39.0360345 128.074655,44.927931 126.408103,50.8198276" id="Fill-221" fill="#CCD1D6"></path>
                    <path d="M124.954138,44.9884483 C114.613448,37.8768966 100.34069,44.6594828 90,37.5463793 C91.1762069,33.3877586 92.3555172,29.2275862 93.5317241,25.0689655 C103.872414,32.1805172 118.143621,25.4010345 128.48431,32.5125862 C127.305,36.6727586 126.130345,40.8313793 124.954138,44.9884483" id="Fill-222" fill="#7F8C98"></path>
                    <path d="M114.72981,36.356353 C113.963258,39.0734219 110.977741,41.1744564 108.041879,41.1527323 C105.098258,41.1325599 103.377396,38.7832495 104.150154,36.0460081 C104.91981,33.3273874 107.892913,31.2558357 110.834982,31.2760081 C113.775499,31.2961806 115.505672,33.6206633 114.72981,36.356353" id="Fill-223" fill="#E5E8EA"></path>
                    <path d="M108.820862,37.7636207 C109.218103,37.7310345 109.450862,37.5960345 109.514483,37.3617241 L109.52069,37.3446552 L109.47569,37.0777586 C109.415172,37.0063793 109.278621,36.9396552 109.069138,36.8775862 C108.986897,37.1724138 108.906207,37.4687931 108.820862,37.7636207 Z M108.948103,34.4615517 C108.72931,34.4739655 108.566379,34.5174138 108.454655,34.5872414 L108.245172,34.8556897 L108.238966,34.8696552 L108.280862,35.135 C108.341379,35.2017241 108.481034,35.2668966 108.702931,35.3305172 C108.780517,35.0403448 108.865862,34.7501724 108.948103,34.4615517 Z M107.626034,38.9118966 C107.211724,38.8622414 106.823793,38.7675862 106.459138,38.6248276 C106.099138,38.482069 105.784138,38.2974138 105.517241,38.0677586 C105.877241,37.717069 106.238793,37.3694828 106.598793,37.0172414 C106.823793,37.205 107.050345,37.3555172 107.284655,37.4672414 C107.51431,37.5774138 107.762586,37.6581034 108.020172,37.7031034 C108.111724,37.3803448 108.201724,37.0591379 108.293276,36.737931 C107.968966,36.6587931 107.686552,36.5687931 107.453793,36.467931 C107.217931,36.3655172 107.033276,36.2444828 106.896724,36.1048276 C106.757069,35.9636207 106.671724,35.8022414 106.632931,35.6175862 C106.59569,35.432931 106.61431,35.2141379 106.684138,34.9612069 L106.690345,34.9441379 C106.757069,34.7113793 106.862586,34.4925862 107.011552,34.297069 C107.160517,34.1 107.342069,33.9308621 107.55931,33.7881034 C107.778103,33.6422414 108.026379,33.5289655 108.311897,33.4405172 C108.589655,33.3536207 108.903103,33.3039655 109.235172,33.2868966 C109.278621,33.1317241 109.323621,32.9796552 109.362414,32.8275862 C109.666552,32.8306897 109.966034,32.8353448 110.267069,32.8384483 C110.220517,33.0013793 110.175517,33.1612069 110.130517,33.3225862 C110.478103,33.3660345 110.783793,33.442069 111.053793,33.5553448 C111.323793,33.6655172 111.565862,33.8082759 111.775345,33.9789655 C111.438621,34.3358621 111.103448,34.6896552 110.763621,35.045 C110.617759,34.9224138 110.457931,34.8215517 110.281034,34.7377586 C110.102586,34.6539655 109.924138,34.5903448 109.739483,34.5437931 C109.651034,34.8556897 109.562586,35.1675862 109.47569,35.477931 C109.8,35.5601724 110.077759,35.6501724 110.305862,35.7541379 C110.535517,35.8565517 110.718621,35.9791379 110.850517,36.1187931 C110.983966,36.2584483 111.06931,36.422931 111.103448,36.6122414 C111.132931,36.8015517 111.117414,37.0203448 111.044483,37.267069 L111.042931,37.2825862 C110.973103,37.5293103 110.859828,37.7512069 110.706207,37.9451724 C110.554138,38.1391379 110.369483,38.3051724 110.147586,38.4463793 C109.930345,38.5891379 109.682069,38.6993103 109.405862,38.7815517 C109.129655,38.8637931 108.836379,38.9165517 108.522931,38.9382759 C108.448448,39.2005172 108.375517,39.4643103 108.299483,39.7265517 C108,39.7234483 107.698966,39.7172414 107.399483,39.7141379 C107.475517,39.4456897 107.551552,39.1803448 107.626034,38.9118966 L107.626034,38.9118966 Z" id="Fill-224" fill="#667584"></path>
                    <path d="M381.92431,64.8955172 C370.855862,44.3972414 341.587241,51.4963793 330.517241,30.9965517 C335.571207,23.3310345 340.626724,15.6655172 345.682241,8 C356.75069,28.4967241 386.020862,21.3975862 397.08931,41.8974138 C392.033793,49.5660345 386.978276,57.23 381.92431,64.8955172" id="Fill-225" fill="#CCD1D6"></path>
                    <path d="M381.756724,56.9336207 C370.201034,42.0774138 346.728103,45.2956897 335.172414,30.4425862 C338.739828,25.0301724 342.30569,19.6193103 345.873103,14.2068966 C357.430345,29.0631034 380.904828,25.8448276 392.458966,40.6994828 C388.891552,46.1118966 385.324138,51.5227586 381.756724,56.9336207" id="Fill-226" fill="#99A3AD"></path>
                    <path d="M371.461373,37.6839875 C369.130684,41.2188151 363.915339,42.8682979 359.72258,41.5027806 C355.52827,40.1434703 354.131718,36.0019185 356.481029,32.4407117 C358.811718,28.9043323 364.002235,27.2905392 368.196546,28.6545048 C372.389304,30.0169185 373.810684,34.1227806 371.461373,37.6839875" id="Fill-227" fill="#E5E8EA"></path>
                    <path d="M363.306724,38.0848276 C363.888621,38.2198276 364.279655,38.1344828 364.482931,37.8272414 L364.498448,37.8055172 C364.588448,37.6643103 364.610172,37.5308621 364.552759,37.402069 C364.498448,37.2732759 364.333966,37.1165517 364.067069,36.9334483 C363.812586,37.3182759 363.561207,37.7015517 363.306724,38.0848276 Z M364.98569,33.4234483 C364.667586,33.3412069 364.413103,33.3272414 364.222241,33.38 C364.034483,33.4327586 363.891724,33.5289655 363.801724,33.667069 L363.78931,33.6887931 L363.731897,34.0860345 C363.783103,34.2086207 363.952241,34.3653448 364.237759,34.5531034 C364.486034,34.1760345 364.737414,33.7989655 364.98569,33.4234483 Z M361.08,39.185 C360.508966,38.9274138 359.993793,38.6139655 359.542241,38.2462069 C359.087586,37.8815517 358.724483,37.4718966 358.448276,37.0234483 C359.118621,36.6867241 359.795172,36.3515517 360.467069,36.0117241 C360.702931,36.3810345 360.963621,36.7006897 361.242931,36.962931 C361.525345,37.2298276 361.840345,37.4532759 362.191034,37.6394828 C362.467241,37.2189655 362.740345,36.8015517 363.016552,36.3825862 C362.588276,36.1187931 362.231379,35.8643103 361.939655,35.6113793 C361.652586,35.3615517 361.44,35.1055172 361.306552,34.8417241 C361.173103,34.5794828 361.121897,34.3048276 361.154483,34.0255172 C361.182414,33.7446552 361.306552,33.4405172 361.522241,33.1115517 L361.537759,33.0898276 C361.739483,32.7841379 361.992414,32.525 362.291897,32.3108621 C362.591379,32.0967241 362.931207,31.9368966 363.306724,31.8298276 C363.682241,31.7227586 364.091897,31.6715517 364.537241,31.6746552 C364.979483,31.6808621 365.443448,31.7460345 365.932241,31.8732759 C366.062586,31.6746552 366.196034,31.4744828 366.324828,31.2758621 C366.753103,31.4186207 367.179828,31.5598276 367.605,31.7010345 C367.468448,31.912069 367.331897,32.1215517 367.192241,32.3325862 C367.668621,32.5498276 368.073621,32.7996552 368.410345,33.082069 C368.743966,33.3644828 369.023276,33.6763793 369.249828,34.0177586 C368.60431,34.3715517 367.961897,34.7268966 367.316379,35.0806897 C367.165862,34.8432759 366.979655,34.622931 366.768621,34.4227586 C366.552931,34.2241379 366.323276,34.0503448 366.079655,33.9013793 C365.812759,34.3048276 365.547414,34.712931 365.280517,35.1163793 C365.710345,35.3786207 366.062586,35.6346552 366.343448,35.8875862 C366.622759,36.1358621 366.826034,36.3934483 366.953276,36.6541379 C367.083621,36.9148276 367.125517,37.1910345 367.089828,37.475 C367.049483,37.7636207 366.925345,38.0662069 366.712759,38.3874138 L366.698793,38.4075862 C366.48931,38.7303448 366.228621,38.9910345 365.922931,39.2005172 C365.61569,39.4068966 365.27431,39.562069 364.89569,39.662931 C364.515517,39.7684483 364.113621,39.815 363.679138,39.8072414 C363.24931,39.797931 362.807069,39.7405172 362.34931,39.6303448 C362.122759,39.9717241 361.897759,40.3146552 361.669655,40.6575862 C361.242931,40.5148276 360.816207,40.372069 360.391034,40.2308621 C360.619138,39.8817241 360.848793,39.5325862 361.08,39.185 L361.08,39.185 Z" id="Fill-228" fill="#99A3AD"></path>
                    <path d="M270.920172,55.0125862 C270.920172,67.265 260.986034,77.1991379 248.732069,77.1991379 C236.479655,77.1991379 226.551724,67.265 226.551724,55.0125862 C226.551724,42.7617241 236.479655,32.8275862 248.732069,32.8275862 C260.986034,32.8275862 270.920172,42.7617241 270.920172,55.0125862" id="Fill-229" fill="#99A3AD"></path>
                    <path d="M263.906379,55.3834483 C263.906379,64.412931 256.586897,71.7339655 247.55431,71.7339655 C238.526379,71.7339655 231.206897,64.412931 231.206897,55.3834483 C231.206897,46.3539655 238.526379,39.0344828 247.55431,39.0344828 C256.586897,39.0344828 263.906379,46.3539655 263.906379,55.3834483" id="Fill-230" fill="#CCD1D6"></path>
                    <path d="M249.885,60.7337931 C251.013103,60.6158621 251.579483,60.1860345 251.579483,59.4412069 L251.579483,59.3931034 C251.579483,59.0532759 251.461552,58.7755172 251.224138,58.5551724 C250.988276,58.3363793 250.542931,58.1346552 249.885,57.9484483 L249.885,60.7337931 Z M247.529483,50.3791379 C246.902586,50.4303448 246.460345,50.57 246.199655,50.7981034 C245.938966,51.0246552 245.808621,51.3086207 245.808621,51.6468966 L245.808621,51.6965517 C245.808621,52.0363793 245.920345,52.307931 246.148448,52.5174138 C246.375,52.73 246.835862,52.927069 247.529483,53.1132759 L247.529483,50.3791379 Z M247.351034,64.3772414 C246.103448,64.2437931 244.893103,63.9644828 243.72,63.5424138 C242.545345,63.1203448 241.477759,62.5632759 240.517241,61.8727586 L242.796724,58.5055172 C243.605172,59.0796552 244.396552,59.5358621 245.163103,59.8710345 C245.929655,60.2108621 246.711724,60.4467241 247.503103,60.5817241 L247.503103,57.5434483 C246.491379,57.3075862 245.599138,57.0360345 244.832586,56.7334483 C244.066034,56.4308621 243.426724,56.0631034 242.911552,55.6332759 C242.393276,55.2018966 242.008448,54.6991379 241.744655,54.1265517 C241.483966,53.5508621 241.353621,52.8696552 241.353621,52.0751724 L241.353621,52.0255172 C241.353621,51.2822414 241.487069,50.6010345 241.760172,49.9756897 C242.030172,49.3503448 242.418103,48.8072414 242.936379,48.3432759 C243.448448,47.8777586 244.084655,47.5037931 244.832586,47.2151724 C245.582069,46.9312069 246.438621,46.7527586 247.402241,46.682931 L247.402241,45.2413793 L250.033966,45.2413793 L250.033966,46.7589655 C251.082931,46.8784483 252.043448,47.1065517 252.918621,47.4448276 C253.798448,47.7815517 254.616207,48.2113793 255.376552,48.7358621 L253.300345,52.1248276 C252.772759,51.7555172 252.225,51.4436207 251.643103,51.1906897 C251.061207,50.9377586 250.482414,50.7453448 249.909828,50.6087931 L249.909828,53.5431034 C250.921552,53.782069 251.802931,54.0536207 252.552414,54.367069 C253.303448,54.6805172 253.933448,55.0498276 254.440862,55.4796552 C254.946724,55.9110345 255.325345,56.4215517 255.579828,57.0112069 C255.831207,57.6024138 255.958448,58.2867241 255.958448,59.0625862 L255.958448,59.1122414 C255.958448,59.8881034 255.81569,60.5848276 255.528621,61.2024138 C255.24,61.8168966 254.833448,62.3537931 254.313621,62.81 C253.789138,63.2646552 253.16069,63.6262069 252.425172,63.8962069 C251.691207,64.1662069 250.879655,64.3431034 249.98431,64.4284483 L249.98431,66.9112069 L247.351034,66.9112069 L247.351034,64.3772414 L247.351034,64.3772414 Z" id="Fill-231" fill="#99A3AD"></path>
                    <path d="M419.252586,137.815172 C419.252586,146.034655 412.587931,152.69931 404.366897,152.69931 C396.147414,152.69931 389.482759,146.034655 389.482759,137.815172 C389.482759,129.594138 396.147414,122.931034 404.366897,122.931034 C412.587931,122.931034 419.252586,129.594138 419.252586,137.815172" id="Fill-232" fill="#99A3AD"></path>
                    <path d="M416.074655,138.553793 C416.074655,144.611724 411.165,149.522931 405.107069,149.522931 C399.05069,149.522931 394.137931,144.611724 394.137931,138.553793 C394.137931,132.495862 399.05069,127.586207 405.107069,127.586207 C411.165,127.586207 416.074655,132.495862 416.074655,138.553793" id="Fill-233" fill="#CCD1D6"></path>
                    <path d="M405.079138,141.086207 C405.836379,141.003966 406.216552,140.715345 406.216552,140.217241 L406.216552,140.183103 C406.216552,139.958103 406.13431,139.771897 405.979138,139.622931 C405.81931,139.475517 405.521379,139.340517 405.079138,139.214828 L405.079138,141.086207 Z M403.497931,134.139138 C403.078966,134.171724 402.782586,134.264828 402.60569,134.42 C402.430345,134.570517 402.343448,134.761379 402.343448,134.987931 L402.343448,135.022069 C402.343448,135.248621 402.421034,135.431724 402.573103,135.572931 C402.728276,135.714138 403.037069,135.847586 403.497931,135.973276 L403.497931,134.139138 Z M403.381552,143.530172 C402.542069,143.438621 401.730517,143.252414 400.942241,142.968448 C400.157069,142.686034 399.438621,142.312069 398.793103,141.848103 L400.321552,139.588793 C400.866207,139.973621 401.393793,140.280862 401.912069,140.505862 C402.427241,140.733966 402.951724,140.89069 403.482414,140.98069 L403.482414,138.944828 C402.802759,138.785 402.203793,138.605 401.691724,138.401724 C401.176552,138.196897 400.745172,137.950172 400.40069,137.661552 C400.054655,137.374483 399.793966,137.037759 399.618621,136.651379 C399.441724,136.266552 399.354828,135.807241 399.354828,135.276552 L399.354828,135.242414 C399.354828,134.74431 399.444828,134.286552 399.627931,133.867586 C399.809483,133.448621 400.073276,133.082414 400.417759,132.772069 C400.76069,132.458621 401.187414,132.208793 401.691724,132.016379 C402.194483,131.822414 402.770172,131.704483 403.41569,131.657931 L403.41569,130.689655 L405.18,130.689655 L405.18,131.71069 C405.882931,131.788276 406.525345,131.943448 407.116552,132.168448 C407.704655,132.395 408.252414,132.683621 408.761379,133.03431 L407.371034,135.31069 C407.018793,135.060862 406.649483,134.852931 406.258448,134.682241 C405.867414,134.51 405.479483,134.382759 405.094655,134.292759 L405.094655,136.260345 C405.772759,136.420172 406.363966,136.603276 406.869828,136.812759 C407.374138,137.022241 407.794655,137.272069 408.134483,137.56069 C408.47431,137.84931 408.728793,138.19069 408.897931,138.586379 C409.068621,138.983621 409.152414,139.442931 409.152414,139.962759 L409.152414,139.995345 C409.152414,140.516724 409.05931,140.985345 408.865345,141.399655 C408.674483,141.810862 408.401379,142.172414 408.049138,142.478103 C407.698448,142.782241 407.276379,143.025862 406.782931,143.207414 C406.291034,143.387414 405.746379,143.506897 405.145862,143.56431 L405.145862,145.227759 L403.381552,145.227759 L403.381552,143.530172 L403.381552,143.530172 Z" id="Fill-234" fill="#99A3AD"></path>
                    <path d="M221.508621,215.931034 C219.053793,225.976897 216.589655,236.02431 214.137931,246.073276 L282.944483,246.073276 C280.486552,236.02431 278.022414,225.976897 275.573793,215.931034 L221.508621,215.931034" id="Fill-235" fill="#66B2FC"></path>
                    <path d="M287.242759,245.413793 L209.929655,245.413793 C207.977586,245.413793 206.37931,247.277414 206.37931,249.586379 L206.37931,251.153621 L290.794655,251.153621 L290.794655,249.586379 C290.794655,247.277414 289.197931,245.413793 287.242759,245.413793" id="Fill-236" fill="#3299FB"></path>
                    <path d="M131.896552,203.517241 L131.896552,220.131552 C131.896552,223.329655 134.484828,225.914828 137.687586,225.914828 L358.611207,225.914828 C361.803103,225.914828 364.394483,223.329655 364.394483,220.131552 L364.394483,203.517241 L131.896552,203.517241" id="Fill-237" fill="#3299FB"></path>
                    <path d="M364.394483,204.083621 L364.394483,63.44 C364.394483,60.2465517 361.803103,57.6551724 358.611207,57.6551724 L137.687586,57.6551724 C134.484828,57.6551724 131.896552,60.2465517 131.896552,63.44 L131.896552,204.083621 L364.394483,204.083621" id="Fill-238" fill="#3299FB"></path>
                    <polygon id="Fill-239" fill="#FFFFFF" points="141.206897 193.202931 354.668276 193.202931 354.668276 65.4137931 141.206897 65.4137931"></polygon>
                    <polygon id="Fill-240" fill="#667584" points="141.206897 88.5562069 354.668276 88.5562069 354.668276 63.862069 141.206897 63.862069"></polygon>
                    <path d="M155.111897,77.03 C155.111897,79.1543103 153.397241,80.8705172 151.272931,80.8705172 C149.148621,80.8705172 147.413793,79.1543103 147.413793,77.03 C147.413793,74.9041379 149.148621,73.1724138 151.272931,73.1724138 C153.397241,73.1724138 155.111897,74.9041379 155.111897,77.03" id="Fill-241" fill="#0080FB"></path>
                    <path d="M164.419138,77.03 C164.419138,79.1543103 162.687414,80.8705172 160.563103,80.8705172 C158.438793,80.8705172 156.724138,79.1543103 156.724138,77.03 C156.724138,74.9041379 158.438793,73.1724138 160.563103,73.1724138 C162.687414,73.1724138 164.419138,74.9041379 164.419138,77.03" id="Fill-242" fill="#66B2FC"></path>
                    <path d="M175.28431,77.03 C175.28431,79.1543103 173.568103,80.8705172 171.44069,80.8705172 C169.300862,80.8705172 167.586207,79.1543103 167.586207,77.03 C167.586207,74.9041379 169.300862,73.1724138 171.44069,73.1724138 C173.568103,73.1724138 175.28431,74.9041379 175.28431,77.03" id="Fill-243" fill="#CCE5FE"></path>
                    <polygon id="Fill-244" fill="#FFFFFF" points="183.103448 80.8705172 341.660172 80.8705172 341.660172 73.1724138 183.103448 73.1724138"></polygon>
                    <polygon id="Fill-245" fill="#667584" points="161.172414 120.171034 175.226379 120.171034 175.226379 114.758621 161.172414 114.758621"></polygon>
                    <polygon id="Fill-246" fill="#667584" points="176.689655 120.171034 201.495517 120.171034 201.495517 114.758621 176.689655 114.758621"></polygon>
                    <polygon id="Fill-247" fill="#667584" points="294.62069 120.172586 324.06931 120.172586 324.06931 114.758621 294.62069 114.758621"></polygon>
                    <polygon id="Fill-248" fill="#667584" points="325.655172 120.172586 335.064828 120.172586 335.064828 114.758621 325.655172 114.758621"></polygon>
                    <polygon id="Fill-249" fill="#667584" points="161.172414 132.570862 167.531379 132.570862 167.531379 127.172414 161.172414 127.172414"></polygon>
                    <polygon id="Fill-250" fill="#667584" points="168.931034 132.570862 201.431897 132.570862 201.431897 127.172414 168.931034 127.172414"></polygon>
                    <polygon id="Fill-251" fill="#667584" points="294.62069 132.589483 308.676207 132.589483 308.676207 127.172414 294.62069 127.172414"></polygon>
                    <polygon id="Fill-252" fill="#667584" points="310.137931 132.589483 334.94069 132.589483 334.94069 127.172414 310.137931 127.172414"></polygon>
                    <polygon id="Fill-253" fill="#E5E8EA" points="170.482759 150.348966 185.45069 150.348966 185.45069 136.482759 170.482759 136.482759"></polygon>
                    <polygon id="Fill-254" fill="#E5E8EA" points="308.586207 151.90069 323.552586 151.90069 323.552586 138.034483 308.586207 138.034483"></polygon>
                    <path d="M315.789027,150.125075 C315.349889,150.125075 314.910751,149.966799 314.580234,149.667317 L310.596958,146.127834 C310.030579,145.623523 309.982475,144.773179 310.485234,144.205248 C310.972475,143.654386 311.839889,143.592317 312.390751,144.096627 L315.556268,146.897489 L319.064717,140.302661 C319.410751,139.641627 320.244027,139.390248 320.905062,139.751799 C321.566096,140.099386 321.801958,140.917144 321.455924,141.578179 L317.410579,149.180075 C317.143682,149.667317 316.685924,149.997834 316.119544,150.092489 L315.789027,150.125075" id="Fill-255" fill="#66B2FC"></path>
                    <path d="M177.68696,148.576951 C177.247822,148.576951 176.805581,148.420227 176.475064,148.120744 L172.491788,144.579709 C171.925409,144.075399 171.880409,143.209537 172.383167,142.660227 C172.87196,142.092296 173.737822,142.044192 174.287133,142.548503 L177.451098,145.350916 L180.959547,138.756089 C181.305581,138.095054 182.14196,137.843675 182.802995,138.189709 C183.464029,138.551261 183.699891,139.370572 183.353857,140.030054 L179.308512,147.633503 C179.041616,148.105227 178.583857,148.451261 178.017478,148.545916 L177.68696,148.576951" id="Fill-256" fill="#66B2FC"></path>
                    <polygon id="Fill-257" fill="#0080FB" points="215.482759 127.073103 276.187759 127.073103 276.187759 113.206897 215.482759 113.206897"></polygon>
                    <polygon id="Fill-258" fill="#0080FB" points="215.482759 144.142069 230.463103 144.142069 230.463103 130.275862 215.482759 130.275862"></polygon>
                    <polygon id="Fill-259" fill="#0080FB" points="238.758621 144.142069 253.743621 144.142069 253.743621 130.275862 238.758621 130.275862"></polygon>
                    <polygon id="Fill-260" fill="#0080FB" points="260.482759 144.142069 275.45069 144.142069 275.45069 130.275862 260.482759 130.275862"></polygon>
                    <polygon id="Fill-261" fill="#0080FB" points="215.482759 162.762759 276.187759 162.762759 276.187759 148.896552 215.482759 148.896552"></polygon>
                    <polygon id="Fill-262" fill="#0080FB" points="215.482759 181.526207 276.187759 181.526207 276.187759 165.965517 215.482759 165.965517"></polygon>
                    <polygon id="Fill-263" fill="#FFFFFF" points="232.551724 175.690172 241.680517 175.690172 241.680517 172.172414 232.551724 172.172414"></polygon>
                    <polygon id="Fill-264" fill="#FFFFFF" points="243.413793 175.690172 259.533103 175.690172 259.533103 172.172414 243.413793 172.172414"></polygon>
                    <g id="Group-267" transform="translate(0.000000, 93.344828)">
                        <mask id="mask-2" fill="white">
                            <use xlink:href="#path-1"></use>
                        </mask>
                        <g id="Clip-266"></g>
                        <path d="M117.931034,150.832241 C117.931034,154.086207 115.293103,156.724138 112.039138,156.724138 L5.89189655,156.724138 C2.63793103,156.724138 0,154.086207 0,150.832241 L0,5.89189655 C0,2.63793103 2.63793103,0 5.89189655,0 L112.039138,0 C115.293103,0 117.931034,2.63793103 117.931034,5.89189655 L117.931034,150.832241" id="Fill-265" mask="url(#mask-2)"></path>
                    </g>
                    <path d="M61.0106897,101.337868 C61.0355172,102.323213 60.2472414,103.134764 59.2386207,103.14873 C58.2284483,103.161144 57.4401724,102.358902 57.4137931,101.364247 C57.4137931,100.378902 58.202069,99.5657989 59.2106897,99.5518334 C60.1991379,99.5409713 61.0106897,100.341661 61.0106897,101.337868" id="Fill-268" fill="#FFFFFF"></path>
                    <path d="M62.077871,239.777469 C62.077871,241.760573 60.502871,243.385228 58.4840779,243.397642 C56.51494,243.424021 54.8871814,241.822642 54.8623538,239.837986 C54.8375262,237.842469 56.4389055,236.23178 58.4359745,236.206952 C60.4051124,236.19609 62.0297676,237.783504 62.077871,239.777469" id="Fill-269" fill="#99A3AD"></path>
                    <path d="M90,239.820031 C90,241.232078 88.8785389,242.388895 87.4410799,242.397734 C86.0389773,242.416517 84.87995,241.276273 84.8622718,239.863122 C84.8445936,238.442236 85.9848378,237.295362 87.4068284,237.277684 C88.808931,237.26995 89.9657485,238.40025 90,239.820031" id="Fill-269-Copy-2" fill="#99A3AD"></path>
                    <path d="M160,239.820031 C160,241.232078 158.878539,242.388895 157.44108,242.397734 C156.038977,242.416517 154.87995,241.276273 154.862272,239.863122 C154.844594,238.442236 155.984838,237.295362 157.406828,237.277684 C158.808931,237.26995 159.965748,238.40025 160,239.820031" id="Fill-269-Copy-3" fill="#99A3AD"></path>
                    <path d="M207.44108,242.397734 C206.038977,242.416517 204.87995,241.276273 204.862272,239.863122 C204.844594,238.442236 205.984838,237.295362 207.406828,237.277684 C208.808931,237.26995 209.965748,238.40025 210,239.820031 C210,241.232078 208.878539,242.388895 207.44108,242.397734 Z" id="Fill-269-Copy-4" fill="#99A3AD"></path>
                    <path d="M337.44108,242.397734 C336.038977,242.416517 334.87995,241.276273 334.862272,239.863122 C334.844594,238.442236 335.984838,237.295362 337.406828,237.277684 C338.808931,237.26995 339.965748,238.40025 340,239.820031 C340,241.232078 338.878539,242.388895 337.44108,242.397734 Z" id="Fill-269-Copy-5" fill="#99A3AD"></path>
                    <path d="M414.077871,239.777469 C414.077871,241.760573 412.502871,243.385228 410.484078,243.397642 C408.51494,243.424021 406.887181,241.822642 406.862354,239.837986 C406.837526,237.842469 408.438906,236.23178 410.435974,236.206952 C412.405112,236.19609 414.029768,237.783504 414.077871,239.777469" id="Fill-269-Copy" fill="#99A3AD"></path>
                    <path d="M60.0091379,231.888302 C60.0091379,232.999164 59.1301383,233.905848 58.0313888,233.905848 C56.9326393,233.919691 56,233.026849 56,231.915987 C56,230.817238 56.8789996,229.908823 57.9777491,229.896711 C59.1024533,229.882868 60.0091379,230.77571 60.0091379,231.888302" id="Fill-270" fill="#676867"></path>
                    <polygon id="Fill-271" fill="#E5E8EA" points="10.862069 230.618103 109.093966 230.618103 109.093966 104.206897 10.862069 104.206897"></polygon>
                    <polygon id="Fill-272" fill="#667584" points="10.862069 122.239483 109.093966 122.239483 109.093966 104.206897 10.862069 104.206897"></polygon>
                    <path d="M21.1360345,113.223966 C21.1360345,114.774138 19.8713793,116.032586 18.3196552,116.032586 C16.767931,116.032586 15.5172414,114.774138 15.5172414,113.223966 C15.5172414,111.672241 16.767931,110.413793 18.3196552,110.413793 C19.8713793,110.413793 21.1360345,111.672241 21.1360345,113.223966" id="Fill-273" fill="#0080FB"></path>
                    <path d="M28.8977586,113.223966 C28.8977586,114.774138 27.6424138,116.032586 26.0906897,116.032586 C24.5389655,116.032586 23.2758621,114.774138 23.2758621,113.223966 C23.2758621,111.672241 24.5389655,110.413793 26.0906897,110.413793 C27.6424138,110.413793 28.8977586,111.672241 28.8977586,113.223966" id="Fill-274" fill="#66B2FC"></path>
                    <path d="M35.1124138,113.223966 C35.1124138,114.774138 33.8493103,116.032586 32.2975862,116.032586 C30.7458621,116.032586 29.4827586,114.774138 29.4827586,113.223966 C29.4827586,111.672241 30.7458621,110.413793 32.2975862,110.413793 C33.8493103,110.413793 35.1124138,111.672241 35.1124138,113.223966" id="Fill-275" fill="#CCE5FE"></path>
                    <polygon id="Fill-276" fill="#FFFFFF" points="41.8965517 116.032586 94.1477586 116.032586 94.1477586 110.413793 41.8965517 110.413793"></polygon>
                    <polygon id="Fill-277" fill="#66B2FC" points="55.862069 139.157931 100.182414 139.157931 100.182414 129.034483 55.862069 129.034483"></polygon>
                    <polygon id="Fill-278" fill="#66B2FC" points="55.862069 151.577931 66.8001724 151.577931 66.8001724 141.448276 55.862069 141.448276"></polygon>
                    <polygon id="Fill-279" fill="#FFFFFF" points="27.9310345 190.366379 38.8722414 190.366379 38.8722414 180.241379 27.9310345 180.241379"></polygon>
                    <polygon id="Fill-280" fill="#FFFFFF" points="27.9310345 204.319483 38.8722414 204.319483 38.8722414 194.206897 27.9310345 194.206897"></polygon>
                    <polygon id="Fill-281" fill="#66B2FC" points="72.9310345 151.577931 83.8722414 151.577931 83.8722414 141.448276 72.9310345 141.448276"></polygon>
                    <polygon id="Fill-282" fill="#66B2FC" points="90 151.577931 100.938103 151.577931 100.938103 141.448276 90 141.448276"></polygon>
                    <polygon id="Fill-283" fill="#66B2FC" points="55.862069 165.537241 100.182414 165.537241 100.182414 155.413793 55.862069 155.413793"></polygon>
                    <polygon id="Fill-284" fill="#66B2FC" points="55.862069 177.95569 100.182414 177.95569 100.182414 167.827586 55.862069 167.827586"></polygon>
                    <polygon id="Fill-285" fill="#66B2FC" points="55.862069 190.367931 100.182414 190.367931 100.182414 180.241379 55.862069 180.241379"></polygon>
                    <polygon id="Fill-286" fill="#66B2FC" points="55.862069 204.333448 100.182414 204.333448 100.182414 194.206897 55.862069 194.206897"></polygon>
                    <polygon id="Fill-287" fill="#99A3AD" points="17.0689655 136.085517 27.3212069 136.085517 27.3212069 132.137931 17.0689655 132.137931"></polygon>
                    <polygon id="Fill-288" fill="#99A3AD" points="29.4827586 136.085517 47.5944828 136.085517 47.5944828 132.137931 29.4827586 132.137931"></polygon>
                    <polygon id="Fill-289" fill="#99A3AD" points="17.0689655 150.049483 38.5603448 150.049483 38.5603448 146.103448 17.0689655 146.103448"></polygon>
                    <polygon id="Fill-290" fill="#99A3AD" points="40.3448276 150.049483 47.2158621 150.049483 47.2158621 146.103448 40.3448276 146.103448"></polygon>
                    <polygon id="Fill-291" fill="#99A3AD" points="17.0689655 162.464828 21.7117241 162.464828 21.7117241 158.517241 17.0689655 158.517241"></polygon>
                    <polygon id="Fill-292" fill="#99A3AD" points="23.2758621 162.464828 47.0032759 162.464828 47.0032759 158.517241 23.2758621 158.517241"></polygon>
                    <polygon id="Fill-293" fill="#99A3AD" points="17.0689655 174.872414 27.3212069 174.872414 27.3212069 170.931034 17.0689655 170.931034"></polygon>
                    <polygon id="Fill-294" fill="#99A3AD" points="29.4827586 174.872414 47.5944828 174.872414 47.5944828 170.931034 29.4827586 170.931034"></polygon>
                    <path d="M31.0344828,198.804655 L33.9408621,201.389828 C34.1022414,201.527931 34.3768966,201.493793 34.4684483,201.307586 L37.422931,195.758621 L31.0344828,198.804655" id="Fill-295" fill="#66B2FC"></path>
                    <path d="M31.0344828,186.38931 L33.9408621,188.974483 C34.1022414,189.123448 34.3768966,189.076897 34.4684483,188.892241 L37.422931,183.344828 L31.0344828,186.38931" id="Fill-296" fill="#66B2FC"></path>
                    <polygon id="Fill-297" fill="#00407D" points="34.137931 225.896207 85.1260345 225.896207 85.1260345 212.827586 34.137931 212.827586"></polygon>
                    <polygon id="Fill-298" fill="#FFFFFF" points="49.6551724 220.434138 57.3160345 220.434138 57.3160345 217.482759 49.6551724 217.482759"></polygon>
                    <polygon id="Fill-299" fill="#FFFFFF" points="57.4137931 220.434138 70.9525862 220.434138 70.9525862 217.482759 57.4137931 217.482759"></polygon>
                    <g id="Group-302" transform="translate(375.517241, 135.344828)">
                        <mask id="mask-4" fill="white">
                            <use xlink:href="#path-3"></use>
                        </mask>
                        <g id="Clip-301"></g>
                        <path d="M60.5172414,108.569483 C60.5172414,110.312069 59.1051724,111.724138 57.3625862,111.724138 L3.15465517,111.724138 C1.41206897,111.724138 0,110.312069 0,108.569483 L0,3.15465517 C0,1.41206897 1.41206897,0 3.15465517,0 L57.3625862,0 C59.1051724,0 60.5172414,1.41206897 60.5172414,3.15465517 L60.5172414,108.569483" id="Fill-300" mask="url(#mask-4)"></path>
                    </g>
                    <polygon id="Fill-303" fill="#E5E8EA" points="382 230.448276 432.988103 230.448276 432.988103 142 382 142"></polygon>
                    <polygon id="Fill-304" fill="#5C5C59" points="383.275862 153.484483 431.37931 153.484483 431.37931 144.655172 383.275862 144.655172"></polygon>
                    <polygon id="Fill-305" fill="#3299FB" points="389.482759 181.901207 405.003103 181.901207 405.003103 166.37931 389.482759 166.37931"></polygon>
                    <polyline id="Fill-306" fill="#F4F3F0" points="389.509138 166.40569 389.482759 166.432069 405.003103 181.953966 405.055862 181.901207 389.535517 166.37931 389.482759 166.432069 389.509138 166.40569 389.482759 166.432069 405.003103 181.953966 405.055862 181.901207 389.535517 166.37931 389.482759 166.432069 389.509138 166.40569"></polyline>
                    <polyline id="Fill-307" fill="#F4F3F0" points="405.029483 166.40569 405.003103 166.37931 389.482759 181.901207 389.535517 181.953966 405.055862 166.432069 405.003103 166.37931 405.029483 166.40569 405.003103 166.37931 389.482759 181.901207 389.535517 181.953966 405.055862 166.432069 405.003103 166.37931 405.029483 166.40569"></polyline>
                    <polygon id="Fill-308" fill="#3299FB" points="408.103448 181.901207 423.617586 181.901207 423.617586 166.37931 408.103448 166.37931"></polygon>
                    <polyline id="Fill-309" fill="#F4F3F0" points="408.129828 166.40569 408.103448 166.432069 423.617586 181.953966 423.670345 181.901207 408.156207 166.37931 408.103448 166.432069 408.129828 166.40569 408.103448 166.432069 423.617586 181.953966 423.670345 181.901207 408.156207 166.37931 408.103448 166.432069 408.129828 166.40569"></polyline>
                    <polyline id="Fill-310" fill="#F4F3F0" points="423.643966 166.40569 423.617586 166.37931 408.103448 181.901207 408.156207 181.953966 423.670345 166.432069 423.617586 166.37931 423.643966 166.40569 423.617586 166.37931 408.103448 181.901207 408.156207 181.953966 423.670345 166.432069 423.617586 166.37931 423.643966 166.40569"></polyline>
                    <polygon id="Fill-311" fill="#3299FB" points="389.482759 202.070517 405.003103 202.070517 405.003103 186.551724 389.482759 186.551724"></polygon>
                    <polyline id="Fill-312" fill="#F4F3F0" points="389.509138 186.578103 389.482759 186.604483 405.006207 202.123276 405.058966 202.070517 389.535517 186.551724 389.482759 186.604483 389.509138 186.578103 389.482759 186.604483 405.006207 202.123276 405.058966 202.070517 389.535517 186.551724 389.482759 186.604483 389.509138 186.578103"></polyline>
                    <polyline id="Fill-313" fill="#F4F3F0" points="405.032586 186.578103 405.006207 186.551724 389.482759 202.070517 389.535517 202.123276 405.058966 186.604483 405.006207 186.551724 405.032586 186.578103 405.006207 186.551724 389.482759 202.070517 389.535517 202.123276 405.058966 186.604483 405.006207 186.551724 405.032586 186.578103"></polyline>
                    <path d="M412.009138,231.888302 C412.009138,232.999164 411.130138,233.905848 410.031389,233.905848 C408.932639,233.919691 408,233.026849 408,231.915987 C408,230.817238 408.879,229.908823 409.977749,229.896711 C411.102453,229.882868 412.009138,230.77571 412.009138,231.888302" id="Fill-270-Copy" fill="#676867"></path>
                    <polygon id="Fill-314" fill="#3299FB" points="408.103448 202.068966 423.617586 202.068966 423.617586 186.551724 408.103448 186.551724"></polygon>
                    <polyline id="Fill-315" fill="#F4F3F0" points="408.129828 186.578103 408.103448 186.604483 423.617586 202.121724 423.670345 202.068966 408.156207 186.551724 408.103448 186.604483 408.129828 186.578103 408.103448 186.604483 423.617586 202.121724 423.670345 202.068966 408.156207 186.551724 408.103448 186.604483 408.129828 186.578103"></polyline>
                    <polyline id="Fill-316" fill="#F4F3F0" points="423.643966 186.578103 423.617586 186.551724 408.103448 202.068966 408.156207 202.121724 423.670345 186.604483 423.617586 186.551724 423.643966 186.578103 423.617586 186.551724 408.103448 202.068966 408.156207 202.121724 423.670345 186.604483 423.617586 186.551724 423.643966 186.578103"></polyline>
                    <polygon id="Fill-317" fill="#3299FB" points="389.482759 222.242931 405.003103 222.242931 405.003103 206.724138 389.482759 206.724138"></polygon>
                    <polyline id="Fill-318" fill="#F4F3F0" points="389.509138 206.750517 389.482759 206.775345 405.003103 222.29569 405.055862 222.244483 389.535517 206.724138 389.482759 206.775345 389.509138 206.750517 389.482759 206.775345 405.003103 222.29569 405.055862 222.244483 389.535517 206.724138 389.482759 206.775345 389.509138 206.750517"></polyline>
                    <polyline id="Fill-319" fill="#F4F3F0" points="405.029483 206.750517 405.003103 206.724138 389.482759 222.244483 389.535517 222.29569 405.055862 206.775345 405.003103 206.724138 405.029483 206.750517 405.003103 206.724138 389.482759 222.244483 389.535517 222.29569 405.055862 206.775345 405.003103 206.724138 405.029483 206.750517"></polyline>
                    <polygon id="Fill-320" fill="#3299FB" points="408.103448 222.246034 423.617586 222.246034 423.617586 206.724138 408.103448 206.724138"></polygon>
                    <polyline id="Fill-321" fill="#F4F3F0" points="408.129828 206.750517 408.103448 206.776897 423.617586 222.298793 423.670345 222.246034 408.156207 206.724138 408.103448 206.776897 408.129828 206.750517 408.103448 206.776897 423.617586 222.298793 423.670345 222.246034 408.156207 206.724138 408.103448 206.776897 408.129828 206.750517"></polyline>
                    <polyline id="Fill-322" fill="#F4F3F0" points="423.643966 206.750517 423.617586 206.724138 408.103448 222.246034 408.156207 222.298793 423.670345 206.776897 423.617586 206.724138 423.643966 206.750517 423.617586 206.724138 408.103448 222.246034 408.156207 222.298793 423.670345 206.776897 423.617586 206.724138 423.643966 206.750517"></polyline>
                    <path d="M387.580345,149.133448 C387.580345,149.893793 386.967414,150.509828 386.200862,150.509828 C385.446724,150.509828 384.827586,149.893793 384.827586,149.133448 C384.827586,148.373103 385.446724,147.758621 386.200862,147.758621 C386.967414,147.758621 387.580345,148.373103 387.580345,149.133448" id="Fill-323" fill="#0080FB"></path>
                    <path d="M390.683793,149.133448 C390.683793,149.893793 390.070862,150.509828 389.310517,150.509828 C388.550172,150.509828 387.931034,149.893793 387.931034,149.133448 C387.931034,148.373103 388.550172,147.758621 389.310517,147.758621 C390.070862,147.758621 390.683793,148.373103 390.683793,149.133448" id="Fill-324" fill="#66B2FC"></path>
                    <path d="M395.338966,149.133448 C395.338966,149.893793 394.719828,150.509828 393.959483,150.509828 C393.202241,150.509828 392.586207,149.893793 392.586207,149.133448 C392.586207,148.373103 393.202241,147.758621 393.959483,147.758621 C394.719828,147.758621 395.338966,148.373103 395.338966,149.133448" id="Fill-325" fill="#CCE5FE"></path>
                    <polygon id="Fill-326" fill="#FFFFFF" points="397.241379 150.509828 422.833966 150.509828 422.833966 147.758621 397.241379 147.758621"></polygon>
                    <polygon id="Fill-332" fill="#F4F4F2" points="245.172414 258.88431 249.599483 258.88431 249.599483 256.275862 245.172414 256.275862"></polygon>
                    <path d="M104.76,77.84 L104.76,77.84 C104.76,71.4143103 99.5415517,66.1943103 93.1034483,66.1943103 C99.5415517,66.1943103 104.76,60.9774138 104.76,54.5517241 C104.76,60.9774138 109.967586,66.1943103 116.394828,66.1943103 C109.967586,66.1943103 104.76,71.4143103 104.76,77.84" id="Fill-345" fill="#0080FB"></path>
                    <path d="M183.656552,23.2882759 L183.656552,23.2882759 C183.656552,16.8625862 178.438103,11.6425862 172,11.6425862 C178.438103,11.6425862 183.656552,6.42568966 183.656552,0 C183.656552,6.42568966 188.864138,11.6425862 195.291379,11.6425862 C188.864138,11.6425862 183.656552,16.8625862 183.656552,23.2882759" id="Fill-345" fill="#0080FB"></path>
                    <path d="M92.3337931,79.3932759 L92.3337931,79.3932759 C92.3337931,75.5341379 89.2163793,72.4012069 85.3448276,72.4012069 C89.2163793,72.4012069 92.3337931,69.2713793 92.3337931,65.4137931 C92.3337931,69.2713793 95.4651724,72.4012069 99.3227586,72.4012069 C95.4651724,72.4012069 92.3337931,75.5341379 92.3337931,79.3932759" id="Fill-346" fill="#3299FB"></path>
                    <path d="M153.988966,13.9794828 L153.988966,13.9794828 C153.988966,10.1203448 150.871552,6.98741379 147,6.98741379 C150.871552,6.98741379 153.988966,3.85758621 153.988966,0 C153.988966,3.85758621 157.120345,6.98741379 160.977931,6.98741379 C157.120345,6.98741379 153.988966,10.1203448 153.988966,13.9794828" id="Fill-346" fill="#3299FB"></path>
                    <path d="M290.794655,37.9794828 L290.794655,37.9794828 C290.794655,34.1203448 287.677241,30.9874138 283.80569,30.9874138 C287.677241,30.9874138 290.794655,27.8575862 290.794655,24 C290.794655,27.8575862 293.926034,30.9874138 297.783621,30.9874138 C293.926034,30.9874138 290.794655,34.1203448 290.794655,37.9794828" id="Fill-346" fill="#3299FB"></path>
                </g>
                <g id="wb_circle_25" transform="translate(166.000000, 92.000000)">
                    <g id="Group-Copy-19" stroke="#0080FB" stroke-width="4.66">
                        <use id="Oval" mask="url(#mask-6)" xlink:href="#path-5"></use>
                    </g>
                    <g id="Group-2" transform="translate(4.476982, 5.062916)" fill="#0080FB">
                        <rect id="Rectangle-7" x="0.204669921" y="0.211180124" width="7.68790114" height="1.58650997"></rect>
                        <polygon id="Rectangle-7-Copy" transform="translate(1.868665, 3.725543) rotate(19.000000) translate(-1.868665, -3.725543) " points="1.07881264 7.16926596 1.07881264 0.281819746 2.65851835 0.791294157 2.65851835 4.94139746 2.65851835 6.65979155"></polygon>
                        <polygon id="Rectangle-7-Copy-2" transform="translate(6.537152, 3.663288) scale(-1, 1) rotate(19.000000) translate(-6.537152, -3.663288) " points="5.43488127 6.0043891 6.05971627 5.78924116 6.05971627 0.177832914 7.63942198 0.641954227 7.60894499 6.53583029 5.82891427 7.14874402"></polygon>
                    </g>
                </g>
                <g id="workbench_50" transform="translate(383.000000, 156.000000)">
                    <g id="Group-6-Copy" fill="#0080FB">
                        <g id="Group-Copy-3">
                            <path d="M6.17505297,2.28210058 C6.49396604,2.28210058 6.70793443,2.2711572 6.81696454,2.24927011 L6.81696454,2.42573388 C6.69703142,2.46950805 6.58868437,2.55226736 6.49192015,2.67401429 C6.39515592,2.79576122 6.30588886,2.98521849 6.22411628,3.24239178 L5.17743245,6.6116186 C5.03296755,6.59793917 4.89804482,6.59109956 4.77266019,6.59109956 C4.65000131,6.59109956 4.51371572,6.59793917 4.36379932,6.6116186 L3.3661788,3.70612214 L2.60569758,6.6116186 C2.46123268,6.59793917 2.32630995,6.59109956 2.20092532,6.59109956 C2.0809922,6.59109956 1.94606946,6.59793917 1.79615306,6.6116186 L0.50415271,2.89767186 C0.433283138,2.70068806 0.356281778,2.57278731 0.273146318,2.51396576 C0.190010859,2.45514421 0.104832363,2.42573388 0.0176082748,2.42573388 L0.0176082748,2.24927011 C0.464631727,2.28210074 0.962074144,2.29851581 1.50995045,2.29851581 C1.78797723,2.29851581 2.15049691,2.28210074 2.59752036,2.24927011 L2.59752036,2.42573388 C2.42579794,2.42573388 2.30245948,2.43872914 2.22750128,2.46472006 C2.15254307,2.49071098 2.11506454,2.54611184 2.11506454,2.6309243 C2.11506454,2.66649082 2.12051596,2.70479265 2.13141897,2.74583094 L2.82648245,5.07269039 L3.54607758,2.25747773 L3.5542548,2.25747773 C3.67146217,2.26842127 3.80502205,2.27389296 3.95493845,2.27389296 C4.06669431,2.27389296 4.22887417,2.26842127 4.44148288,2.25747773 L5.39412871,5.33123033 L5.75392628,4.13291823 C5.84387612,3.83197077 5.88885036,3.56249004 5.88885036,3.32446795 C5.88885036,3.04267169 5.82684042,2.82722389 5.70281867,2.6781181 C5.57879692,2.52901231 5.41457278,2.44488508 5.21014132,2.42573388 L5.21014132,2.24927011 C5.42002428,2.2711572 5.74165828,2.28210058 6.17505297,2.28210058 Z M10.6707126,2.67401429 C11.0441408,3.0365192 11.230852,3.62404191 11.230852,4.43660007 C11.230852,5.24642234 11.0441408,5.83120921 10.6707126,6.19097822 C10.2972845,6.55074724 9.76713356,6.73062905 9.08024386,6.73062905 C8.39062842,6.73062905 7.8591146,6.55074724 7.48568647,6.19097822 C7.11225834,5.83120921 6.92554708,5.24642234 6.92554708,4.43660007 C6.92554708,3.62404191 7.11293977,3.0365192 7.48773078,2.67401429 C7.86252178,2.31150939 8.39335417,2.13025966 9.08024386,2.13025966 C9.76713356,2.13025966 10.2972845,2.31150939 10.6707126,2.67401429 Z M8.65298426,2.82790711 C8.54531702,3.18083641 8.49148421,3.71706204 8.49148421,4.43660007 C8.49148421,5.15340221 8.54531702,5.68689199 8.65298426,6.0370854 C8.76065149,6.38727882 8.90306993,6.5623729 9.08024386,6.5623729 C9.25741779,6.5623729 9.39915481,6.38727882 9.50545917,6.0370854 C9.61176353,5.68689199 9.66491491,5.15340221 9.66491491,4.43660007 C9.66491491,3.71706204 9.61176353,3.18083641 9.50545917,2.82790711 C9.39915481,2.47497781 9.25741779,2.29851581 9.08024386,2.29851581 C8.90306993,2.29851581 8.76065149,2.47497781 8.65298426,2.82790711 Z M14.7656887,2.13025966 C15.0382639,2.13025966 15.2345152,2.21438689 15.3544483,2.38264389 C15.4743814,2.55090088 15.5343471,2.7499336 15.5343471,2.97974803 C15.5343471,3.23144955 15.46416,3.43185019 15.3237838,3.58095598 C15.1834075,3.73006177 14.9973777,3.80461355 14.7656887,3.80461355 C14.5230967,3.80461355 14.3377483,3.75058061 14.2096379,3.64251311 C14.0815275,3.53444561 14.0174733,3.38739394 14.0174733,3.20135369 C14.0174733,2.86757559 14.1605732,2.6063024 14.4467772,2.41752626 C14.3459243,2.41752626 14.2559758,2.43667717 14.176929,2.47497958 C14.0351899,2.53516907 13.9173028,2.63434345 13.8232644,2.7725057 C13.7292259,2.91066794 13.6822074,3.06182338 13.6822074,3.22597654 L13.6822074,5.74571499 C13.6822074,5.92354759 13.7067388,6.06239172 13.7558023,6.16225156 C13.8048659,6.2621114 13.8811858,6.33255941 13.9847644,6.3735977 C14.088343,6.41463599 14.2273543,6.43515483 14.4018025,6.43515483 L14.4018025,6.6116186 C13.7149128,6.58973151 13.2638075,6.57878813 13.048473,6.57878813 C12.8413158,6.57878813 12.3942991,6.58973151 11.7074094,6.6116186 L11.7074094,6.43515483 C11.8246167,6.43515483 11.9172909,6.41737184 11.9854348,6.38180532 C12.0535786,6.3462388 12.1026414,6.28468229 12.1326247,6.19713394 C12.1626079,6.10958558 12.1775994,5.98784048 12.1775994,5.83189497 L12.1775994,3.16441942 C12.1775994,2.90451024 12.1421651,2.7164209 12.0712955,2.60014574 C12.000426,2.48387058 11.8791318,2.42573388 11.7074094,2.42573388 L11.7074094,2.24927011 C11.8845833,2.26568542 12.057666,2.27389296 12.2266627,2.27389296 C12.807248,2.27389296 13.2924247,2.23559113 13.6822074,2.15898632 L13.6822074,2.76224618 C13.9002676,2.34091973 14.2614244,2.13025966 14.7656887,2.13025966 Z M20.2078613,6.14173252 C20.2473847,6.2142335 20.2875889,6.27510605 20.3284752,6.324352 C20.3693615,6.37359795 20.4143358,6.41053186 20.4633993,6.43515483 L20.4633993,6.6116186 C19.9509578,6.58973151 19.6143324,6.57878813 19.453513,6.57878813 C19.265436,6.57878813 18.8715706,6.58973151 18.271905,6.6116186 L18.271905,6.43515483 C18.4327245,6.43515483 18.513133,6.38317378 18.513133,6.27921011 C18.513133,6.24364359 18.5022301,6.19987007 18.4804241,6.14788823 L17.7444745,4.58433717 C17.684508,4.46942996 17.5945595,4.40787345 17.4746263,4.39966579 L17.4746263,5.83189497 C17.4746263,5.98784048 17.4896178,6.10958558 17.519601,6.19713394 C17.5495843,6.28468229 17.5986471,6.3462388 17.666791,6.38180532 C17.7349348,6.41737184 17.827609,6.43515483 17.9448163,6.43515483 L17.9448163,6.6116186 C17.3451507,6.58973151 16.9485597,6.57878813 16.7550312,6.57878813 C16.5615028,6.57878813 16.143106,6.58973151 15.4998283,6.6116186 L15.4998283,6.43515483 C15.6170357,6.43515483 15.7097099,6.41737184 15.7778537,6.38180532 C15.8459976,6.3462388 15.8950604,6.28468229 15.9250436,6.19713394 C15.9550269,6.10958558 15.9700183,5.98784048 15.9700183,5.83189497 L15.9700183,1.0468542 C15.9700183,0.786945028 15.9959132,0.379856615 15.9250436,0.263581458 C15.8541741,0.1473063 15.6715508,0.308168664 15.4998283,0.308168664 L15.4998283,0.131704896 C15.6742765,0.148120212 15.8473592,0.156327747 16.0190816,0.156327747 C16.6051185,0.156327747 17.0902952,0.116657994 17.4746263,0.0373172991 L17.4746263,4.23961726 C17.6381715,4.23414548 17.7581028,4.19310781 17.8344239,4.116503 L18.4804241,3.50913933 C18.6766783,3.32309908 18.7748039,3.14116539 18.7748039,2.9633328 C18.7748039,2.81833084 18.7114311,2.69521781 18.5846836,2.59399003 C18.4579361,2.49276224 18.2978005,2.43394158 18.1042721,2.41752626 L18.1042721,2.24927011 C18.4231852,2.26568542 18.7584477,2.27389296 19.1100698,2.27389296 C19.6552204,2.27389296 20.03682,2.26568542 20.2548803,2.24927011 L20.2548803,2.41752626 C19.8650976,2.52422582 19.4521523,2.79917824 19.0160318,3.24239178 L18.7993356,3.45578982 L20.1281334,5.99604732 C20.1417622,6.02067029 20.1683378,6.06923154 20.2078613,6.14173252 Z M23.6302611,2.13025966 C23.9137394,2.13025966 24.1645049,2.20823124 24.3825651,2.36417675 C24.6006254,2.52012225 24.7723452,2.75608888 24.8977298,3.07208372 C25.0231145,3.38807856 25.0858058,3.77725251 25.0858058,4.23961726 C25.0858058,5.12878022 24.9065903,5.76623211 24.5481538,6.15199204 C24.1897173,6.53775197 23.7188506,6.73062905 23.1355395,6.73062905 C22.9474626,6.73062905 22.7914156,6.72310547 22.6673938,6.7080581 C22.5433721,6.69301073 22.425485,6.66086455 22.3137291,6.6116186 C22.1229265,6.54048556 21.9225866,6.50491958 21.7127037,6.50491958 C21.543707,6.50491958 21.3862971,6.52680634 21.2404694,6.57058051 C21.0946416,6.61435469 20.9835688,6.67317536 20.9072478,6.74704428 L20.7927667,6.6608643 C20.8309273,6.5432212 20.8500072,6.39001388 20.8500072,6.20123774 L20.8500072,1.0468542 C20.8500072,0.786945028 20.8636363,0.47403739 20.7927667,0.357762233 C20.7218971,0.241487076 20.5515397,0.308168664 20.3798172,0.308168664 L20.3798172,0.131704896 C20.5542654,0.148120212 20.7273481,0.156327747 20.8990705,0.156327747 C21.4851074,0.156327747 21.971647,0.116657994 22.3587038,0.0373172991 L22.3587038,2.76224618 C22.6121989,2.34091973 23.036047,2.13025966 23.6302611,2.13025966 Z M22.7512103,6.5623729 C23.2636518,6.5623729 23.5198687,5.85378904 23.5198687,4.43660007 C23.5198687,3.7444209 23.4701245,3.26017633 23.3706345,2.98385184 C23.2711445,2.70752735 23.1341775,2.56936718 22.9597293,2.56936718 C22.8561507,2.56936718 22.7580251,2.5953577 22.6653495,2.64733954 C22.5726739,2.69932137 22.4983983,2.7711373 22.4425203,2.86278949 C22.3866424,2.95444167 22.3587038,3.05771982 22.3587038,3.17262703 L22.3587038,6.46388149 C22.4813627,6.52954276 22.6121969,6.5623729 22.7512103,6.5623729 Z M27.2141611,4.31758962 C27.2141611,4.85655917 27.3075167,5.24026143 27.4942308,5.46870792 C27.6809448,5.6971544 27.9092232,5.81137593 28.1790727,5.81137593 C28.5852099,5.81137593 28.9231982,5.62397055 29.1930477,5.24915416 L29.336149,5.30250367 C29.2571022,5.5514693 29.1426223,5.78333217 28.9927059,5.99809922 C28.8427895,6.21286628 28.6492639,6.38864432 28.4121234,6.52543862 C28.1749829,6.66223292 27.899686,6.73062905 27.5862245,6.73062905 C27.0001876,6.73062905 26.5306838,6.54801139 26.1776988,6.18277061 C25.8247138,5.81752982 25.648224,5.23547879 25.648224,4.43660007 C25.648224,3.91678172 25.7408982,3.48451821 25.9262493,3.13979656 C26.1116005,2.79507492 26.3657732,2.54064134 26.6887749,2.37648817 C27.0117766,2.21233501 27.3831548,2.13025966 27.8029207,2.13025966 C28.8577871,2.13025966 29.3852123,2.75813609 29.3852123,4.01390779 L27.2223383,4.01390779 C27.2168868,4.07956905 27.2141611,4.18079532 27.2141611,4.31758962 Z M28.066636,2.75609046 C27.9971293,2.47019037 27.8887823,2.32724247 27.7415916,2.32724247 C27.5889495,2.32724247 27.4662924,2.44761965 27.3736168,2.68837762 C27.2809412,2.9291356 27.2209756,3.31762559 27.193718,3.85385925 L28.1627183,3.85385925 C28.1681698,3.40790983 28.1361427,3.04199056 28.066636,2.75609046 Z M33.0427072,2.13025966 C33.4870049,2.13025966 33.8018246,2.24242931 33.9871758,2.46677196 C34.0716741,2.56799975 34.1336841,2.70410803 34.1732075,2.87510091 C34.2127309,3.04609379 34.2324923,3.27248497 34.2324923,3.55428123 L34.2324923,5.83189497 C34.2324923,5.98784048 34.2474837,6.10958558 34.277467,6.19713394 C34.3074503,6.28468229 34.3558317,6.3462388 34.4226126,6.38180532 C34.4893936,6.41737184 34.5813863,6.43515483 34.6985937,6.43515483 L34.6985937,6.6116186 C34.0989281,6.58973151 33.7091513,6.57878813 33.5292516,6.57878813 C33.3357232,6.57878813 32.9391321,6.58973151 32.3394665,6.6116186 L32.3394665,6.43515483 C32.4375936,6.43515483 32.5139135,6.41737184 32.5684286,6.38180532 C32.6229436,6.3462388 32.6624665,6.28536625 32.6869982,6.19918584 C32.71153,6.11300543 32.7237957,5.99057637 32.7237957,5.83189497 L32.7237957,3.09875848 C32.7237957,2.91819 32.6910872,2.78481756 32.6256691,2.69863715 C32.560251,2.61245673 32.456674,2.56936718 32.3149348,2.56936718 C32.2113562,2.56936718 32.1132306,2.5953577 32.020555,2.64733954 C31.9278794,2.69932137 31.8529224,2.7711373 31.7956815,2.86278949 C31.7384407,2.95444167 31.7098208,3.05771982 31.7098208,3.17262703 L31.7098208,5.83189497 C31.7098208,5.98784048 31.7220865,6.10958558 31.7466182,6.19713394 C31.77115,6.28468229 31.8113543,6.3462388 31.8672322,6.38180532 C31.9231101,6.41737184 32.0001115,6.43515483 32.0982386,6.43515483 L32.0982386,6.6116186 C31.531282,6.58973151 31.1619481,6.57878813 30.9902256,6.57878813 C30.7966972,6.57878813 30.3783004,6.58973151 29.7350228,6.6116186 L29.7350228,6.43515483 C29.8522301,6.43515483 29.9449043,6.41737184 30.0130482,6.38180532 C30.081192,6.3462388 30.1302548,6.28468229 30.1602381,6.19713394 C30.1902213,6.10958558 30.2052128,5.98784048 30.2052128,5.83189497 L30.2052128,3.16441942 C30.2052128,2.90451024 30.1697785,2.7164209 30.0989089,2.60014574 C30.0280394,2.48387058 29.9067452,2.42573388 29.7350228,2.42573388 L29.7350228,2.24927011 C29.9121967,2.26568542 30.0852794,2.27389296 30.2542761,2.27389296 C30.8348614,2.27389296 31.3200381,2.23559113 31.7098208,2.15898632 L31.7098208,2.76224618 C31.9633158,2.34091973 32.4076068,2.13025966 33.0427072,2.13025966 Z M38.5094114,5.99604732 C38.3581322,6.21218231 38.1639252,6.38864432 37.9267847,6.52543862 C37.6896442,6.66223292 37.4143473,6.73062905 37.1008857,6.73062905 C36.4903171,6.73062905 36.0010518,6.54801139 35.6330752,6.18277061 C35.2650986,5.81752982 35.081113,5.23547879 35.081113,4.43660007 C35.081113,3.91678172 35.1737872,3.48451821 35.3591384,3.13979656 C35.5444896,2.79507492 35.7986623,2.54064134 36.121664,2.37648817 C36.4446657,2.21233501 36.8160439,2.13025966 37.2358098,2.13025966 C37.4647731,2.13025966 37.6753343,2.1541983 37.8674999,2.20207631 C38.0596654,2.24995432 38.2170753,2.31082687 38.3397342,2.38469579 C38.4951021,2.47498003 38.6177591,2.59604117 38.707709,2.74788285 C38.7976588,2.89972452 38.842633,3.07003088 38.842633,3.25880701 C38.842633,3.41201663 38.8078802,3.55086077 38.7383735,3.67534358 C38.6688668,3.7998264 38.5727855,3.89763285 38.4501266,3.96876589 C38.3274677,4.03989893 38.1898193,4.07546491 38.0371771,4.07546491 C37.7973109,4.07546491 37.6092368,4.00570087 37.4729491,3.86617068 C37.3366615,3.72664049 37.2685187,3.54333887 37.2685187,3.31626033 C37.2685187,3.11380476 37.3346172,2.9366588 37.4668162,2.78481712 C37.5990152,2.63297545 37.7618765,2.5296973 37.955405,2.47497958 C37.8654551,2.40931831 37.7537009,2.37648817 37.620139,2.37648817 C37.2603397,2.37648817 37.0082113,2.56868129 36.8637464,2.95307328 C36.7192815,3.33746526 36.6470502,3.7922995 36.6470502,4.31758962 C36.6470502,4.85655917 36.7485829,5.24026143 36.9516515,5.46870792 C37.1547201,5.6971544 37.4020785,5.81137593 37.693734,5.81137593 C38.0998712,5.81137593 38.4378594,5.62397055 38.707709,5.24915416 L38.8508103,5.30250367 C38.7744892,5.54873342 38.6606907,5.77991232 38.5094114,5.99604732 Z M42.541014,2.13025966 C42.9853117,2.13025966 43.3001314,2.24242931 43.4854826,2.46677196 C43.569981,2.56799975 43.6319909,2.70410803 43.6715143,2.87510091 C43.7110377,3.04609379 43.7307992,3.27248497 43.7307992,3.55428123 L43.7307992,5.83189497 C43.7307992,5.98784048 43.7457906,6.10958558 43.7757738,6.19713394 C43.8057571,6.28468229 43.8541385,6.3462388 43.9209195,6.38180532 C43.9877004,6.41737184 44.0796932,6.43515483 44.1969005,6.43515483 L44.1969005,6.6116186 C43.5972349,6.58973151 43.2074581,6.57878813 43.0275585,6.57878813 C42.83403,6.57878813 42.4374389,6.58973151 41.8377733,6.6116186 L41.8377733,6.43515483 C41.9359004,6.43515483 42.0122204,6.41737184 42.0667354,6.38180532 C42.1212505,6.3462388 42.1607733,6.28468229 42.1853051,6.19713394 C42.2098368,6.10958558 42.2221025,5.98784048 42.2221025,5.83189497 L42.2221025,3.09875848 C42.2221025,2.91819 42.189394,2.78481756 42.1239759,2.69863715 C42.0585579,2.61245673 41.9549808,2.56936718 41.8132417,2.56936718 C41.7096631,2.56936718 41.6115374,2.5953577 41.5188618,2.64733954 C41.4261863,2.69932137 41.3512292,2.7711373 41.2939884,2.86278949 C41.2367476,2.95444167 41.2081276,3.05771982 41.2081276,3.17262703 L41.2081276,5.83189497 C41.2081276,5.98784048 41.2203933,6.10958558 41.2449251,6.19713394 C41.2694568,6.28468229 41.3089797,6.3462388 41.3634947,6.38180532 C41.4180098,6.41737184 41.4943297,6.43515483 41.5924568,6.43515483 L41.5924568,6.6116186 C41.0364032,6.58973151 40.6684321,6.57878813 40.4885325,6.57878813 C40.295004,6.57878813 39.8766072,6.58973151 39.2333296,6.6116186 L39.2333296,6.43515483 C39.350537,6.43515483 39.4432112,6.41737184 39.511355,6.38180532 C39.5794988,6.3462388 39.6285616,6.28468229 39.6585449,6.19713394 C39.6885282,6.10958558 39.7035196,5.98784048 39.7035196,5.83189497 L39.7035196,1.0468542 L39.7035196,0.308168664 L39.2333296,0.308168664 L39.2333296,0.131704896 C39.4077778,0.148120212 39.5808605,0.156327747 39.7525829,0.156327747 C40.3386197,0.156327747 40.8237964,0.116657994 41.2081276,0.0373172991 L41.2081276,2.76224618 C41.4616226,2.34091973 41.9059136,2.13025966 42.541014,2.13025966 Z" id="workbench"></path>
                            <rect id="Rectangle-7" x="38.9816705" y="0.06328765" width="2.04483433" height="0.5"></rect>
                            <rect id="Rectangle-7-Copy-3" x="20.1134501" y="0.06328765" width="2.04483433" height="0.5"></rect>
                            <rect id="Rectangle-7-Copy-4" x="15.2568371" y="0.06328765" width="2.04483433" height="0.5"></rect>
                        </g>
                    </g>
                    <g id="Group-3" transform="translate(44.770156, 0.112061)">
                        <g id="Group-Copy-35" stroke="#0080FB" stroke-width="1.72">
                            <use id="Oval" mask="url(#mask-8)" xlink:href="#path-7"></use>
                        </g>
                        <g id="Group-2" transform="translate(1.183205, 1.351645)" fill="#0080FB">
                            <rect id="Rectangle-7" x="0.0620249773" y="0.0563786827" width="2.04483433" height="0.5"></rect>
                            <polygon id="Rectangle-7-Copy" transform="translate(0.504616, 0.994607) rotate(19.000000) translate(-0.504616, -0.994607) " points="0.294530183 1.91397638 0.294530183 0.0752373174 0.794530183 0.21125152 0.794530183 1.31920312 0.794530183 1.77796218"></polygon>
                            <polygon id="Rectangle-7-Copy-2" transform="translate(1.746344, 0.977987) scale(-1, 1) rotate(19.000000) translate(-1.746344, -0.977987) " points="1.45316094 1.60298962 1.61935507 1.54555165 1.61935507 0.0474759899 2.03952651 0.171382292 2.03142022 1.74486829 1.55796616 1.90849765"></polygon>
                        </g>
                    </g>
                </g>
            </g>
        </g>
    </g>
</svg>