<?xml version="1.0" encoding="UTF-8"?>
<svg width="402px" height="245px" viewBox="0 0 402 245" version="1.1" xmlns="http://www.w3.org/2000/svg" xmlns:xlink="http://www.w3.org/1999/xlink">
    <!-- Generator: Sketch 42 (36781) - http://www.bohemiancoding.com/sketch -->
    <title>indexheader</title>
    <desc>Created with Sketch.</desc>
    <defs>
        <path d="M40.7547445,30.2686131 L13.1540146,30.2686131 C8.79562044,29.5445255 5.50510949,26.2737226 5.50510949,22.3452555 C5.50510949,18.4919708 8.67445255,15.2759124 12.910219,14.4693431 C12.9036496,14.3372263 12.8868613,14.2087591 12.8868613,14.0729927 C12.8868613,7.2270073 18.8489051,1.56934307 26.5875912,0.665693431 C25.5875912,0.491970803 24.5532847,0.394160584 23.4941606,0.388321168 C30.8664234,0.428467153 37.0291971,4.75839416 38.7642336,10.5948905 C39.4124088,10.5007299 40.0751825,10.4394161 40.7547445,10.4394161 C47.1766423,10.4394161 52.3839416,14.8781022 52.3839416,20.3547445 C52.3839416,25.829927 47.1766423,30.2686131 40.7547445,30.2686131 Z M8.66423358,30.2291971 C3.87518248,29.8277372 0.132846715,26.3846715 0.132846715,22.1948905 L0.132846715,22.1941606 C0.133576642,26.3846715 3.87591241,29.8277372 8.66423358,30.2291971 Z M7.51532847,13.9218978 C7.51532847,6.44817518 14.6233577,0.387591241 23.3905109,0.387591241 C23.4072993,0.387591241 23.4233577,0.387591241 23.440146,0.388321168 C23.4233577,0.387591241 23.4072993,0.387591241 23.3905109,0.387591241 C14.6233577,0.387591241 7.51532847,6.44817518 7.51532847,13.9218978 Z M23.4934307,0.388321168 L23.4481752,0.388321168 L23.4934307,0.388321168 Z" id="path-1"></path>
        <path d="M49.6160584,52.6394161 L0.427737226,52.6394161 C14.5072993,33.1284672 31.0525547,15.5277372 49.6160584,0.280291971 L49.6160584,52.6394161 Z" id="path-3"></path>
    </defs>
    <g id="Index" stroke="none" stroke-width="1" fill="none" fill-rule="evenodd">
        <g id="Desktop-HD-Copy" transform="translate(-381.000000, -345.000000)">
            <g id="indexheader" transform="translate(382.000000, 345.000000)">
                <g id="Group-340" transform="translate(286.131387, 81.751825)">
                    <mask id="mask-2" fill="white">
                        <use xlink:href="#path-1"></use>
                    </mask>
                    <g id="Clip-339"></g>
                    <polygon id="Fill-338" fill="#E5E8EA" mask="url(#mask-2)" points="0.132846715 30.2686131 52.3839416 30.2686131 52.3839416 0.387591241 0.132846715 0.387591241"></polygon>
                </g>
                <path d="M299.152555,112.362774 L295.60073,112.362774 C295.283942,112.362774 294.970803,112.349635 294.662774,112.323358 C289.874453,111.921898 286.132117,108.478832 286.131387,104.288321 C286.131387,104.288321 286.131387,104.288321 286.131387,104.287591 C286.131387,100.720438 288.847445,97.6992701 292.612409,96.6321168 C292.913869,96.5467153 293.222628,96.4737226 293.537226,96.4138686 C293.532847,96.2817518 293.513869,96.1518248 293.513869,96.0160584 C293.513869,88.5423358 300.621898,82.4817518 309.389051,82.4817518 C309.405839,82.4817518 309.421898,82.4817518 309.438686,82.4824818 L309.446715,82.4824818 L309.491971,82.4824818 L309.492701,82.4824818 C310.551825,82.4883212 311.586131,82.5861314 312.586131,82.759854 C304.847445,83.6635036 298.885401,89.3211679 298.885401,96.1671533 C298.885401,96.3029197 298.90219,96.4313869 298.908759,96.5635036 C294.672993,97.370073 291.50365,100.586131 291.50365,104.439416 C291.50365,108.367883 294.794161,111.638686 299.152555,112.362774" id="Fill-341" fill="#CCD1D6"></path>
                <path d="M103.333577,130.610219 L78.4518248,130.610219 C74.0934307,129.885401 70.8029197,126.615328 70.8029197,122.686131 C70.8029197,118.832847 73.9715328,115.616788 78.2080292,114.811679 C78.2029197,114.678832 78.1846715,114.550365 78.1846715,114.413869 C78.1846715,107.568613 84.1459854,101.910219 91.8861314,101.008029 C90.8861314,100.832847 89.8532847,100.735766 88.7948905,100.729927 C95.3554745,100.766423 100.955474,104.19854 103.332117,109.065693 L103.333577,130.610219 M72.8131387,114.263504 L72.8131387,114.263504 C72.8131387,106.789051 79.9211679,100.729927 88.6883212,100.729927 L88.7372263,100.729927 L88.6883212,100.729927 C79.9211679,100.729927 72.8131387,106.789051 72.8131387,114.263504 M88.7883212,100.729927 L88.7474453,100.729927 L88.7883212,100.729927" id="Fill-342" fill="#E5E8EA"></path>
                <path d="M77.9832117,130.610219 L74.4328467,130.610219 C69.2021898,130.610219 64.9635036,126.99635 64.9635036,122.535766 C64.9635036,118.681752 68.1313869,115.465693 72.3686131,114.660584 C72.3635036,114.527737 72.3445255,114.39854 72.3445255,114.263504 C72.3445255,106.789051 79.4525547,100.729927 88.219708,100.729927 L88.2686131,100.729927 L88.2788321,100.729927 L88.319708,100.729927 L88.3262774,100.729927 C89.3846715,100.735766 90.4175182,100.832847 91.4175182,101.008029 C83.6773723,101.910219 77.7160584,107.568613 77.7160584,114.413869 C77.7160584,114.550365 77.7343066,114.678832 77.7394161,114.811679 C73.5029197,115.616788 70.3343066,118.832847 70.3343066,122.686131 C70.3343066,126.615328 73.6248175,129.885401 77.9832117,130.610219" id="Fill-343" fill="#CCD1D6"></path>
                <path d="M378.485401,71.5510949 L361.610949,71.5510949 C358.946715,71.1087591 356.934307,69.1094891 356.934307,66.7080292 C356.934307,64.3510949 358.871533,62.3861314 361.461314,61.8941606 C361.459124,61.8131387 361.446715,61.7335766 361.446715,61.650365 C361.446715,57.4656934 365.092701,54.0065693 369.824818,53.4540146 C369.212409,53.3481752 368.581022,53.2883212 367.932117,53.2846715 C372.440146,53.3094891 376.206569,55.9562044 377.266423,59.5248175 C377.664234,59.4671533 378.068613,59.429927 378.485401,59.429927 C382.409489,59.429927 385.594161,62.1423358 385.594161,65.4912409 C385.594161,68.8379562 382.409489,71.5510949 378.485401,71.5510949 M358.163504,61.5583942 L358.163504,61.5583942 C358.163504,56.9883212 362.509489,53.2846715 367.868613,53.2846715 L367.89854,53.2846715 L367.868613,53.2846715 C362.509489,53.2846715 358.163504,56.9883212 358.163504,61.5583942 M367.929927,53.2846715 L367.90292,53.2846715 L367.929927,53.2846715" id="Fill-344" fill="#FAFAFA"></path>
                <path d="M361.243796,71.5510949 L359.072993,71.5510949 C355.876642,71.5510949 353.284672,69.3423358 353.284672,66.6160584 C353.284672,64.2591241 355.221898,62.2941606 357.811679,61.8014599 C357.807299,61.7211679 357.79635,61.6416058 357.79635,61.5583942 C357.79635,56.9883212 362.142336,53.2846715 367.50146,53.2846715 L367.531387,53.2846715 L367.535766,53.2846715 L367.562774,53.2846715 L367.564964,53.2846715 C368.213869,53.2883212 368.845255,53.3481752 369.457664,53.4540146 C364.725547,54.0065693 361.079562,57.4656934 361.079562,61.650365 C361.079562,61.7335766 361.091971,61.8131387 361.094161,61.8941606 C358.50438,62.3861314 356.567153,64.3510949 356.567153,66.7080292 C356.567153,69.1094891 358.579562,71.1087591 361.243796,71.5510949" id="Fill-345" fill="#FAFAFA"></path>
                <path d="M277.637956,26.9080292 L268.664964,26.9080292 L268.664964,25.9459854 C268.664964,21.9357664 265.412409,18.6963504 261.406569,18.6963504 L245.985401,18.6963504 C246.50438,15.7160584 249.147445,13.3291971 252.559854,12.6817518 C252.555474,12.5620438 252.540876,12.4452555 252.540876,12.3233577 C252.540876,6.15839416 257.908029,1.06350365 264.879562,0.249635036 C263.979562,0.0927007299 263.049635,0.00583941606 262.09562,0 C268.733577,0.0379562044 274.281752,3.93649635 275.843796,9.19124088 C276.427737,9.10656934 277.024088,9.05182482 277.637956,9.05182482 C283.420438,9.05182482 288.109489,13.0481752 288.109489,17.979562 C288.109489,22.9116788 283.420438,26.9080292 277.637956,26.9080292 M247.70365,12.1890511 L247.70365,12.1890511 C247.70365,5.45693431 254.10365,0 261.99927,0 L262.042336,0 L261.99927,0 C254.10365,0 247.70365,5.45693431 247.70365,12.1890511 M262.089051,0 L262.053285,0 L262.089051,0" id="Fill-346" fill="#FAFAFA"></path>
                <path d="M246.464964,18.6963504 L241.605839,18.6963504 C242.028467,15.9080292 244.307299,13.619708 247.350365,12.7489051 C247.629197,12.6693431 247.913869,12.6014599 248.20438,12.5459854 C248.19781,12.4262774 248.183212,12.310219 248.183212,12.1890511 C248.183212,5.45693431 254.583212,0 262.478832,0 L262.521898,0 L262.532847,0 L262.568613,0 L262.575182,0 C263.529197,0.00583941606 264.459124,0.0927007299 265.359124,0.249635036 C258.387591,1.06350365 253.020438,6.15839416 253.020438,12.3233577 C253.020438,12.4452555 253.035036,12.5620438 253.039416,12.6817518 C249.627007,13.3291971 246.983942,15.7160584 246.464964,18.6963504" id="Fill-347" fill="#FAFAFA"></path>
                <path d="M50.8934307,71.8255474 L20.2788321,71.8255474 C15.4452555,71.0240876 11.7956204,67.3963504 11.7956204,63.0386861 C11.7956204,58.7642336 15.310219,55.1970803 20.0094891,54.3036496 C20.0029197,54.1569343 19.9832117,54.0145985 19.9832117,53.8627737 C19.9832117,46.2715328 26.5956204,39.9948905 35.180292,38.9941606 C34.0883212,38.8029197 32.9605839,38.6963504 31.8043796,38.6868613 C39.9583942,38.7532847 46.7656934,43.5474453 48.6854015,50.0051095 C49.4051095,49.9 50.1386861,49.8343066 50.8934307,49.8343066 C58.0160584,49.8343066 63.7905109,54.7569343 63.7905109,60.829927 C63.7905109,66.9029197 58.0160584,71.8255474 50.8934307,71.8255474 M14.8722628,71.7386861 C9.76715328,71.129927 5.83941606,67.3934307 5.83941606,62.8722628 L5.83941606,62.8715328 C5.83941606,67.3934307 9.76715328,71.129927 14.8722628,71.7386861 M14.0255474,53.6970803 L14.0255474,53.6970803 C14.0255474,45.4065693 21.9087591,38.6861314 31.6328467,38.6861314 L31.6868613,38.6861314 L31.6328467,38.6861314 C21.9087591,38.6861314 14.0255474,45.4065693 14.0255474,53.6970803 M31.8029197,38.6868613 L31.7525547,38.6868613 L31.8029197,38.6868613 M31.7430657,38.6868613 C31.7284672,38.6868613 31.7138686,38.6861314 31.6985401,38.6861314 C31.7131387,38.6861314 31.7284672,38.6868613 31.7430657,38.6868613" id="Fill-348" fill="#E5E8EA"></path>
                <path d="M20.2788321,71.8255474 L16.3416058,71.8255474 C15.8430657,71.8255474 15.3525547,71.7963504 14.8722628,71.7386861 C9.76715328,71.129927 5.83941606,67.3934307 5.83941606,62.8715328 C5.83941606,62.8715328 5.83941606,62.8715328 5.83941606,62.8708029 C5.83941606,59.0145985 8.7,55.7335766 12.7116788,54.4729927 C13.1452555,54.3364964 13.5927007,54.2240876 14.0518248,54.1364964 C14.0459854,53.9890511 14.0255474,53.8467153 14.0255474,53.6970803 C14.0255474,45.4065693 21.9087591,38.6861314 31.6328467,38.6861314 L31.6868613,38.6861314 L31.6985401,38.6861314 C31.7138686,38.6861314 31.7284672,38.6868613 31.7430657,38.6868613 L31.7525547,38.6868613 L31.8029197,38.6868613 L31.8043796,38.6868613 C32.9605839,38.6963504 34.0883212,38.8029197 35.180292,38.9941606 C26.5956204,39.9948905 19.9832117,46.2715328 19.9832117,53.8627737 C19.9832117,54.0145985 20.0029197,54.1569343 20.0094891,54.3036496 C15.310219,55.1970803 11.7956204,58.7642336 11.7956204,63.0386861 C11.7956204,67.3963504 15.4452555,71.0240876 20.2788321,71.8255474" id="Fill-349" fill="#CCD1D6"></path>
                <path d="M245.163504,211.792701 C245.163504,205.060584 239.69781,199.59927 232.970073,199.59927 L232.970073,160.521168 C239.69781,160.521168 245.163504,155.065693 245.163504,148.331387 L373.148175,148.331387 C373.148175,155.065693 378.609489,160.521168 385.341606,160.524818 L385.341606,199.59927 C378.609489,199.59927 373.148175,205.060584 373.148175,211.792701 L245.163504,211.792701 L245.163504,211.792701 Z M218.978102,225.815328 L399.331387,225.815328 L399.331387,134.306569 L218.978102,134.306569 L218.978102,225.815328 Z" id="Fill-353" stroke="#0080FB" stroke-width="3"></path>
                <path d="M385.218248,200.172993 L385.218248,161.09854 C378.486131,161.094891 373.024818,155.639416 373.024818,148.905109 L245.040146,148.905109 C245.040146,155.639416 239.574453,161.094891 232.846715,161.094891 L232.846715,200.172993 C239.574453,200.172993 245.040146,205.634307 245.040146,212.366423 L373.024818,212.366423 C373.024818,205.634307 378.486131,200.172993 385.218248,200.172993" id="Fill-354" fill="#0080FB"></path>
                <path d="M331.221168,180.210949 C331.221168,192.659124 321.129927,202.755474 308.677372,202.755474 C296.227007,202.755474 286.131387,192.659124 286.131387,180.210949 C286.131387,167.759124 296.227007,157.664234 308.677372,157.664234 C321.129927,157.664234 331.221168,167.759124 331.221168,180.210949" id="Fill-356" fill="#92CD79"></path>
                <polygon id="Fill-357" fill="#0059AF" points="280.291971 225.815328 336.905109 225.815328 336.905109 134.306569 280.291971 134.306569"></polygon>
                <path d="M158.621168,239.383942 C158.621168,241.510219 156.90219,243.224818 154.780292,243.224818 L3.84671533,243.224818 C1.72335766,243.224818 0,241.510219 0,239.383942 L0,153.478102 C0,151.356934 1.72335766,149.635036 3.84671533,149.635036 L154.780292,149.635036 C156.90219,149.635036 158.621168,151.356934 158.621168,153.478102 L158.621168,239.383942" id="Fill-359" stroke="#0080FB" stroke-width="2"></path>
                <path d="M51.429927,184.453285 L14.7919708,184.453285 C12.6708029,184.453285 10.9489051,182.732117 10.9489051,180.615328 L10.9489051,165.885401 C10.9489051,163.764964 12.6708029,162.043796 14.7919708,162.043796 L51.429927,162.043796 C53.5518248,162.043796 55.2708029,163.764964 55.2708029,165.885401 L55.2708029,180.615328 C55.2708029,182.732117 53.5518248,184.453285 51.429927,184.453285 Z" id="Fill-360" fill="#0080FB"></path>
                <path d="M44.720438,180.615328 L44.720438,165.885401 C44.720438,163.764964 43.0014599,162.043796 40.8759124,162.043796 L51.5510949,162.043796 C53.6729927,162.043796 55.3919708,163.764964 55.3919708,165.885401 L55.3919708,180.615328 C55.3919708,182.732117 53.6729927,184.453285 51.5510949,184.453285 L40.8759124,184.453285 C43.0014599,184.453285 44.720438,182.732117 44.720438,180.615328" id="Fill-361" fill="#0059AF"></path>
                <path d="M116.788321,175.456934 C116.788321,182.864964 122.794161,188.870803 130.20146,188.870803 C137.608759,188.870803 143.615328,182.864964 143.615328,175.456934 C143.615328,168.049635 137.608759,162.043796 130.20146,162.043796 C122.794161,162.043796 116.788321,168.049635 116.788321,175.456934" id="Fill-366" fill="#FAD760"></path>
                <path d="M139.854015,175.456934 C139.854015,168.742336 134.912409,163.188321 128.467153,162.211679 C129.130657,162.108759 129.80219,162.043796 130.494891,162.043796 C137.90219,162.043796 143.908759,168.049635 143.908759,175.456934 C143.908759,182.864964 137.90219,188.870803 130.494891,188.870803 C129.80219,188.870803 129.130657,188.80292 128.467153,188.70073 C134.912409,187.721168 139.854015,182.173723 139.854015,175.456934" id="Fill-367" fill="#F9CA5D"></path>
                <polyline id="Fill-368" fill="#0080FB" points="102.919708 65.6934307 102.932847 243.713139 268.873723 243.713139 268.873723 65.6934307 102.919708 65.6934307"></polyline>
                <polygon id="Fill-369" fill="#FFFFFF" points="112.408759 226.825547 259.818248 226.825547 259.818248 66.4233577 112.408759 66.4233577"></polygon>
                <g id="Group-372" transform="translate(147.445255, 102.189781)">
                    <mask id="mask-4" fill="white">
                        <use xlink:href="#path-3"></use>
                    </mask>
                    <g id="Clip-371"></g>
                    <polygon id="Fill-370" fill="#E5F2FE" mask="url(#mask-4)" points="0.427737226 52.6394161 49.6160584 52.6394161 49.6160584 0.280291971 0.427737226 0.280291971"></polygon>
                </g>
                <polygon id="Fill-373" fill="#E6E7E8" points="119.708029 156.732847 147.089781 156.732847 147.089781 154.744526 119.708029 154.744526"></polygon>
                <polygon id="Fill-375" fill="#E6E7E8" points="208.759124 176.441606 251.557664 176.441606 251.557664 174.452555 208.759124 174.452555"></polygon>
                <polygon id="Fill-376" fill="#E5E8EA" points="152.554745 164.762044 251.038686 164.762044 251.038686 162.773723 152.554745 162.773723"></polygon>
                <polygon id="Fill-377" fill="#E5E8EA" points="119.708029 176.441606 202.313869 176.441606 202.313869 174.452555 119.708029 174.452555"></polygon>
                <polygon id="Fill-377" fill="#E5E8EA" points="33 204.744526 115.605839 204.744526 115.605839 202.755474 33 202.755474"></polygon>
                <polygon id="Fill-377-Copy" fill="#E5E8EA" points="33 218.744526 65.5306569 218.744526 65.5306569 216.756204 33 216.756204"></polygon>
                <polygon id="Fill-378" fill="#E5E8EA" points="119.708029 186.659124 251.556934 186.659124 251.556934 184.671533 119.708029 184.671533"></polygon>
                <path d="M251.254745,88.3211679 L215.328467,88.3211679 C219.344526,85.5408759 223.440146,82.8627737 227.605839,80.2919708 L251.254745,80.2919708 L251.254745,88.3211679" id="Fill-380" fill="#E5F2FE"></path>
                <polygon id="Fill-381" fill="#E5E8EA" points="202.189781 94.2094891 241.759124 94.2094891 241.759124 91.9708029 202.189781 91.9708029"></polygon>
                <polygon id="Fill-382" fill="#E5E8EA" points="202.189781 100.30146 226.809489 100.30146 226.809489 97.810219 202.189781 97.810219"></polygon>
                <polygon id="Fill-383" fill="#E5E8EA" points="202.189781 135.084672 230.812409 135.084672 230.812409 132.846715 202.189781 132.846715"></polygon>
                <polygon id="Fill-384" fill="#E5E8EA" points="202.189781 140.447445 250.520438 140.447445 250.520438 137.956204 202.189781 137.956204"></polygon>
                <polygon id="Fill-385" fill="#E5E8EA" points="202.189781 147.746715 238.840146 147.746715 238.840146 145.255474 202.189781 145.255474"></polygon>
                <polygon id="Fill-386" fill="#E5E8EA" points="202.189781 154.316058 218.584672 154.316058 218.584672 151.824818 202.189781 151.824818"></polygon>
                <polygon id="Fill-387" fill="#E5E8EA" points="202.189781 128.468613 251.432847 128.468613 251.432847 107.29927 202.189781 107.29927"></polygon>
                <path d="M268.873723,48.7999697 C268.873723,46.1686336 265.621168,44.0430657 261.615328,44.0430657 L110.179562,44.0430657 C106.176642,44.0430657 102.932847,46.1686336 102.919708,48.7999697 L102.919708,74.7 L268.873723,74.7 L268.873723,48.7999697" id="Fill-389" fill="#0080FB"></path>
                <path d="M218.765693,58.6513561 C218.765693,60.8557345 216.780292,62.6649635 214.330657,62.6649635 L155.528467,62.6649635 C153.084672,62.6649635 151.094891,60.8557345 151.094891,58.6513561 C151.094891,56.4331013 153.084672,54.6357664 155.528467,54.6357664 L214.330657,54.6357664 C216.780292,54.6357664 218.765693,56.4331013 218.765693,58.6513561" id="Fill-390" fill="#3299FB" transform="translate(184.930292, 58.650365) scale(1, -1) translate(-184.930292, -58.650365) "></path>
                <path d="M105.331387,243.713139 L102.932847,243.713139 L102.919708,65.6934307 L254.855474,65.6934307 C249.10438,68.410219 243.460584,71.3182482 237.934307,74.4087591 L112.140146,74.4087591 L112.140146,222.261314 C109.591971,229.283212 107.317518,236.439416 105.331387,243.713139" id="Fill-391" fill="#0080FB"></path>
                <path d="M112.408759,222.305109 L112.408759,74.4525547 L238.20292,74.4525547 C234.739416,76.389781 231.327737,78.3956204 227.957664,80.4744526 L202.363504,80.4744526 L202.363504,88.5036496 L215.680292,88.5036496 C213.80219,89.8036496 211.943066,91.1248175 210.09927,92.4693431 L202.364964,92.4693431 L202.364964,94.7080292 L207.072263,94.7080292 C205.60438,95.8094891 204.145255,96.9270073 202.7,98.0562044 L202.364964,98.0562044 L202.364964,98.3182482 C200.7,99.6233577 199.043796,100.952555 197.410219,102.294891 L197.410219,80.4744526 L119.125547,80.4744526 L119.125547,154.654015 L148.221898,154.654015 C146.217518,157.429927 144.260584,160.250365 142.358394,163.10292 L119.757664,163.10292 L119.757664,165.091241 L141.043796,165.091241 C138.944526,168.29854 136.910949,171.549635 134.942336,174.846715 L119.757664,174.846715 L119.757664,176.835766 L133.765693,176.835766 C132.151825,179.591971 130.586861,182.370803 129.065693,185.186861 L119.757664,185.186861 L119.757664,187.174453 L128.00219,187.174453 C126.285401,190.413869 124.634307,193.686131 123.043066,197.00073 L119.125547,197.00073 L119.125547,198.989051 L122.09854,198.989051 C118.529927,206.578102 115.293431,214.358394 112.408759,222.305109" id="Fill-392" fill="#FFFFFF"></path>
                <path d="M148.964964,154.471533 L119.868613,154.471533 L119.868613,80.2919708 L198.153285,80.2919708 L198.153285,102.112409 C179.589781,117.359854 163.044526,134.960584 148.964964,154.471533" id="Fill-393" fill="#CCE5FE"></path>
                <path d="M140.994161,164.762044 L119.708029,164.762044 L119.708029,162.773723 L142.308759,162.773723 C141.868613,163.432847 141.428467,164.09854 140.994161,164.762044" id="Fill-394" fill="#E5E8EA"></path>
                <path d="M133.716058,184.470803 L119.708029,184.470803 L119.708029,182.481752 L134.892701,182.481752 C134.49781,183.143066 134.105839,183.805839 133.716058,184.470803" id="Fill-395" fill="#E7E8E9"></path>
                <path d="M127.952555,194.688321 L119.708029,194.688321 L119.708029,192.70073 L129.016058,192.70073 C128.660584,193.358394 128.30292,194.027007 127.952555,194.688321" id="Fill-396" fill="#E7E8E9"></path>
                <path d="M215.506569,88.3211679 L202.189781,88.3211679 L202.189781,80.2919708 L227.783942,80.2919708 C223.618248,82.8627737 219.522628,85.5408759 215.506569,88.3211679" id="Fill-398" fill="#CCE5FE"></path>
                <path d="M206.89708,94.2094891 L202.189781,94.2094891 L202.189781,91.9708029 L209.924088,91.9708029 C208.911679,92.7087591 207.89854,93.4583942 206.89708,94.2094891" id="Fill-399" fill="#E7E8E9"></path>
                <path d="M202.189781,98.0722628 L202.189781,97.810219 L202.524818,97.810219 C202.410219,97.9 202.30438,97.9824818 202.189781,98.0722628" id="Fill-400" fill="#E7E8E9"></path>
                <path d="M177.372263,239.769343 C177.372263,241.642336 178.891971,243.158394 180.764234,243.158394 L313.932117,243.158394 C315.80292,243.158394 317.318978,241.642336 317.318978,239.769343 L317.318978,163.971533 C317.318978,162.1 315.80292,160.583942 313.932117,160.583942 L180.764234,160.583942 C178.891971,160.583942 177.372263,162.1 177.372263,163.971533 L177.372263,239.769343" id="Fill-401" stroke="#0080FB" stroke-width="3" fill="#FFFFFF"></path>
                <polygon id="Fill-402" fill="#0080FB" points="177.372263 195.443796 317.318978 195.443796 317.318978 172.992701 177.372263 172.992701"></polygon>
            </g>
        </g>
    </g>
</svg>