<?xml version="1.0" encoding="UTF-8"?>
<svg width="73px" height="50px" viewBox="0 0 73 50" version="1.1" xmlns="http://www.w3.org/2000/svg" xmlns:xlink="http://www.w3.org/1999/xlink">
    <!-- Generator: Sketch 42 (36781) - http://www.bohemiancoding.com/sketch -->
    <title>puzzle</title>
    <desc>Created with Sketch.</desc>
    <defs></defs>
    <g id="Index" stroke="none" stroke-width="1" fill="none" fill-rule="evenodd">
        <g id="indexImage-Copy" transform="translate(-3030.000000, -776.000000)" fill="#0080FB">
            <g id="puzzle" transform="translate(3030.671827, 776.000000)">
                <path d="M68.6785978,10.4280443 L62.2584871,10.4280443 C59.645941,10.4280443 59.0405904,8.25793358 60.3983395,6.69409594 C62.6420664,4.15498155 61.44631,0.346678967 57.4167897,0.125461255 C53.3872694,0.273247232 52.1916974,4.15498155 54.4352399,6.6197417 C55.7785978,8.11088561 55.1883764,10.354428 52.5758303,10.354428 L46.3027675,10.354428 C44.4426199,10.354428 42.8634686,11.8450185 42.8634686,13.7929889 L42.8634686,21.9261993 L31.1440959,21.9261993 L31.1440959,18.7083026 C31.1440959,18.4134686 30.7750923,18.2656827 30.4651292,18.4870849 L22.9221402,24.6865314 C22.7009225,24.9077491 22.7009225,25.2767528 22.9221402,25.5132841 L30.4651292,31.7119926 C30.7599631,31.9332103 31.1440959,31.7119926 31.1440959,31.4173432 L31.1440959,28.199262 L42.8339483,28.199262 L42.8339483,36.4060886 C42.8339483,38.2654982 44.3243542,39.845203 46.2732472,39.845203 L52.54631,39.845203 C55.1588561,39.845203 55.7634686,42.0145756 54.4057196,43.5057196 C52.1621771,46.0440959 53.3577491,49.8523985 57.3872694,50 C61.4167897,49.8523985 62.6123616,45.9704797 60.3688192,43.5057196 C59.0261993,42.0145756 59.6164207,39.845203 62.2289668,39.845203 L68.5756458,39.845203 C70.5236162,39.845203 72.0883764,38.2806273 72.0883764,36.3317343 L72.0883764,29.8964945 C72.0147601,27.3583026 69.8448339,26.7671587 68.3542435,28.1107011 C65.8153137,30.3542435 61.9335793,29.1584871 61.7857934,25.1291513 C61.9335793,21.099631 65.8153137,19.9038745 68.3542435,22.147417 C69.8448339,23.4909594 72.0147601,22.9005535 72.0883764,20.3616236 L72.0883764,13.8671587 C72.1035055,11.9926199 70.6123616,10.4280443 68.6785978,10.4280443 Z" id="Fill-1"></path>
                <path d="M36.1184502,10.4870849 L29.6976015,10.4870849 C27.0850554,10.4870849 26.4797048,8.24354244 27.8374539,6.75313653 C30.0809963,4.21402214 28.8854244,0.332287823 24.8559041,0.184501845 C20.8263838,0.332287823 19.6306273,4.14059041 21.8743542,6.67896679 C23.2177122,8.1701107 22.6274908,10.4136531 20.0147601,10.4136531 L13.7416974,10.4136531 C11.7937269,10.4136531 10.302583,11.9774908 10.302583,13.8520295 L10.302583,20.2728782 C10.302583,22.8854244 8.05904059,23.4909594 6.56863469,22.1330258 C4.0295203,19.8894834 0.147785978,21.0852399 -2.27373675e-13,25.1145756 C0.147785978,29.1440959 4.0295203,30.3398524 6.49428044,28.09631 C7.98542435,26.7527675 10.2289668,27.3431734 10.2289668,29.9557196 L10.2289668,36.302214 C10.2289668,38.251107 11.7937269,39.7415129 13.6675277,39.7415129 L19.9405904,39.7415129 C22.5531365,39.7415129 23.1586716,41.9114391 21.800738,43.4020295 C19.5571956,45.8675277 20.7527675,49.749262 24.7822878,49.897048 C28.8118081,49.749262 30.0075646,45.9409594 27.7638376,43.4020295 C26.4204797,41.9114391 27.0107011,39.7415129 29.6234317,39.7415129 L35.9706642,39.7415129 C37.9188192,39.7415129 39.4833948,38.1767528 39.4833948,36.2287823 L39.4833948,31.402214 L34.4059041,31.402214 C34.3317343,33.4243542 32.6791513,35.0625461 30.6712177,35.0625461 C29.7710332,35.0625461 28.9595941,34.7678967 28.2806273,34.2359779 L20.7376384,28.0370849 C19.8376384,27.2839483 19.3208487,26.2512915 19.3208487,25.0555351 C19.3208487,23.8599631 19.8376384,22.8119926 20.7376384,22.0739852 L28.3542435,15.8743542 C29.0330258,15.3577491 29.8453875,15.047786 30.745572,15.047786 C32.7678967,15.047786 34.4059041,16.6867159 34.4795203,18.7083026 L39.5568266,18.7083026 L39.5568266,13.9263838 C39.5568266,11.9774908 37.9929889,10.4870849 36.1184502,10.4870849 Z" id="Fill-2"></path>
            </g>
        </g>
    </g>
</svg>