<?xml version="1.0" encoding="UTF-8"?>
<svg width="402px" height="245px" viewBox="0 0 402 245" version="1.1" xmlns="http://www.w3.org/2000/svg" xmlns:xlink="http://www.w3.org/1999/xlink">
    <!-- Generator: Sketch 42 (36781) - http://www.bohemiancoding.com/sketch -->
    <title>startupIcon</title>
    <desc>Created with Sketch.</desc>
    <defs></defs>
    <g id="Index" stroke="none" stroke-width="1" fill="none" fill-rule="evenodd">
        <g id="indexImage-Copy" transform="translate(-2847.000000, -1396.000000)">
            <g id="startupIcon" transform="translate(2847.000000, 1396.000000)">
                <rect id="Rectangle" fill="#FFFFFF" x="0" y="0" width="402" height="245"></rect>
                <g id="Group-3" transform="translate(141.000000, 48.000000)">
                    <g id="009-startup" transform="translate(0.000000, 8.144796)">
                        <path d="M59.9415331,26.5978507 C91.8201609,26.5978507 117.663009,51.902935 117.663009,83.1182834 C117.663009,114.333632 91.8201609,139.638716 59.9415331,139.638716 C28.0629052,139.638716 2.22005678,114.333632 2.22005678,83.1182834 C2.22005678,51.902935 28.0629052,26.5978507 59.9415331,26.5978507" id="Fill-1" fill="#E5E8EA"></path>
                        <path d="M90.7603613,84.9003394 C88.0430118,83.6724053 84.0935308,82.2294719 79.9220441,81.7994733 L79.9220441,68.0616834 C85.9250776,70.983014 89.7635558,77.7078372 90.7603613,84.9003394" id="Fill-2" fill="#FFFFFF"></path>
                        <path d="M29.1227048,84.9003394 C30.1195103,77.7078372 33.9579885,70.9852305 39.961022,68.0594669 L39.961022,81.7928238 C35.7895353,82.2250389 31.8378343,83.6701888 29.1227048,84.9003394" id="Fill-3" fill="#FFFFFF"></path>
                        <path d="M44.4011356,84.2265271 L44.4011356,46.5462387 C44.4011356,41.7586256 45.0249715,37.323434 46.0084567,33.2473133 L73.8790495,33.2473133 C74.8603146,37.3212175 75.4819305,41.7541926 75.4819305,46.5462387 L75.4819305,84.2265271 L44.4011356,84.2265271" id="Fill-4" fill="#FFFFFF"></path>
                        <polygon id="Fill-5" fill="#FFFFFF" points="51.0613059 93.0924774 68.8217602 93.0924774 68.8217602 88.6595023 51.0613059 88.6595023"></polygon>
                        <path d="M77.7019873,86.4430147 L77.7019873,46.5462387 C77.7019873,19.948388 59.9415331,2.21648756 59.9415331,2.21648756 L59.9415331,86.4430147 L77.7019873,86.4430147" id="Fill-6" fill="#CCD1D6"></path>
                        <g id="Group-12">
                            <path d="M59.9415331,39.896776 C63.6198896,39.896776 66.6017034,42.8737959 66.6017034,46.5462387 C66.6017034,50.2186815 63.6198896,53.1957014 59.9415331,53.1957014 C56.2631765,53.1957014 53.2813627,50.2186815 53.2813627,46.5462387 C53.2813627,42.8737959 56.2631765,39.896776 59.9415331,39.896776" id="Fill-7" fill="#CCE5FE"></path>
                            <path d="M109.670805,111.666643 C107.295344,115.634156 104.38707,119.357855 100.968182,122.771246 C98.3263148,125.408866 95.4846421,127.736178 92.4875654,129.753182 C72.9732663,142.985612 47.1318054,142.941283 27.6619075,129.620192 C24.7314325,127.647518 21.9563616,125.364536 19.3588951,122.771246 C15.8290048,119.247031 12.8319282,115.368177 10.4120663,111.267675 C12.6543236,107.056349 17.0944372,104.174915 22.2005678,104.174915 C28.2835234,104.174915 33.4118545,108.275417 35.0102954,113.860966 C36.9639454,110.713553 40.427234,108.60789 44.4011356,108.60789 C49.773673,108.60789 54.2581877,112.420249 55.2794138,117.47384 L55.5014195,117.47384 L55.5014195,95.3089649 L64.3816466,95.3089649 L64.3816466,117.47384 L64.6036523,117.47384 C65.6248784,112.420249 70.1093931,108.60789 75.4819305,108.60789 C79.4558321,108.60789 82.9191207,110.713553 84.8727707,113.860966 C86.449011,108.275417 91.5773422,104.174915 97.6824983,104.174915 C102.944033,104.174915 107.495149,107.233668 109.670805,111.666643" id="Fill-9" fill="#FFFFFF"></path>
                            <polygon id="Fill-10" fill="#D9DAD6" points="59.9415331 93.0924774 68.8217602 93.0924774 68.8217602 88.6595023 59.9415331 88.6595023"></polygon>
                            <path d="M99.1876968,121.193107 C77.5465833,142.797211 42.3364828,142.797211 20.6975894,121.193107 C17.7071729,118.207498 15.1141466,114.931529 12.9140703,111.442778 C14.9631827,108.310881 18.4242512,106.391403 22.2005678,106.391403 C27.1246537,106.391403 31.513706,109.713918 32.8768209,114.4705 L34.2554761,119.289144 L36.8973437,115.029055 C38.5313055,112.395868 41.3374572,110.824378 44.4011356,110.824378 C48.6125833,110.824378 52.2734569,113.805554 53.1015381,117.910489 L53.4634074,119.690328 L57.7214763,119.690328 L57.7214763,97.5254525 L62.1615898,97.5254525 L62.1615898,119.690328 L66.4196587,119.690328 L66.7793079,117.910489 C67.6096092,113.805554 71.2704828,110.824378 75.4819305,110.824378 C78.5456089,110.824378 81.3517606,112.395868 82.9857224,115.026838 L85.6431304,119.309092 L87.0106854,114.461634 C88.3493796,109.709485 92.7384319,106.391403 97.6824983,106.391403 C101.485456,106.391403 104.928764,108.295366 106.975656,111.433912 C104.77558,114.92488 102.180333,118.203065 99.1876968,121.193107 Z M51.0613059,93.0924774 L68.8217602,93.0924774 L68.8217602,88.6595023 L51.0613059,88.6595023 L51.0613059,93.0924774 Z M44.4011356,84.2265271 L44.4011356,46.5462387 C44.4011356,41.7586256 45.0249715,37.323434 46.0084567,33.2473133 L73.8790495,33.2473133 C74.8603146,37.3212175 75.4819305,41.7541926 75.4819305,46.5462387 L75.4819305,84.2265271 L44.4011356,84.2265271 Z M29.1227048,84.9003394 C30.1195103,77.7078372 33.9579885,70.9852305 39.961022,68.0594669 L39.961022,81.7928238 C35.7895353,82.2250389 31.8378343,83.6701888 29.1227048,84.9003394 Z M59.9437531,6.45441176 C62.832047,9.85893665 69.0082449,17.634375 72.6446979,28.8143382 L47.2494684,28.8143382 C50.8881415,17.6521069 57.0598994,9.86558611 59.9437531,6.45441176 Z M90.7603613,84.9003394 C88.0430118,83.6724053 84.0935308,82.2294719 79.9220441,81.7994733 L79.9220441,68.0616834 C85.9250776,70.983014 89.7635558,77.7078372 90.7603613,84.9003394 Z M99.9025551,38.9791502 L96.7633948,42.1132636 L98.3329749,43.6803203 C109.526501,54.858067 115.442953,68.1104461 115.442953,82.0100396 C115.442953,90.9380515 113.329458,99.5335902 109.362217,107.253616 C106.451723,103.926669 102.255815,101.958428 97.6824983,101.958428 C92.0746349,101.958428 86.9751645,105.008314 84.2444946,109.702835 C81.8557135,107.588306 78.7676145,106.391403 75.4819305,106.391403 C72.1141044,106.391403 68.9816043,107.663667 66.6017034,109.784845 L66.6017034,97.5254525 L73.2618737,97.5254525 L73.2618737,88.6595023 L79.9220441,88.6595023 L79.9220441,86.2701287 C86.1204426,87.0481158 92.0058131,90.5036199 92.0946154,90.5590321 L95.4624415,92.5804687 L95.4624415,88.6595023 C95.4624415,77.8408265 89.7613357,66.7406568 79.9220441,63.227524 L79.9220441,46.5462387 C79.9220441,19.3432869 62.2637124,2.3162295 61.5111132,1.5670567 L59.9415331,0 L58.3719529,1.5670567 C57.6193537,2.3162295 39.961022,19.3432869 39.961022,46.5462387 L39.961022,63.227524 C30.1217304,66.7406568 24.4206246,77.8408265 24.4206246,88.6595023 L24.4228446,92.5804687 L27.7884507,90.5590321 C27.879473,90.5036199 33.7648436,87.0436828 39.961022,86.2679122 L39.961022,88.6595023 L46.6211924,88.6595023 L46.6211924,97.5254525 L53.2813627,97.5254525 L53.2813627,109.784845 C50.9014618,107.663667 47.7689617,106.391403 44.4011356,106.391403 C41.1110114,106.391403 38.0206924,107.590522 35.6319113,109.709485 C32.8879211,105.010531 27.7906708,101.958428 22.2005678,101.958428 C17.6605517,101.958428 13.449104,103.946617 10.5297293,107.271348 C6.55582767,99.5468891 4.44011356,90.9424844 4.44011356,82.0078231 C4.44011356,68.1104461 10.3565649,54.858067 21.5500912,43.6803203 L23.1196713,42.1132636 L19.980511,38.9791502 L18.4109309,40.5462069 C6.36712284,52.5728684 0,66.9113264 0,82.0078231 C0,97.9953479 6.23613949,113.023133 17.556209,124.32722 C29.2425879,135.992594 44.5920605,141.855204 59.9415331,141.855204 C75.2910056,141.855204 90.6404782,135.992594 102.326857,124.32722 C113.646927,113.023133 119.883066,97.9953479 119.883066,82.0100396 C119.883066,66.9113264 113.515943,52.5728684 101.472135,40.5462069 L99.9025551,38.9791502 Z" id="Fill-11" fill="#0073E1"></path>
                        </g>
                        <path d="M59.9415331,50.9792138 C57.4928104,50.9792138 55.5014195,48.9910245 55.5014195,46.5462387 C55.5014195,44.1014529 57.4928104,42.1132636 59.9415331,42.1132636 C62.3902557,42.1132636 64.3816466,44.1014529 64.3816466,46.5462387 C64.3816466,48.9910245 62.3902557,50.9792138 59.9415331,50.9792138 Z M59.9415331,37.6802885 C55.0440878,37.6802885 51.0613059,41.6566671 51.0613059,46.5462387 C51.0613059,51.4358102 55.0440878,55.4121889 59.9415331,55.4121889 C64.8389783,55.4121889 68.8217602,51.4358102 68.8217602,46.5462387 C68.8217602,41.6566671 64.8389783,37.6802885 59.9415331,37.6802885 L59.9415331,37.6802885 Z" id="Fill-13" fill="#0073E1"></path>
                        <path d="M59.9437531,6.45441176 C62.832047,9.85893665 69.0082449,17.634375 72.6446979,28.8143382 L47.2494684,28.8143382 C50.8881415,17.6521069 57.0598994,9.86558611 59.9437531,6.45441176" id="Fill-20" fill="#CCE5FE"></path>
                    </g>
                    <path d="M20.8076143,42.9558433 L20.8076143,42.9558433 C20.8076143,38.5945155 17.2656811,35.0515291 12.8959276,35.0515291 C17.2656811,35.0515291 20.8076143,31.5106491 20.8076143,27.1493213 C20.8076143,31.5106491 24.3421751,35.0515291 28.7045561,35.0515291 C24.3421751,35.0515291 20.8076143,38.5945155 20.8076143,42.9558433" id="Fill-345" fill="#0080FB"></path>
                    <path d="M33.2504291,47.4973865 L33.2504291,47.4973865 C33.2504291,44.8780621 31.1345374,42.7516383 28.5067873,42.7516383 C31.1345374,42.7516383 33.2504291,40.627321 33.2504291,38.0090498 C33.2504291,40.627321 35.3757997,42.7516383 37.9940708,42.7516383 C35.3757997,42.7516383 33.2504291,44.8780621 33.2504291,47.4973865" id="Fill-346-Copy" fill="#3299FB"></path>
                    <path d="M92.7533156,15.8065221 L92.7533156,15.8065221 C92.7533156,11.4451943 89.2113824,7.90220783 84.841629,7.90220783 C89.2113824,7.90220783 92.7533156,4.36132782 92.7533156,0 C92.7533156,4.36132782 96.2878764,7.90220783 100.650257,7.90220783 C96.2878764,7.90220783 92.7533156,11.4451943 92.7533156,15.8065221" id="Fill-345-Copy" fill="#0080FB"></path>
                    <path d="M43.4314246,12.8820019 L43.4314246,12.8820019 C43.4314246,10.2626775 41.3155328,8.13625371 38.6877828,8.13625371 C41.3155328,8.13625371 43.4314246,6.01193634 43.4314246,3.39366516 C43.4314246,6.01193634 45.5567951,8.13625371 48.1750663,8.13625371 C45.5567951,8.13625371 43.4314246,10.2626775 43.4314246,12.8820019" id="Fill-346-Copy-2" fill="#3299FB"></path>
                    <path d="M95.693868,35.2801919 L95.693868,35.2801919 C95.693868,32.6608675 93.5779763,30.5344438 90.9502262,30.5344438 C93.5779763,30.5344438 95.693868,28.4101264 95.693868,25.7918552 C95.693868,28.4101264 97.8192386,30.5344438 100.43751,30.5344438 C97.8192386,30.5344438 95.693868,32.6608675 95.693868,35.2801919" id="Fill-346-Copy-3" fill="#3299FB"></path>
                </g>
            </g>
        </g>
    </g>
</svg>