<?xml version="1.0" encoding="UTF-8"?>
<svg width="402px" height="245px" viewBox="0 0 402 245" version="1.1" xmlns="http://www.w3.org/2000/svg" xmlns:xlink="http://www.w3.org/1999/xlink">
    <!-- Generator: Sketch 42 (36781) - http://www.bohemiancoding.com/sketch -->
    <title>techBusiness</title>
    <desc>Created with Sketch.</desc>
    <defs></defs>
    <g id="Index" stroke="none" stroke-width="1" fill="none" fill-rule="evenodd">
        <g id="indexImage-Copy" transform="translate(-2847.000000, -1739.000000)">
            <g id="techBusiness" transform="translate(2847.000000, 1739.000000)">
                <rect id="Rectangle" fill="#FFFFFF" x="0" y="0" width="402" height="245"></rect>
                <g id="Group-4" transform="translate(124.000000, 48.000000)">
                    <g id="008-idea" transform="translate(8.333333, 4.861111)">
                        <path d="M106.23723,67.8780992 C106.23723,46.5395136 88.9416181,29.245803 67.6055677,29.245803 C50.9361445,29.245803 37.4236505,42.7563956 37.4236505,59.4258188 C37.4236505,61.7550127 37.7132945,64.0157569 38.2133582,66.1941078 L28.9739053,82.3634674 L38.6316624,84.7775898 L38.6316624,101.679615 L48.2894196,101.679615 L48.2894196,113.750861 L86.9217158,113.750861 L86.9217158,101.286029 C98.4561378,94.6058376 106.23723,82.1657236 106.23723,67.8780992 Z" id="Fill-1" fill="#CCD1D6"></path>
                        <path d="M86.9191806,111.337373 L79.6774472,111.337373 L79.6774472,87.315302 C81.1700328,85.3442018 82.0909358,82.9155022 82.0909358,80.2516648 L82.0909358,79.6476589 C82.0909358,73.1588731 76.8101619,67.8780992 70.3213762,67.8780992 L64.887224,67.8780992 C61.0622756,67.8780992 57.9478105,64.7636342 57.9478105,60.9355167 L57.9478105,60.334046 C57.9478105,56.5065623 61.0622756,53.3920973 64.887224,53.3920973 L70.3213762,53.3920973 C74.1488598,53.3920973 77.2607897,56.5065623 77.2607897,60.334046 L77.2607897,60.6338307 L82.0909358,60.6338307 L82.0909358,60.334046 C82.0909358,53.842725 76.8101619,48.5619511 70.3213762,48.5619511 L70.0196901,48.5619511 L70.0196901,41.3176826 L65.1889101,41.3176826 L65.1889101,48.5619511 L64.887224,48.5619511 C58.3984383,48.5619511 53.1176644,53.842725 53.1176644,60.3315108 L53.1176644,60.9355167 C53.1176644,67.4249363 58.3984383,72.7057102 64.887224,72.7057102 L70.3213762,72.7057102 C74.1488598,72.7057102 77.2607897,75.8201753 77.2607897,79.6476589 L77.2607897,80.2491297 C77.2607897,84.0766133 74.1463246,87.1910784 70.3213762,87.1910784 L64.887224,87.1910784 C61.0622756,87.1910784 57.9478105,84.7775898 57.9478105,79.9474436 L53.1176644,79.9474436 C53.1176644,82.3634674 54.0385674,85.3391315 55.5336881,87.315302 L55.5336881,111.334837 L48.2894196,111.334837 C44.2965156,111.334837 41.0457848,114.585568 41.0457848,118.579106 C41.0457848,121.151043 42.4021046,123.401647 44.4277111,124.686348 C43.8281417,125.740981 43.4592734,126.942021 43.4592734,128.236863 C43.4592734,130.809434 44.816227,133.059404 46.8411997,134.344739 C46.2422641,135.399372 45.8733958,136.599779 45.8733958,137.89462 C45.8733958,141.888158 49.1241266,145.138889 53.1176644,145.138889 L82.0909358,145.138889 C86.0844736,145.138889 89.3352044,141.888158 89.3352044,137.89462 C89.3352044,136.599779 88.9638009,135.399372 88.3648654,134.344739 C90.3923732,133.059404 91.7493268,130.809434 91.7493268,128.236863 C91.7493268,126.942021 91.3779233,125.740981 90.778354,124.686348 C92.8064956,123.401647 94.1628154,121.151043 94.1628154,118.579106 C94.1628154,114.588103 90.9146197,111.337373 86.9191806,111.337373 Z M60.3612991,91.1104622 C61.7556465,91.6948205 63.2856259,92.0212245 64.887224,92.0212245 L65.1889101,92.0212245 L65.1889101,99.2654931 L70.0196901,99.2654931 L70.0196901,92.0212245 L70.3213762,92.0212245 C71.9229743,92.0212245 73.4535875,91.6948205 74.8473011,91.1104622 L74.8473011,111.337373 L60.3612991,111.337373 L60.3612991,91.1104622 Z M48.2894196,116.164984 L86.9191806,116.164984 C88.2533176,116.164984 89.3352044,117.24687 89.3352044,118.581641 C89.3352044,119.913243 88.2533176,120.99513 86.9191806,120.99513 L48.2894196,120.99513 C46.9552826,120.99513 45.8733958,119.913243 45.8733958,118.581641 C45.8733958,117.24687 46.9552826,116.164984 48.2894196,116.164984 Z M86.9191806,128.239398 C86.9191806,129.571 85.839829,130.652887 84.5050582,130.652887 L50.703542,130.652887 C49.369405,130.652887 48.2894196,129.571 48.2894196,128.239398 C48.2894196,126.904628 49.369405,125.822741 50.703542,125.822741 L84.5050582,125.822741 C85.839829,125.822741 86.9191806,126.904628 86.9191806,128.239398 Z M82.0909358,140.311278 L53.1176644,140.311278 C51.7854288,140.311278 50.703542,139.229391 50.703542,137.89462 C50.703542,136.563019 51.7854288,135.481132 53.1176644,135.481132 L82.0909358,135.481132 C83.4257066,135.481132 84.5050582,136.563019 84.5050582,137.89462 C84.5050582,139.229391 83.4231714,140.311278 82.0909358,140.311278 Z" id="Fill-2" fill="#0073E1"></path>
                        <polygon id="Fill-3" fill="#0073E1" points="65.1889101 17.1745573 70.0190563 17.1745573 70.0190563 0.272531538 65.1889101 0.272531538"></polygon>
                        <polygon id="Fill-4" fill="#0073E1" points="31.7118965 10.5368298 35.8962063 8.12270742 44.3434164 22.7620876 40.1616418 25.17621"></polygon>
                        <g id="Group-8" transform="translate(0.000000, 31.689714)" fill="#0073E1">
                            <polygon id="Fill-5" points="7.8482745 4.47839034 10.2617631 0.297249515 24.8986081 8.74699478 22.4851195 12.9281356"></polygon>
                            <polygon id="Fill-7" points="0.0380276565 38.6018741 16.9020257 38.6018741 16.9020257 33.7717279 0.0380276565 33.7717279"></polygon>
                        </g>
                        <polygon id="Fill-9" fill="#0073E1" points="7.84573933 99.5925309 22.4851195 91.1427857 24.8986081 95.3239265 10.2598617 103.773672"></polygon>
                        <polygon id="Fill-10" fill="#0073E1" points="110.307457 95.3264617 112.721579 91.1453208 127.357791 99.5950661 124.944302 103.776207"></polygon>
                        <polygon id="Fill-11" fill="#0073E1" points="118.30911 70.2915878 135.2086 70.2915878 135.2086 65.4614417 118.30911 65.4614417"></polygon>
                        <polygon id="Fill-12" fill="#0073E1" points="110.309992 40.4367085 124.949372 31.9869632 127.362861 36.1706393 112.723481 44.6178493"></polygon>
                        <polygon id="Fill-13" fill="#0073E1" points="90.8626486 22.7570172 99.3123939 8.11827086 103.494168 10.5317595 95.0469584 25.1711396"></polygon>
                    </g>
                    <path d="M8.34087644,27.9779693 L8.34087644,27.9779693 C8.34087644,23.5156849 4.71695402,19.8906849 0.246048851,19.8906849 C4.71695402,19.8906849 8.34087644,16.26784 8.34087644,11.8055556 C8.34087644,16.26784 11.9572557,19.8906849 16.4206178,19.8906849 C11.9572557,19.8906849 8.34087644,23.5156849 8.34087644,27.9779693" id="Fill-345" fill="#0080FB"></path>
                    <path d="M13.1867816,65.2635297 L13.1867816,65.2635297 C13.1867816,62.5835728 11.0219109,60.4079262 8.33333333,60.4079262 C11.0219109,60.4079262 13.1867816,58.2344349 13.1867816,55.5555556 C13.1867816,58.2344349 15.3613506,60.4079262 18.0402299,60.4079262 C15.3613506,60.4079262 13.1867816,62.5835728 13.1867816,65.2635297" id="Fill-346-Copy" fill="#3299FB"></path>
                    <path d="M127.777778,27.5295738 C132.248683,27.5295738 135.872605,23.9067289 135.872605,19.4444444 C135.872605,23.9067289 139.488985,27.5295738 143.952347,27.5295738 C139.488985,27.5295738 135.872605,31.1545738 135.872605,35.6168582 C135.872605,31.1545738 132.248683,27.5295738 127.777778,27.5295738 Z" id="Fill-345-Copy" fill="#0080FB"></path>
                    <path d="M59.0201149,9.70797414 L59.0201149,9.70797414 C59.0201149,7.02801724 56.8552443,4.85237069 54.1666667,4.85237069 C56.8552443,4.85237069 59.0201149,2.67887931 59.0201149,0 C59.0201149,2.67887931 61.1946839,4.85237069 63.8735632,4.85237069 C61.1946839,4.85237069 59.0201149,7.02801724 59.0201149,9.70797414" id="Fill-346-Copy-2" fill="#3299FB"></path>
                    <path d="M148.603448,60.4024186 L148.603448,60.4024186 C148.603448,57.7224617 146.438578,55.5468151 143.75,55.5468151 C146.438578,55.5468151 148.603448,53.3733238 148.603448,50.6944444 C148.603448,53.3733238 150.778017,55.5468151 153.456897,55.5468151 C150.778017,55.5468151 148.603448,57.7224617 148.603448,60.4024186" id="Fill-346-Copy-3" fill="#3299FB"></path>
                </g>
            </g>
        </g>
    </g>
</svg>