
<svg width="306px" height="43px" viewBox="0 0 306 43" version="1.1" xmlns="http://www.w3.org/2000/svg" xmlns:xlink="http://www.w3.org/1999/xlink">
    <!-- Generator: Sketch 46.2 (44496) - http://www.bohemiancoding.com/sketch -->
    <desc>Created with Sketch.</desc>
    <defs>
        <polygon id="path-1" points="31.5909 43 0.1309 43 0.1309 0.5501 31.5909 0.5501 31.5909 43"></polygon>
    </defs>
    <g id="Page-1" stroke="none" stroke-width="1" fill="none" fill-rule="evenodd">
        <g id="Workbench-Logo" transform="translate(0.000000, -1.000000)">
            <path d="M279.4996,41.7001 L279.4996,42.8201 C275.7096,42.6801 273.2396,42.6101 272.1006,42.6101 C270.8806,42.6101 268.3696,42.6801 264.5696,42.8201 L264.5696,41.7001 C265.1896,41.7001 265.6806,41.5901 266.0206,41.3601 C266.3696,41.1401 266.6196,40.7501 266.7706,40.2001 C266.9306,39.6401 267.0106,38.8701 267.0106,37.8901 L267.0106,20.5901 C267.0106,19.4501 266.8006,18.6101 266.3806,18.0601 C265.9706,17.5201 265.3196,17.2401 264.4196,17.2401 C263.7606,17.2401 263.1406,17.4101 262.5606,17.7401 C261.9706,18.0701 261.4896,18.5201 261.1306,19.1001 C260.7706,19.6801 260.5906,20.3301 260.5906,21.0601 L260.5906,37.8901 C260.5906,38.8701 260.6696,39.6401 260.8196,40.2001 C260.9796,40.7501 261.2296,41.1401 261.5696,41.3601 C261.9196,41.5901 262.3996,41.7001 263.0206,41.7001 L263.0206,42.8201 C259.4996,42.6801 257.1806,42.6101 256.0396,42.6101 C254.8106,42.6101 252.1696,42.6801 248.1006,42.8201 L248.1006,41.7001 C248.8406,41.7001 249.4196,41.5901 249.8596,41.3601 C250.2896,41.1401 250.6006,40.7501 250.7896,40.2001 C250.9796,39.6401 251.0696,38.8701 251.0696,37.8801 L251.0696,4.0701 L246.4996,4.0701 L246.4996,1.3901 L259.4396,1.3901 L259.4396,1.4401 C259.8406,1.3701 260.2206,1.3001 260.5906,1.2301 L260.5906,18.4701 C262.1896,15.8001 264.9996,14.4701 269.0206,14.4701 C271.8296,14.4701 273.8196,15.1801 274.9996,16.6001 C275.5296,17.2401 275.9306,18.1001 276.1806,19.1801 C276.4306,20.2601 276.5506,21.6901 276.5506,23.4801 L276.5506,37.8901 C276.5506,38.8701 276.6406,39.6401 276.8296,40.2001 C277.0206,40.7501 277.3296,41.1401 277.7496,41.3601 C278.1806,41.5901 278.7606,41.7001 279.4996,41.7001" id="Fill-6" fill="#0080FB"></path>
            <path d="M245.6803,34.5399 C245.1903,36.0899 244.4703,37.5599 243.5203,38.9199 C242.5603,40.2899 241.3293,41.4099 239.8293,42.2699 C238.3293,43.1399 236.5903,43.5699 234.6103,43.5699 C230.7403,43.5699 227.6503,42.4199 225.3203,40.0999 C222.9903,37.7899 221.8293,34.1099 221.8293,29.0599 C221.8293,25.7699 222.4093,23.0299 223.5903,20.8499 C224.7603,18.6699 226.3693,17.0599 228.4093,16.0199 C230.4503,14.9899 232.8003,14.4699 235.4593,14.4699 C236.9093,14.4699 238.2403,14.6199 239.4593,14.9199 C240.6693,15.2199 241.6693,15.6099 242.4403,16.0799 C243.4303,16.6499 244.2003,17.4099 244.7703,18.3699 C245.3403,19.3299 245.6303,20.4099 245.6303,21.6099 C245.6303,22.5799 245.4093,23.4499 244.9703,24.2399 C244.5303,25.0299 243.9193,25.6499 243.1403,26.0999 C242.3693,26.5499 241.4903,26.7699 240.5303,26.7699 C239.0103,26.7699 237.8203,26.3299 236.9593,25.4499 C236.1003,24.5699 235.6693,23.4099 235.6693,21.9699 C235.6693,20.6899 236.0793,19.5699 236.9193,18.6099 C237.7603,17.6499 238.7893,16.9899 240.0103,16.6499 C239.4403,16.2299 238.7403,16.0199 237.8903,16.0199 C235.6103,16.0199 234.0203,17.2399 233.1103,19.6699 C232.1903,22.0999 231.7303,24.9799 231.7303,28.2999 C231.7303,31.7099 232.3803,34.1399 233.6593,35.5899 C234.9503,37.0299 236.5103,37.7499 238.3603,37.7499 C240.9303,37.7499 243.0603,36.5699 244.7703,34.1999 L245.6803,34.5399 Z" id="Fill-8" fill="#0080FB"></path>
            <path d="M219.4098,41.7001 L219.4098,42.8201 C215.6098,42.6801 213.1498,42.6101 212.0108,42.6101 C210.7898,42.6101 208.2798,42.6801 204.4798,42.8201 L204.4798,41.7001 C205.0998,41.7001 205.5908,41.5901 205.9308,41.3601 C206.2798,41.1401 206.5298,40.7501 206.6808,40.2101 C206.8408,39.6601 206.9098,38.8901 206.9098,37.8901 L206.9098,20.5901 C206.9098,19.4501 206.7098,18.6101 206.2898,18.0601 C205.8808,17.5201 205.2208,17.2401 204.3298,17.2401 C203.6698,17.2401 203.0508,17.4101 202.4598,17.7401 C201.8808,18.0701 201.3998,18.5201 201.0398,19.1001 C200.6808,19.6801 200.4998,20.3301 200.4998,21.0601 L200.4998,37.8901 C200.4998,38.8701 200.5798,39.6401 200.7298,40.2001 C200.8898,40.7501 201.1398,41.1401 201.4898,41.3601 C201.8498,41.5901 202.3298,41.7001 202.9598,41.7001 L202.9598,42.8201 C199.3698,42.6801 197.0298,42.6101 195.9498,42.6101 C194.7208,42.6101 192.0698,42.6801 187.9998,42.8201 L187.9998,41.7001 C188.7498,41.7001 189.3298,41.5901 189.7608,41.3601 C190.1898,41.1401 190.4998,40.7501 190.6898,40.2001 C190.8808,39.6401 190.9798,38.8701 190.9798,37.8901 L190.9798,21.0101 C190.9798,19.3601 190.7498,18.1701 190.3098,17.4401 C189.8598,16.7001 189.0908,16.3401 187.9998,16.3401 L187.9998,15.2201 C189.1308,15.3201 190.2208,15.3801 191.2898,15.3801 C194.9598,15.3801 198.0298,15.1301 200.4998,14.6501 L200.4998,18.4601 C202.0998,15.8001 204.9098,14.4701 208.9308,14.4701 C211.7398,14.4701 213.7298,15.1801 214.9098,16.6001 C215.4398,17.2401 215.8298,18.1001 216.0798,19.1801 C216.3298,20.2601 216.4598,21.6901 216.4598,23.4801 L216.4598,37.8801 C216.4598,38.8701 216.5508,39.6401 216.7398,40.2001 C216.9308,40.7501 217.2398,41.1401 217.6598,41.3601 C218.0798,41.5901 218.6698,41.7001 219.4098,41.7001" id="Fill-10" fill="#0080FB"></path>
            <path d="M173.0602,17.9999 C173.6502,16.4699 174.4302,15.7099 175.3902,15.7099 C176.3202,15.7099 177.0102,16.6199 177.4502,18.4299 C177.8902,20.2299 178.0902,22.5499 178.0602,25.3699 L171.9302,25.3699 C172.1002,21.9799 172.4802,19.5199 173.0602,17.9999 M178.1602,37.7599 C176.4502,37.7599 175.0102,37.0299 173.8302,35.5899 C172.6502,34.1399 172.0602,31.7099 172.0602,28.2999 C172.0602,27.4399 172.0702,26.7999 172.1102,26.3799 L185.7892,26.3799 C185.7892,18.4399 182.4502,14.4699 175.7802,14.4699 C173.1302,14.4699 170.7802,14.9899 168.7302,16.0199 C166.6902,17.0599 165.0802,18.6699 163.9102,20.8499 C162.7402,23.0299 162.1502,25.7699 162.1502,29.0599 C162.1502,34.1099 163.2602,37.7899 165.4992,40.1099 C167.7302,42.4199 170.7002,43.5699 174.4102,43.5699 C176.3902,43.5699 178.1302,43.1399 179.6302,42.2699 C181.1302,41.4099 182.3602,40.2999 183.3102,38.9399 C184.2602,37.5799 184.9802,36.1099 185.4802,34.5399 L184.5802,34.1999 C182.8702,36.5699 180.7302,37.7599 178.1602,37.7599" id="Fill-12" fill="#0080FB"></path>
            <g id="Group-16" transform="translate(127.000000, 0.680000)">
                <mask id="mask-2" fill="white">
                    <use xlink:href="#path-1"></use>
                </mask>
                <g id="Clip-15"></g>
                <path d="M16.8199,41.8301 C15.9399,41.8301 15.1099,41.6201 14.3409,41.2001 L14.3409,20.3801 C14.3409,19.6501 14.5099,19.0001 14.8699,18.4201 C15.2199,17.8401 15.6899,17.3901 16.2799,17.0601 C16.8599,16.7301 17.4799,16.5601 18.1399,16.5601 C19.2399,16.5601 20.1099,17.4401 20.7399,19.1901 C21.3699,20.9401 21.6799,24.0001 21.6799,28.3801 C21.6799,37.3401 20.0599,41.8301 16.8199,41.8301 M30.3999,19.7501 C29.6099,17.7501 28.5199,16.2501 27.1399,15.2701 C25.7599,14.2801 24.1799,13.7901 22.3809,13.7901 C18.6199,13.7901 15.9399,15.1201 14.3409,17.7901 L14.3409,0.5501 C13.9299,0.6301 13.5099,0.7101 13.0699,0.7801 L13.0699,0.7101 L0.1309,0.7101 L0.1309,3.3901 L4.6899,3.3901 C4.8409,4.3401 4.7899,5.7201 4.7899,6.9301 L4.7899,39.5401 C4.7899,40.7401 4.6699,41.7101 4.4299,42.4501 L5.1599,43.0001 C5.6399,42.5301 6.3409,42.1601 7.2599,41.8801 C8.1899,41.6001 9.1799,41.4601 10.2499,41.4601 C11.5799,41.4601 12.8499,41.6901 14.0499,42.1401 C14.7599,42.4501 15.5099,42.6501 16.2899,42.7501 C17.0799,42.8401 18.0599,42.8901 19.2499,42.8901 C22.9399,42.8901 25.9199,41.6701 28.1899,39.2301 C30.4599,36.7901 31.5909,32.7601 31.5909,27.1301 C31.5909,24.2101 31.1899,21.7401 30.3999,19.7501" id="Fill-14" fill="#0080FB" mask="url(#mask-2)"></path>
            </g>
            <path d="M129.3502,41.7001 L129.3502,42.8201 C126.1102,42.6801 123.9802,42.6101 122.9592,42.6101 C121.7702,42.6101 119.2802,42.6801 115.4802,42.8201 L115.4802,41.7001 C116.4992,41.7001 117.0102,41.3701 117.0102,40.7201 C117.0102,40.4901 116.9402,40.2101 116.8002,39.8801 L112.1502,29.9901 C111.7702,29.2701 111.2002,28.8801 110.4402,28.8201 L110.4402,37.8801 C110.4402,38.8701 110.5302,39.6401 110.7202,40.2001 C110.9102,40.7501 111.2202,41.1401 111.6602,41.3601 C112.0902,41.5901 112.6692,41.7001 113.4102,41.7001 L113.4102,42.8201 C109.6202,42.6801 107.1102,42.6101 105.8902,42.6101 C104.6602,42.6101 102.0202,42.6801 97.9502,42.8201 L97.9502,41.7001 C98.6902,41.7001 99.2702,41.5901 99.7002,41.3601 C100.1402,41.1401 100.4502,40.7501 100.6402,40.2001 C100.8292,39.6401 100.9192,38.8701 100.9192,37.8901 L100.9192,7.6101 C100.9192,6.5701 100.9802,5.1501 100.9192,4.0701 L96.4102,4.0701 L96.4102,1.3901 L109.3402,1.3901 L109.3402,1.4301 C109.7202,1.3701 110.0902,1.3001 110.4402,1.2301 L110.4402,27.8101 C111.4702,27.7801 112.2302,27.5201 112.7202,27.0301 L116.8002,23.1901 C118.0392,22.0101 118.6692,20.8601 118.6692,19.7401 C118.6692,18.8201 118.2602,18.0401 117.4592,17.4001 C116.6602,16.7601 115.6502,16.3901 114.4192,16.2801 L114.4192,15.2201 C116.4402,15.3201 118.5602,15.3801 120.7892,15.3801 C124.2402,15.3801 126.6502,15.3201 128.0302,15.2201 L128.0302,16.2801 C125.5602,16.9601 122.9502,18.7001 120.1902,21.5001 L118.8202,22.8501 L127.2302,38.9201 C127.3102,39.0801 127.4802,39.3901 127.7302,39.8501 C127.9802,40.3001 128.2402,40.6901 128.4902,41.0001 C128.7492,41.3101 129.0392,41.5501 129.3502,41.7001" id="Fill-17" fill="#0080FB"></path>
            <path d="M98.1598,19.8402 C98.1598,21.4302 97.7208,22.7002 96.8298,23.6402 C95.9398,24.5902 94.7698,25.0602 93.3008,25.0602 C91.7698,25.0602 90.5908,24.7202 89.7798,24.0302 C88.9708,23.3502 88.5698,22.4202 88.5698,21.2402 C88.5698,19.1302 89.4708,17.4802 91.2798,16.2802 C90.6398,16.2802 90.0798,16.4102 89.5798,16.6502 C88.6808,17.0302 87.9308,17.6602 87.3408,18.5302 C86.7398,19.4002 86.4498,20.3602 86.4498,21.4002 L86.4498,37.3402 C86.4498,38.4702 86.5998,39.3402 86.9098,39.9802 C87.2208,40.6102 87.6998,41.0502 88.3598,41.3102 C89.0108,41.5702 89.8898,41.7002 90.9998,41.7002 L90.9998,42.8202 C86.6498,42.6802 83.8008,42.6102 82.4398,42.6102 C81.1308,42.6102 78.3008,42.6802 73.9498,42.8202 L73.9498,41.7002 C74.6898,41.7002 75.2798,41.5902 75.7098,41.3602 C76.1398,41.1402 76.4498,40.7502 76.6398,40.2002 C76.8298,39.6402 76.9308,38.8702 76.9308,37.8902 L76.9308,21.0102 C76.9308,19.3702 76.6998,18.1702 76.2498,17.4402 C75.8098,16.7002 75.0398,16.3402 73.9498,16.3402 L73.9498,15.2202 C75.0698,15.3202 76.1698,15.3802 77.2398,15.3802 C80.9098,15.3802 83.9798,15.1302 86.4498,14.6502 L86.4498,18.4702 C87.8298,15.8002 90.1098,14.4702 93.3008,14.4702 C95.0298,14.4702 96.2698,15.0002 97.0298,16.0602 C97.7798,17.1302 98.1598,18.3902 98.1598,19.8402" id="Fill-19" fill="#0080FB"></path>
            <path d="M60.0201,39.1801 C59.3501,41.4001 58.4501,42.5101 57.3301,42.5101 C56.2101,42.5101 55.3101,41.4001 54.6301,39.1801 C53.9501,36.9701 53.6101,33.5901 53.6101,29.0601 C53.6101,24.5101 53.9501,21.1101 54.6301,18.8801 C55.3101,16.6501 56.2101,15.5301 57.3301,15.5301 C58.4501,15.5301 59.3501,16.6501 60.0201,18.8801 C60.6901,21.1101 61.0301,24.5101 61.0301,29.0601 C61.0301,33.5901 60.6901,36.9701 60.0201,39.1801 M67.3901,17.9101 C65.0301,15.6101 61.6801,14.4701 57.3301,14.4701 C52.9901,14.4701 49.6301,15.6101 47.2601,17.9101 C44.8801,20.2001 43.7001,23.9201 43.7001,29.0601 C43.7001,34.1801 44.8801,37.8801 47.2401,40.1601 C49.6101,42.4301 52.9701,43.5701 57.3301,43.5701 C61.6801,43.5701 65.0301,42.4301 67.3901,40.1601 C69.7601,37.8801 70.9401,34.1801 70.9401,29.0601 C70.9401,23.9201 69.7601,20.2001 67.3901,17.9101" id="Fill-21" fill="#0080FB"></path>
            <g id="Group-25" transform="translate(0.000000, 14.680000)" fill="#0080FB">
                <path d="M43.0099,0.5401 L43.0099,1.6601 C42.2499,1.9301 41.5699,2.4601 40.9599,3.2301 C40.3399,4.0001 39.7799,5.2001 39.2599,6.8201 L32.6399,28.1401 C31.7299,28.0501 30.8699,28.0101 30.0799,28.0101 C29.2999,28.0101 28.4399,28.0501 27.4899,28.1401 L21.1799,9.7601 L16.3699,28.1401 C15.4599,28.0501 14.5999,28.0101 13.8099,28.0101 C13.0499,28.0101 12.1999,28.0501 11.2499,28.1401 L3.0699,4.6401 C2.6299,3.4001 2.1399,2.5901 1.6099,2.2101 C1.0899,1.8401 0.5499,1.6601 -0.0001,1.6601 L-0.0001,0.5401 C2.8199,0.7501 5.9699,0.8501 9.4399,0.8501 C11.1999,0.8501 13.4899,0.7501 16.3199,0.5401 L16.3199,1.6601 C15.2299,1.6601 14.4499,1.7401 13.9799,1.9001 C13.4999,2.0701 13.2699,2.4201 13.2699,2.9501 C13.2699,3.1801 13.2999,3.4201 13.3699,3.6801 L17.7699,18.4001 L22.3199,0.5901 L22.3699,0.5901 C23.1099,0.6601 23.9599,0.7001 24.9099,0.7001 C25.6099,0.7001 26.6399,0.6601 27.9799,0.5901 L34.0099,20.0401 L36.2899,12.4601 C36.8599,10.5501 37.1399,8.8501 37.1399,7.3401 C37.1399,5.5601 36.7499,4.2001 35.9599,3.2501 C35.1799,2.3101 34.1399,1.7801 32.8499,1.6601 L32.8499,0.5401 C34.1699,0.6801 36.2099,0.7501 38.9499,0.7501 C40.9699,0.7501 42.3199,0.6801 43.0099,0.5401" id="Fill-23"></path>
            </g>
        </g>
    </g>
</svg>