<?xml version="1.0" encoding="UTF-8"?>
<svg width="150px" height="21px" viewBox="0 0 150 21" version="1.1" xmlns="http://www.w3.org/2000/svg" xmlns:xlink="http://www.w3.org/1999/xlink">
    <!-- Generator: Sketch 42 (36781) - http://www.bohemiancoding.com/sketch -->
    <title>workbench_150</title>
    <desc>Created with Sketch.</desc>
    <defs>
        <ellipse id="path-1" cx="6.85033631" cy="6.87580319" rx="6.85033631" ry="6.87580319"></ellipse>
        <mask id="mask-2" maskContentUnits="userSpaceOnUse" maskUnits="objectBoundingBox" x="0" y="0" width="13.7006726" height="13.7516064" fill="white">
            <use xlink:href="#path-1"></use>
        </mask>
    </defs>
    <g id="Logosizes" stroke="none" stroke-width="1" fill="none" fill-rule="evenodd">
        <g id="Workbench_Full_Logo_Blue" transform="translate(-275.000000, -127.000000)">
            <g id="workbench_150" transform="translate(275.000000, 127.000000)">
                <g id="Group-6-Copy" fill="#0080FB">
                    <g id="Group-Copy-3">
                        <path d="M18.7104105,6.91476475 C19.6767171,6.91476475 20.3250413,6.88160631 20.6554025,6.81528843 L20.6554025,7.34997365 C20.2920052,7.4826094 19.9637136,7.73337011 19.670518,8.10226331 C19.3773224,8.47115651 19.1068432,9.04521202 18.8590723,9.82444709 L15.6876203,20.0332044 C15.2498917,19.9917557 14.8410758,19.9710317 14.4611604,19.9710317 C14.089504,19.9710317 13.6765586,19.9917557 13.2223119,20.0332044 L10.1995218,11.2295501 L7.89526367,20.0332044 C7.45753503,19.9917557 7.04871914,19.9710317 6.66880372,19.9710317 C6.30540636,19.9710317 5.89659046,19.9917557 5.44234377,20.0332044 L1.52758271,8.77994574 C1.31284791,8.18308484 1.07953379,7.79554555 0.827633345,7.61731625 C0.575732903,7.43908696 0.31764206,7.34997365 0.0533530726,7.34997365 L0.0533530726,6.81528843 C1.40783413,6.91476525 2.91508466,6.96450291 4.57514986,6.96450291 C5.41757101,6.96450291 6.51600564,6.91476525 7.8704867,6.81528843 L7.8704867,7.34997365 C7.35016775,7.34997365 6.97645221,7.38934929 6.74932886,7.46810177 C6.52220552,7.54685425 6.40864554,7.71471886 6.40864554,7.97170064 C6.40864554,8.07946719 6.42516336,8.19552174 6.45819948,8.31986776 L8.56424182,15.3702519 L10.7446151,6.84015751 L10.769392,6.84015751 C11.1245304,6.87331645 11.5292168,6.88989567 11.9834635,6.88989567 C12.3220838,6.88989567 12.8134887,6.87331645 13.4576931,6.84015751 L16.34421,16.1536279 L17.4343966,12.5227422 C17.7069446,11.6108714 17.8432166,10.7943448 17.8432166,10.0731379 C17.8432166,9.21929521 17.6553265,8.56648839 17.2795406,8.11469785 C16.9037547,7.66290731 16.4061555,7.40800179 15.7867282,7.34997365 L15.7867282,6.81528843 C16.4226736,6.88160631 17.3972246,6.91476475 18.7104105,6.91476475 Z M32.3322593,8.10226331 C33.4637465,9.20065316 34.0294817,10.980847 34.0294817,13.4428982 C34.0294817,15.8966597 33.4637465,17.6685639 32.3322593,18.758664 C31.2007721,19.8487641 29.5944147,20.393806 27.5131389,20.393806 C25.4236041,20.393806 23.8131172,19.8487641 22.68163,18.758664 C21.5501428,17.6685639 20.9844077,15.8966597 20.9844077,13.4428982 C20.9844077,10.980847 21.5522075,9.20065316 22.6878243,8.10226331 C23.823441,7.00387346 25.4318631,6.45468677 27.5131389,6.45468677 C29.5944147,6.45468677 31.2007721,7.00387346 32.3322593,8.10226331 Z M26.2185423,8.56855856 C25.8923106,9.63793434 25.7291972,11.262698 25.7291972,13.4428982 C25.7291972,15.6148087 25.8923106,17.2312827 26.2185423,18.2923688 C26.544774,19.3534548 26.9763019,19.8839899 27.5131389,19.8839899 C28.0499759,19.8839899 28.4794391,19.3534548 28.8015413,18.2923688 C29.1236435,17.2312827 29.2846922,15.6148087 29.2846922,13.4428982 C29.2846922,11.262698 29.1236435,9.63793434 28.8015413,8.56855856 C28.4794391,7.49918278 28.0499759,6.96450291 27.5131389,6.96450291 C26.9763019,6.96450291 26.544774,7.49918278 26.2185423,8.56855856 Z M44.7400367,6.45468677 C45.5659398,6.45468677 46.1605811,6.70959229 46.5239784,7.21941098 C46.8873758,7.72922966 47.0690717,8.33229882 47.0690717,9.02863653 C47.0690717,9.79129213 46.8564049,10.3985061 46.4310648,10.8502966 C46.0057247,11.3020872 45.4420543,11.5279791 44.7400367,11.5279791 C44.0049829,11.5279791 43.4433772,11.3642593 43.0552028,11.0368147 C42.6670283,10.7093702 42.472944,10.2638036 42.472944,9.70010169 C42.472944,8.68875405 42.9065366,7.89709626 43.7737349,7.32510457 C43.4681507,7.32510457 43.1956068,7.38313184 42.9560949,7.49918812 C42.5266253,7.68156229 42.1694276,7.98206066 41.884491,8.40069227 C41.5995545,8.81932387 41.4570883,9.27732484 41.4570883,9.77470893 L41.4570883,17.4095164 C41.4570883,17.9483492 41.5314185,18.3690469 41.680081,18.6716222 C41.8287436,18.9741976 42.059993,19.187655 42.3738362,19.312001 C42.6876793,19.4363471 43.1088836,19.4985191 43.6374616,19.4985191 L43.6374616,20.0332044 C41.5561858,19.9668865 40.1893367,19.933728 39.5368732,19.933728 C38.9091869,19.933728 37.5547262,19.9668865 35.4734504,20.0332044 L35.4734504,19.4985191 C35.8285887,19.4985191 36.1093915,19.4446367 36.3158673,19.3368701 C36.5223431,19.2291036 36.6710034,19.0425873 36.7618527,18.7773158 C36.8527021,18.5120443 36.8981261,18.1431567 36.8981261,17.6706418 L36.8981261,9.58819083 C36.8981261,8.80066603 36.7907603,8.23075532 36.5760255,7.87844159 C36.3612907,7.52612787 35.9937693,7.34997365 35.4734504,7.34997365 L35.4734504,6.81528843 C36.0102874,6.86502684 36.534728,6.88989567 37.0467879,6.88989567 C38.8059615,6.88989567 40.2760469,6.77384112 41.4570883,6.54172855 L41.4570883,8.36960592 C42.1178108,7.09298677 43.212116,6.45468677 44.7400367,6.45468677 Z M61.2298196,18.6094495 C61.3495756,18.8291275 61.4713944,19.0135713 61.5952799,19.1627866 C61.7191654,19.3120018 61.8554373,19.4239115 62.0040999,19.4985191 L62.0040999,20.0332044 C60.4514021,19.9668865 59.4314271,19.933728 58.9441442,19.933728 C58.3742711,19.933728 57.1808591,19.9668865 55.3638723,20.0332044 L55.3638723,19.4985191 C55.8511551,19.4985191 56.0947928,19.3410165 56.0947928,19.0260066 C56.0947928,18.9182401 56.0617572,18.7856063 55.995685,18.6281013 L53.7657578,13.8905416 C53.5840591,13.5423728 53.3115152,13.3558565 52.9481178,13.3309873 L52.9481178,17.6706418 C52.9481178,18.1431567 52.9935418,18.5120443 53.0843911,18.7773158 C53.1752405,19.0425873 53.3239008,19.2291036 53.5303766,19.3368701 C53.7368524,19.4446367 54.0176552,19.4985191 54.3727935,19.4985191 L54.3727935,20.0332044 C52.5558067,19.9668865 51.3541358,19.933728 50.7677446,19.933728 C50.1813534,19.933728 48.9136112,19.9668865 46.9644799,20.0332044 L46.9644799,19.4985191 C47.3196182,19.4985191 47.600421,19.4446367 47.8068968,19.3368701 C48.0133726,19.2291036 48.1620329,19.0425873 48.2528823,18.7773158 C48.3437316,18.5120443 48.3891556,18.1431567 48.3891556,17.6706418 L48.3891556,3.17196823 C48.3891556,2.38444344 48.4676171,1.15096554 48.2528823,0.798651816 C48.0381475,0.44633809 47.4847988,0.93375105 46.9644799,0.93375105 L46.9644799,0.399065834 C47.4930579,0.448804243 48.0174984,0.473673074 48.5378174,0.473673074 C50.313509,0.473673074 51.7835945,0.353473723 52.9481178,0.113071416 L52.9481178,12.8460403 C53.4436597,12.8294608 53.8070516,12.7051167 54.0383044,12.4730041 L55.995685,10.6326922 C56.5903352,10.0689902 56.8876558,9.51773113 56.8876558,8.97889837 C56.8876558,8.53954243 56.6956363,8.16650997 56.3115913,7.85978978 C55.9275464,7.5530696 55.4423356,7.37484297 54.8559444,7.32510457 L54.8559444,6.81528843 C55.822251,6.86502684 56.8380966,6.88989567 57.9035116,6.88989567 C59.5553177,6.88989567 60.7115647,6.86502684 61.3722872,6.81528843 L61.3722872,7.32510457 C60.1912458,7.64840422 58.9400214,8.48151006 57.6185764,9.82444709 L56.9619868,10.4710432 L60.9882442,18.1680234 C61.0295393,18.242631 61.1100637,18.3897716 61.2298196,18.6094495 Z M71.5996913,6.45468677 C72.4586305,6.45468677 73.2184499,6.69094067 73.8791724,7.16345555 C74.5398949,7.63597043 75.060206,8.35094932 75.4401214,9.30841368 C75.8200369,10.265878 76.0099917,11.4450751 76.0099917,12.8460403 C76.0099917,15.5402041 75.4669686,17.4716833 74.380906,18.6405359 C73.2948435,19.8093885 71.8681173,20.393806 70.1006847,20.393806 C69.5308115,20.393806 69.0579891,20.3710096 68.6822032,20.325416 C68.3064173,20.2798225 67.9492196,20.1824196 67.6105993,20.0332044 C67.0324672,19.8176713 66.4254375,19.7099063 65.7894921,19.7099063 C65.2774322,19.7099063 64.8004803,19.7762232 64.3586222,19.908859 C63.916764,20.0414947 63.5802136,20.2197213 63.3489607,20.4435442 L63.0020831,20.1824188 C63.1177096,19.8259602 63.1755219,19.3617421 63.1755219,18.7897504 L63.1755219,3.17196823 C63.1755219,2.38444344 63.2168179,1.43633329 63.0020831,1.08401957 C62.7873483,0.731705841 62.2711652,0.93375105 61.7508462,0.93375105 L61.7508462,0.399065834 C62.2794242,0.448804243 62.8038648,0.473673074 63.3241837,0.473673074 C65.0998754,0.473673074 66.5740903,0.353473723 67.7468727,0.113071416 L67.7468727,8.36960592 C68.5149625,7.09298677 69.7992226,6.45468677 71.5996913,6.45468677 Z M68.9361671,19.8839899 C70.4888649,19.8839899 71.2652022,17.7369808 71.2652022,13.4428982 C71.2652022,11.3455953 71.1144772,9.87833428 70.8130225,9.04107107 C70.5115679,8.20380787 70.0965578,7.78518254 69.5679798,7.78518254 C69.2541367,7.78518254 68.956816,7.86393384 68.676009,8.0214388 C68.3952019,8.17894376 68.1701467,8.39654603 68.0008366,8.67425215 C67.8315264,8.95195826 67.7468727,9.26489105 67.7468727,9.61305991 L67.7468727,19.5855609 C68.118529,19.7845146 68.5149566,19.8839899 68.9361671,19.8839899 Z M82.4589081,13.0822965 C82.4589081,14.7153743 82.7417757,15.8779921 83.3075193,16.570185 C83.8732629,17.2623778 84.5649463,17.6084691 85.3825904,17.6084691 C86.613186,17.6084691 87.6372905,17.0406308 88.4549345,15.9049371 L88.8885315,16.0665861 C88.6490196,16.820952 88.3021455,17.5234965 87.8478988,18.1742406 C87.3936521,18.8249848 86.8072697,19.3575923 86.088734,19.772079 C85.3701983,20.1865658 84.5360487,20.393806 83.5862602,20.393806 C81.8105685,20.393806 80.3879718,19.8404745 79.3184273,18.7337949 C78.2488828,17.6271153 77.7141186,15.8635007 77.7141186,13.4428982 C77.7141186,11.8678486 77.9949214,10.5580902 78.5565355,9.51358359 C79.1181496,8.46907701 79.8882927,7.69814325 80.8669878,7.20075917 C81.845683,6.70337508 82.9709591,6.45468677 84.2428498,6.45468677 C87.4390948,6.45468677 89.0371933,8.35715235 89.0371933,12.1621406 L82.4836851,12.1621406 C82.467167,12.3610942 82.4589081,12.6678098 82.4589081,13.0822965 Z M85.0419071,8.35095411 C84.8313018,7.48467683 84.5030102,7.05154469 84.0570226,7.05154469 C83.5945168,7.05154469 83.222866,7.41628754 82.942059,8.1457842 C82.6612519,8.87528086 82.479556,10.0524055 82.3969657,11.6771935 L85.3330365,11.6771935 C85.3495545,10.3259668 85.2525124,9.21723139 85.0419071,8.35095411 Z M100.119403,6.45468677 C101.465625,6.45468677 102.419529,6.7945608 102.981143,7.47431904 C103.237173,7.78103923 103.425063,8.19344735 103.544819,8.71155577 C103.664575,9.22966419 103.724452,9.91562944 103.724452,10.7694721 L103.724452,17.6706418 C103.724452,18.1431567 103.769876,18.5120443 103.860725,18.7773158 C103.951574,19.0425873 104.09817,19.2291036 104.300516,19.3368701 C104.502863,19.4446367 104.781601,19.4985191 105.136739,19.4985191 L105.136739,20.0332044 C103.319752,19.9668865 102.138728,19.933728 101.593632,19.933728 C101.007241,19.933728 99.8055703,19.9668865 97.9885835,20.0332044 L97.9885835,19.4985191 C98.2859086,19.4985191 98.517158,19.4446367 98.6823386,19.3368701 C98.8475192,19.2291036 98.9672734,19.0446597 99.0416047,18.7835331 C99.1159359,18.5224065 99.153101,18.1514464 99.153101,17.6706418 L99.153101,9.38923819 C99.153101,8.8421157 99.0539941,8.43799719 98.8557774,8.17687055 C98.6575607,7.91574391 98.3437222,7.78518254 97.9142526,7.78518254 C97.6004094,7.78518254 97.3030888,7.86393384 97.0222817,8.0214388 C96.7414747,8.17894376 96.5143547,8.39654603 96.3409151,8.67425215 C96.1674754,8.95195826 96.0807569,9.26489105 96.0807569,9.61305991 L96.0807569,17.6706418 C96.0807569,18.1431567 96.117922,18.5120443 96.1922533,18.7773158 C96.2665845,19.0425873 96.3884034,19.2291036 96.5577136,19.3368701 C96.7270237,19.4446367 96.9603378,19.4985191 97.2576629,19.4985191 L97.2576629,20.0332044 C95.5397845,19.9668865 94.4207026,19.933728 93.9003837,19.933728 C93.3139925,19.933728 92.0462502,19.9668865 90.097119,20.0332044 L90.097119,19.4985191 C90.4522573,19.4985191 90.7330601,19.4446367 90.9395359,19.3368701 C91.1460117,19.2291036 91.294672,19.0425873 91.3855213,18.7773158 C91.4763707,18.5120443 91.5217947,18.1431567 91.5217947,17.6706418 L91.5217947,9.58819083 C91.5217947,8.80066603 91.4144289,8.23075532 91.1996941,7.87844159 C90.9849593,7.52612787 90.6174379,7.34997365 90.097119,7.34997365 L90.097119,6.81528843 C90.633956,6.86502684 91.1583966,6.88989567 91.6704565,6.88989567 C93.42963,6.88989567 94.8997155,6.77384112 96.0807569,6.54172855 L96.0807569,8.36960592 C96.8488468,7.09298677 98.1950486,6.45468677 100.119403,6.45468677 Z M116.683517,18.1680234 C116.22514,18.8229124 115.636693,19.3575923 114.918158,19.772079 C114.199622,20.1865658 113.365472,20.393806 112.415684,20.393806 C110.565661,20.393806 109.083187,19.8404745 107.968218,18.7337949 C106.853249,17.6271153 106.295773,15.8635007 106.295773,13.4428982 C106.295773,11.8678486 106.576575,10.5580902 107.138189,9.51358359 C107.699804,8.46907701 108.469947,7.69814325 109.448642,7.20075917 C110.427337,6.70337508 111.552613,6.45468677 112.824504,6.45468677 C113.518262,6.45468677 114.156263,6.52722086 114.738525,6.67229122 C115.320786,6.81736158 115.797738,7.00180541 116.169395,7.22562825 C116.640159,7.49918949 117.01181,7.86600475 117.284358,8.32608503 C117.556906,8.78616531 117.693178,9.30219355 117.693178,9.87418525 C117.693178,10.3384104 117.587877,10.7591081 117.377272,11.136291 C117.166666,11.513474 116.87554,11.8098275 116.503884,12.0253607 C116.132227,12.2408938 115.715152,12.3486587 115.252647,12.3486587 C114.525852,12.3486587 113.955987,12.1372736 113.543036,11.7144972 C113.130084,11.2917207 112.923612,10.7363168 112.923612,10.0482688 C112.923612,9.43482844 113.12389,8.89807616 113.524453,8.43799589 C113.925016,7.97791561 114.418486,7.66498282 115.004877,7.49918812 C114.732329,7.30023449 114.393714,7.20075917 113.989021,7.20075917 C112.898829,7.20075917 112.13488,7.7831043 111.697152,8.94781202 C111.259423,10.1125198 111.040562,11.4906675 111.040562,13.0822965 C111.040562,14.7153743 111.348206,15.8779921 111.963504,16.570185 C112.578802,17.2623778 113.328298,17.6084691 114.212014,17.6084691 C115.44261,17.6084691 116.466714,17.0406308 117.284358,15.9049371 L117.717955,16.0665861 C117.486702,16.8126622 117.141893,17.5131343 116.683517,18.1680234 Z M128.899272,6.45468677 C130.245495,6.45468677 131.199398,6.7945608 131.761012,7.47431904 C132.017042,7.78103923 132.204932,8.19344735 132.324688,8.71155577 C132.444444,9.22966419 132.504321,9.91562944 132.504321,10.7694721 L132.504321,17.6706418 C132.504321,18.1431567 132.549745,18.5120443 132.640595,18.7773158 C132.731444,19.0425873 132.87804,19.2291036 133.080386,19.3368701 C133.282732,19.4446367 133.56147,19.4985191 133.916609,19.4985191 L133.916609,20.0332044 C132.099622,19.9668865 130.918598,19.933728 130.373502,19.933728 C129.787111,19.933728 128.58544,19.9668865 126.768453,20.0332044 L126.768453,19.4985191 C127.065778,19.4985191 127.297028,19.4446367 127.462208,19.3368701 C127.627389,19.2291036 127.747143,19.0425873 127.821474,18.7773158 C127.895806,18.5120443 127.932971,18.1431567 127.932971,17.6706418 L127.932971,9.38923819 C127.932971,8.8421157 127.833864,8.43799719 127.635647,8.17687055 C127.43743,7.91574391 127.123592,7.78518254 126.694122,7.78518254 C126.380279,7.78518254 126.082958,7.86393384 125.802151,8.0214388 C125.521344,8.17894376 125.294224,8.39654603 125.120785,8.67425215 C124.947345,8.95195826 124.860627,9.26489105 124.860627,9.61305991 L124.860627,17.6706418 C124.860627,18.1431567 124.897792,18.5120443 124.972123,18.7773158 C125.046454,19.0425873 125.166208,19.2291036 125.331389,19.3368701 C125.49657,19.4446367 125.727819,19.4985191 126.025144,19.4985191 L126.025144,20.0332044 C124.340302,19.9668865 123.225349,19.933728 122.680253,19.933728 C122.093862,19.933728 120.82612,19.9668865 118.876989,20.0332044 L118.876989,19.4985191 C119.232127,19.4985191 119.51293,19.4446367 119.719406,19.3368701 C119.925881,19.2291036 120.074542,19.0425873 120.165391,18.7773158 C120.25624,18.5120443 120.301664,18.1431567 120.301664,17.6706418 L120.301664,3.17196823 L120.301664,0.93375105 L118.876989,0.93375105 L118.876989,0.399065834 C119.405567,0.448804243 119.930007,0.473673074 120.450326,0.473673074 C122.226018,0.473673074 123.696103,0.353473723 124.860627,0.113071416 L124.860627,8.36960592 C125.628716,7.09298677 126.974918,6.45468677 128.899272,6.45468677 Z" id="workbench"></path>
                        <rect id="Rectangle-7" x="118.114462" y="0.191761579" width="6.19584803" height="1.28335651"></rect>
                        <rect id="Rectangle-7-Copy-3" x="60.9437538" y="0.191761579" width="6.19584803" height="1.28335651"></rect>
                        <rect id="Rectangle-7-Copy-4" x="46.2282165" y="0.191761579" width="6.19584803" height="1.28335651"></rect>
                    </g>
                </g>
                <g id="Group-3" transform="translate(135.653573, 0.339546)">
                    <g id="Group-Copy-33" stroke="#0080FB" stroke-width="2.56">
                        <use id="Oval" mask="url(#mask-2)" xlink:href="#path-1"></use>
                    </g>
                    <g id="Group-2" transform="translate(3.585110, 4.095484)" fill="#0080FB">
                        <rect id="Rectangle-7" x="0.187935681" y="0.170827408" width="6.19584803" height="1.28335651"></rect>
                        <polygon id="Rectangle-7-Copy" transform="translate(1.528986, 3.013659) rotate(19.000000) translate(-1.528986, -3.013659) " points="0.892426455 5.79934845 0.892426455 0.227969072 2.16554591 0.640092105 2.16554591 3.99718546 2.16554591 5.38722541"></polygon>
                        <polygon id="Rectangle-7-Copy-2" transform="translate(5.291421, 2.963300) scale(-1, 1) rotate(19.000000) translate(-5.291421, -2.963300) " points="4.40307764 4.85705856 4.90664587 4.68302151 4.90664587 0.143852249 6.17976532 0.519288344 6.15520325 5.28695091 4.72063747 5.78274788"></polygon>
                    </g>
                </g>
            </g>
        </g>
    </g>
</svg>