<?xml version="1.0" ?><!DOCTYPE svg  PUBLIC '-//W3C//DTD SVG 1.1//EN'  'http://www.w3.org/Graphics/SVG/1.1/DTD/svg11.dtd'><svg enable-background="new 0 0 512 512" id="Layer_1" version="1.1" viewBox="0 0 512 512" xml:space="preserve" xmlns="http://www.w3.org/2000/svg" xmlns:xlink="http://www.w3.org/1999/xlink"><g><circle cx="256" cy="278.1" fill="#D0E5F6" r="231.6"/><path d="M103,208.3H61.9c-1.5,0-2.6-1.2-2.6-2.6s1.2-2.6,2.6-2.6H103c1.5,0,2.6,1.2,2.6,2.6S104.5,208.3,103,208.3z   " fill="#FFFFFF"/><path d="M379.7,148h-41.1c-1.5,0-2.6-1.2-2.6-2.6s1.2-2.6,2.6-2.6h41.1c1.5,0,2.6,1.2,2.6,2.6S381.2,148,379.7,148z   " fill="#FFFFFF"/><path d="M159.6,171c-1.2-3.4-4.5-5.9-8.3-5.9c-0.7,0-1.4,0.1-2,0.2c0-0.1,0-0.2,0-0.2c0-11.3-9.2-20.4-20.4-20.4   c-3.1,0-6,0.7-8.6,1.9c-4.4-5.7-11.3-9.3-19-9.3c-12.2,0-22.2,9-23.9,20.8l0,0c-7.3,0-13.3,5.7-13.7,13H159.6z" fill="#FFFFFF"/><path d="M348.5,99.3c-0.4-9.5-8.2-17.1-17.8-17.1c-6.8,0-12.7,3.8-15.7,9.3c-1.4-0.8-3-1.2-4.7-1.2   c-5.1,0-9.3,4-9.7,9H348.5z" fill="#FFFFFF"/><path d="M474,205.6c-0.8-18.8-16.2-33.7-35.1-33.7c-13.3,0-25,7.4-30.9,18.4c-2.7-1.5-5.9-2.4-9.2-2.4   c-10.1,0-18.3,7.8-19.1,17.7H474z" fill="#FFFFFF"/><g><g><g><path d="M389.2,465.4c0.2-0.2,0.4-0.3,0.5-0.4c1.2-1,2.3-1.9,3.5-2.9V325.1H136v142.1h250.9      C387.7,466.6,388.7,465.8,389.2,465.4z" fill="#F5F7F9"/></g><g><rect fill="#BDC4CE" height="17.2" width="257.2" x="136" y="325.1"/></g><g><path d="M57.6,397.2c2.5,4,5.2,8,8,11.8c1.2,1.6,2.6,4.5,4.3,5.8c-0.1-0.1-3-3.7-1-1.3c0.6,0.8,1.3,1.6,1.9,2.4      c6.2,7.7,12.8,15.1,19.6,22.2c7.2,7.4,14.7,14.5,22.6,21.1c2.3,1.9,4.7,3.8,7,5.7c-3.6-2.9,0.3,0.2,1.8,1.3      c4,2.9,8,5.8,12.2,8.5c7.6,5,15.4,9.6,23.5,13.8v-100H52.4C54.1,391.4,55.8,394.3,57.6,397.2z" fill="#D1DBDE"/></g><g><path d="M355.7,485.6c-0.8,0.3,2.7-1.2,3.9-1.7c9.4-4.4,18-9.8,26.3-15.9c0.3-0.2,2.6-2,3.3-2.6      c0.2-0.2,0.4-0.3,0.5-0.4c1.8-1.5,3.6-2.9,5.4-4.4c3.8-3.2,7.6-6.6,11.3-10c7.2-6.6,14.4-13.3,21.2-20.3      c3.5-3.6,6.8-7.3,10.1-11c1.4-1.6,2.7-3.2,4.1-4.9c0.2-0.3,0.5-0.5,0.7-0.8c0.1-0.1,0.2-0.2,0.3-0.4      c5.4-7.3,10.5-14.7,15.1-22.5c0.5-0.8,0.9-1.6,1.3-2.3H354.5V486C354.9,485.9,355.3,485.7,355.7,485.6z" fill="#D1DBDE"/></g><g><path d="M355.7,485.6c-0.8,0.3,2.7-1.2,3.9-1.7c1.4-0.7,2.8-1.4,4.3-2.1v-93.4h-9.3V486      C354.9,485.9,355.3,485.7,355.7,485.6z" fill="#F5F7F9"/></g><g><path d="M56,394.5l101.4,28.9v-35H52.4C53.6,390.5,54.8,392.5,56,394.5z" fill="#BDC4CE"/></g><g><path d="M442.8,413.2c5.4-7.3,10.5-14.7,15.1-22.5c0.5-0.8,0.9-1.6,1.3-2.3H354.5l88,25.1      C442.6,413.4,442.7,413.3,442.8,413.2z" fill="#BDC4CE"/></g><g><path d="M305.3,504c9.9-2.9,19.4-6.9,29.1-10.4c5.3-2,10.7-3.9,16-5.9c1.4-0.5,2.8-1.1,4.1-1.6v-26.6H157.5v29      c1.4,0.7,2.7,1.4,4.1,2.1c2.7,1.3,5.5,2.5,8.2,3.8c0.1,0.1,0.2,0.1,0.3,0.1c0.5,0.2,1.1,0.4,1.6,0.7c4.8,1.9,9.7,3.7,14.7,5.2      c2.8,0.8,5.6,1.4,8.4,1.9c1.1,0.2,2.1,0.4,3.2,0.5c0,0,0.1,0,0.1,0c5.1,0.3,10.2,0.7,15.3,1.2c6,0.7,11.7,1.8,17.5,3.3h48.8      C288.1,505.9,296.7,504.9,305.3,504z" fill="#9FACB8"/></g><g><rect fill="#D3DAE2" height="7.8" width="197.1" x="157.5" y="459.4"/></g><g><path d="M37.8,358.4c0.7,1.9,1.4,3.9,2.2,5.9c0.1,0.3,0.6,1.1,1.1,2.3c0.3,0.7,0.6,1.3,0.9,2h115.4      c0-0.2,0-0.5,0-0.7c0-37.7-27.5-68.3-61.4-68.3c-29.5,0-54.1,23.2-60,54C36.6,355.2,37.2,356.8,37.8,358.4z" fill="#7FCEF2"/></g><g><path d="M469.7,368.5c0.4-0.9,0.9-1.9,1.3-2.8c0.6-1.3,1.2-2.6,1.7-3.9c0-0.1,0.1-0.2,0.2-0.4      c0.4-1.1,1.4-3.5,1.6-4.1c0.5-1.3,1-2.6,1.4-3.8c-5.9-30.9-30.5-54-60-54c-33.9,0-61.4,30.6-61.4,68.3c0,0.2,0,0.5,0,0.7H469.7z      " fill="#7FCEF2"/></g><g><path d="M383.3,291.1c0-0.5,0-1,0-1.4c0-78.2-57-141.7-127.3-141.7c-70.3,0-127.3,63.4-127.3,141.7      c0,0.5,0,1,0,1.4H383.3z" fill="#7FCEF2"/></g><g><path d="M37.8,358.4c0.7,1.9,1.4,3.9,2.2,5.9c0.1,0.3,0.6,1.1,1.1,2.3c0.1,0.3,0.2,0.5,0.4,0.8      c2.6-35,29-62.6,61.2-62.6c11.9,0,23.1,3.8,32.5,10.4c-10.6-9.8-24.2-15.6-39.1-15.6c-29.5,0-54.1,23.2-60,54      C36.6,355.2,37.2,356.8,37.8,358.4z" fill="#AEE1F7"/></g><g><path d="M422.5,304.8c11.9,0,23.1,3.8,32.5,10.4c-10.6-9.8-24.2-15.6-39.1-15.6c-33.9,0-61.4,30.6-61.4,68.3      c0,0.2,0,0.5,0,0.7h6.7C363.4,332.9,390,304.8,422.5,304.8z" fill="#AEE1F7"/></g><g><path d="M262.6,153.3c26.2,0,50.6,8.8,70.8,23.9C312,158.9,285.1,148,256,148c-70.3,0-127.3,63.4-127.3,141.7      c0,0.5,0,1,0,1.4h6.6C137.2,214.7,193.4,153.3,262.6,153.3z" fill="#AEE1F7"/></g><g><path d="M256,148c9.7,0,19.1,1.2,28.1,3.5V99.8h-56.2v51.7C236.9,149.2,246.3,148,256,148z" fill="#F5F7F9"/></g><g><polygon fill="#D3DAE2" points="284.1,112.6 284.1,99.8 227.9,99.8     "/></g><g><path d="M268.2,65.3h-24.4c-8.8,0-15.9,7.1-15.9,15.9v18.7h56.2V81.2C284.1,72.4,277,65.3,268.2,65.3z" fill="#FFFFFF"/></g><g><g><rect fill="#BDC4CE" height="125.2" width="15.2" x="170.9" y="334.2"/></g><g><rect fill="#BDC4CE" height="125.2" width="15.2" x="209.7" y="334.2"/></g><g><rect fill="#BDC4CE" height="125.2" width="15.2" x="248.4" y="334.2"/></g><g><rect fill="#BDC4CE" height="125.2" width="15.2" x="287.1" y="334.2"/></g><g><rect fill="#BDC4CE" height="125.2" width="15.2" x="325.9" y="334.2"/></g></g><g><g><rect fill="#D3DAE2" height="125.2" width="4.5" x="170.9" y="334.2"/></g><g><rect fill="#D3DAE2" height="125.2" width="4.1" x="209.7" y="334.2"/></g><g><rect fill="#D3DAE2" height="125.2" width="4.4" x="248.4" y="334.2"/></g><g><rect fill="#D3DAE2" height="125.2" width="4" x="287.1" y="334.2"/></g><g><rect fill="#D3DAE2" height="125.2" width="5.1" x="325.9" y="334.2"/></g></g><g><g><polygon fill="#9FACB8" points="186.1,350.4 170.9,334.2 186.1,334.2      "/></g><g><polygon fill="#9FACB8" points="224.9,350.4 209.7,334.2 224.9,334.2      "/></g><g><polygon fill="#9FACB8" points="263.6,350.4 248.4,334.2 263.6,334.2      "/></g><g><polygon fill="#9FACB8" points="302.3,350.4 287.1,334.2 302.3,334.2      "/></g><g><polygon fill="#9FACB8" points="341.1,350.4 325.9,334.2 341.1,334.2      "/></g></g><g><path d="M101.9,259.6H90.2c-4.2,0-7.7,3.4-7.7,7.7v9h27.1v-9C109.6,263,106.2,259.6,101.9,259.6z" fill="#FFFFFF"/></g><g><path d="M96.1,299.5c4.7,0,9.2,0.6,13.6,1.7v-24.9H82.5v24.9C86.9,300.1,91.4,299.5,96.1,299.5z" fill="#F5F7F9"/></g><g><path d="M42.4,369.4c3,6.5,6.4,12.8,10,19h109.8v-19.7H42.1C42.2,368.9,42.3,369.1,42.4,369.4z" fill="#D3DAE2"/></g><g><g><path d="M90.4,438c5.6,5.8,11.5,11.5,17.6,16.8v-32.4c0-6.6-5.3-11.9-11.9-11.9h0c-6.6,0-11.9,5.3-11.9,11.9       v8.8C86.2,433.6,88.3,435.8,90.4,438z" fill="#3E5A71"/></g><g><path d="M129.3,471.5h18.7v-49c0-6.6-5.3-11.9-11.9-11.9h0c-6.6,0-11.9,5.3-11.9,11.9v45.3       C125.8,469.1,127.5,470.3,129.3,471.5z" fill="#3E5A71"/></g></g><g><path d="M421.8,259.6h-11.8c-4.2,0-7.7,3.4-7.7,7.7v9h27.1v-9C429.5,263,426.1,259.6,421.8,259.6z" fill="#FFFFFF"/></g><g><path d="M415.9,299.5c4.7,0,9.2,0.6,13.6,1.7v-24.9h-27.1v24.9C406.8,300.1,411.3,299.5,415.9,299.5z" fill="#F5F7F9"/></g><g><polygon fill="#D3DAE2" points="109.6,288.3 109.6,276.2 82.5,276.2     "/></g><g><polygon fill="#D3DAE2" points="429.5,288.3 429.5,276.2 402.4,276.2     "/></g><g><path d="M469.6,368.7H349.8v19.7h109.5C463,382,466.4,375.4,469.6,368.7z" fill="#D3DAE2"/></g><g><path d="M42.4,369.4c1,2.1,2,4.3,3.1,6.4h116.7v-7H42.1C42.2,368.9,42.3,369.1,42.4,369.4z" fill="#FFFFFF"/></g><g><path d="M469.6,368.7H349.8v7h116.4C467.3,373.4,468.5,371.1,469.6,368.7z" fill="#FFFFFF"/></g><g><g><path d="M385.9,467.9c0.2-0.2,1.2-0.9,2-1.6v-43.9c0-6.6-5.3-11.9-11.9-11.9h0c-6.6,0-11.9,5.3-11.9,11.9v49       h16.8C382.6,470.3,384.2,469.2,385.9,467.9z" fill="#3E5A71"/></g><g><path d="M406.4,450.6c7.2-6.6,14.4-13.3,21.2-20.3c0.1-0.1,0.2-0.2,0.3-0.3v-7.5c0-6.6-5.3-11.9-11.9-11.9h0       c-6.6,0-11.9,5.3-11.9,11.9v30.2C404.8,452,405.6,451.3,406.4,450.6z" fill="#3E5A71"/></g></g><g><path d="M376,316H136c5.4,5.1,10,11.3,13.5,18.2h213C366,327.3,370.6,321.1,376,316z" fill="#D3DAE2"/></g><g><path d="M143.3,324.2h225.4c2.2-3,4.7-5.8,7.3-8.3H136C138.6,318.5,141.1,321.3,143.3,324.2z" fill="#E4E6E9"/></g><g><path d="M136,316h240c5.1-4.8,10.9-8.8,17.2-11.6v-12.9H118.8v12.9C125.1,307.2,130.9,311.1,136,316z" fill="#F5F7F9"/></g><g><rect fill="#FFFFFF" height="12" width="274.3" x="118.8" y="291.5"/></g><g><path d="M365.7,217.7c-6.6,19.8-29.9,47.5-106.7,54.2c-70.2,6.1-109.4,11.5-130.2,15c0,0.9,0,1.8,0,2.8      c0,0.5,0,1,0,1.4h254.6c0-0.5,0-1,0-1.4C383.3,263.4,376.9,238.8,365.7,217.7z" fill="#6FC1DF"/></g><g><path d="M469.7,368.5c0.4-0.9,0.9-1.9,1.3-2.8c0.6-1.3,1.2-2.6,1.7-3.9c0-0.1,0.1-0.2,0.2-0.4      c0.4-1.1,1.4-3.5,1.6-4.1c0.5-1.3,1-2.6,1.5-3.9c-1.5-7.6-4.1-14.8-7.6-21.2c-4.1,9.3-16.2,20.9-50.4,23.8      c-34.7,3-53.7,5.7-63.4,7.4c-0.1,1.4-0.1,2.9-0.1,4.3c0,0.2,0,0.5,0,0.7H469.7z" fill="#6FC1DF"/></g><g><path d="M40,364.3c0.1,0.3,0.6,1.1,1.1,2.3c0.3,0.7,0.6,1.3,0.9,2h115.4c0-0.2,0-0.5,0-0.7      c0-13-3.3-25.2-8.9-35.5c-4.1,9.3-16.2,20.9-50.4,23.8c-29.9,2.6-48,4.9-58.7,6.6C39.6,363.3,39.8,363.8,40,364.3z" fill="#6FC1DF"/></g></g><g><g><path d="M344.8,292.5H167.2c-0.7,0-1.3-0.6-1.3-1.3l0-1.4c0-78.8,40.4-143,90.2-143s90.2,64.1,90.2,143l0,1.5      C346.2,291.9,345.6,292.5,344.8,292.5z M168.5,289.8h175.1l0-0.1c0-77.4-39.3-140.4-87.5-140.4c-48.3,0-87.5,63-87.5,140.4      L168.5,289.8z" fill="#244964"/></g><g><path d="M285.4,292.5h-58.9c-0.7,0-1.3-0.6-1.3-1.3l0-1.4c0-70.3,11.5-143,30.8-143c19.3,0,30.8,72.7,30.8,143      l0,1.4C286.8,291.9,286.2,292.5,285.4,292.5z M227.9,289.8h56.3v-0.1c0-84-14.5-140.4-28.1-140.4c-13.6,0-28.1,56.4-28.1,140.4      V289.8z" fill="#244964"/></g><g><path d="M284.1,102.5h-56.2c-1.5,0-2.6-1.2-2.6-2.6v-6.5c0-17,13.8-30.8,30.8-30.8c17,0,30.8,13.8,30.8,30.8v6.5      C286.8,101.3,285.6,102.5,284.1,102.5z M230.5,97.2h51v-3.8c0-14-11.4-25.5-25.5-25.5c-14,0-25.5,11.4-25.5,25.5V97.2z" fill="#244964"/></g><g><path d="M256,67.9c-1.5,0-2.6-1.2-2.6-2.6V4.6c0-1.5,1.2-2.6,2.6-2.6c1.5,0,2.6,1.2,2.6,2.6v60.6      C258.6,66.7,257.5,67.9,256,67.9z" fill="#244964"/></g><g><path d="M383.3,293.8H128.7c-1.4,0-2.6-1.2-2.6-2.6l0-0.5c0-0.3,0-0.6,0-0.9c0-79.6,58.3-144.3,129.9-144.3      c71.6,0,129.9,64.7,129.9,144.3c0,0.3,0,0.6,0,1l0,0.5C385.9,292.6,384.7,293.8,383.3,293.8z M131.3,288.5h249.3      c-0.6-76.1-56.3-137.8-124.7-137.8S131.9,212.4,131.3,288.5z" fill="#244964"/></g><g><path d="M227.9,154.1c-0.6,0-1.2-0.2-1.6-0.6c-0.6-0.5-1-1.3-1-2.1V99.8c0-1.5,1.2-2.6,2.6-2.6h56.2      c1.5,0,2.6,1.2,2.6,2.6v51.7c0,0.8-0.4,1.6-1,2.1c-0.6,0.5-1.5,0.7-2.3,0.5c-18-4.5-37-4.5-54.9,0      C228.3,154.1,228.1,154.1,227.9,154.1z M230.5,102.5v45.7c16.7-3.7,34.2-3.7,51,0v-45.7H230.5z" fill="#244964"/></g><g><g><path d="M186.1,460.7h-15.2c-0.7,0-1.3-0.6-1.3-1.3V334.2c0-0.7,0.6-1.3,1.3-1.3h15.2c0.7,0,1.3,0.6,1.3,1.3       v125.2C187.4,460.1,186.8,460.7,186.1,460.7z M172.2,458.1h12.5V335.5h-12.5V458.1z" fill="#244964"/></g><g><path d="M224.9,460.7h-15.2c-0.7,0-1.3-0.6-1.3-1.3V334.2c0-0.7,0.6-1.3,1.3-1.3h15.2c0.7,0,1.3,0.6,1.3,1.3       v125.2C226.2,460.1,225.6,460.7,224.9,460.7z M211,458.1h12.5V335.5H211V458.1z" fill="#244964"/></g><g><path d="M263.6,460.7h-15.2c-0.7,0-1.3-0.6-1.3-1.3V334.2c0-0.7,0.6-1.3,1.3-1.3h15.2c0.7,0,1.3,0.6,1.3,1.3       v125.2C264.9,460.1,264.3,460.7,263.6,460.7z M249.7,458.1h12.5V335.5h-12.5V458.1z" fill="#244964"/></g><g><path d="M302.3,460.7h-15.2c-0.7,0-1.3-0.6-1.3-1.3V334.2c0-0.7,0.6-1.3,1.3-1.3h15.2c0.7,0,1.3,0.6,1.3,1.3       v125.2C303.7,460.1,303.1,460.7,302.3,460.7z M288.5,458.1H301V335.5h-12.6V458.1z" fill="#244964"/></g><g><path d="M341.1,460.7h-15.2c-0.7,0-1.3-0.6-1.3-1.3V334.2c0-0.7,0.6-1.3,1.3-1.3h15.2c0.7,0,1.3,0.6,1.3,1.3       v125.2C342.4,460.1,341.8,460.7,341.1,460.7z M327.2,458.1h12.6V335.5h-12.6V458.1z" fill="#244964"/></g></g><g><path d="M138.9,369.8H53.2c-0.7,0-1.3-0.6-1.3-1.3l0-0.7c0-38.4,19.8-69.7,44.2-69.7s44.2,31.2,44.2,69.7l0,0.7      C140.2,369.3,139.6,369.8,138.9,369.8z M54.5,367.2h83.1c-0.2-36.7-18.8-66.4-41.5-66.4S54.7,330.5,54.5,367.2z" fill="#244964"/></g><g><path d="M110.3,369.8H81.8c-0.7,0-1.3-0.6-1.3-1.3l0-0.7c0-33.8,5.4-69.7,15.5-69.7c10.1,0,15.5,35.9,15.5,69.7      l0,0.7C111.6,369.3,111,369.8,110.3,369.8z M83.2,367.2h25.8c-0.1-39.2-6.8-66.4-12.9-66.4C90,300.8,83.2,328,83.2,367.2z" fill="#244964"/></g><g><path d="M109.6,278.9H82.5c-1.5,0-2.6-1.2-2.6-2.6v-3.1c0-8.9,7.3-16.2,16.2-16.2s16.2,7.3,16.2,16.2v3.1      C112.3,277.7,111.1,278.9,109.6,278.9z M85.1,273.6H107v-0.5c0-6-4.9-10.9-10.9-10.9c-6,0-10.9,4.9-10.9,10.9V273.6z" fill="#244964"/></g><g><path d="M96.1,262.2c-1.5,0-2.6-1.2-2.6-2.6v-29.2c0-1.5,1.2-2.6,2.6-2.6s2.6,1.2,2.6,2.6v29.2      C98.7,261,97.5,262.2,96.1,262.2z" fill="#244964"/></g><g><path d="M37.8,358.4c0,0.1,0.1,0.1,0.1,0.2c4-31.9,28.6-56.5,58.2-56.5c31.8,0,57.8,28.4,58.7,63.8h-114      c0.1,0.2,0.2,0.4,0.3,0.7c0.4,0.9,0.9,1.9,1.3,2.8c0.3,0.6,0.6,1.2,0.9,1.8h114.2c1.4,0,2.6-1.2,2.6-2.6l0-0.7      c0-39.1-28.7-71-64-71c-29.4,0-54.1,22-61.7,51.9C35.5,352,36.6,355.2,37.8,358.4z" fill="#244964"/></g><g><path d="M109.6,303.8c-0.2,0-0.4,0-0.6-0.1c-8.4-2.1-17.4-2.1-25.8,0c-0.8,0.2-1.6,0-2.3-0.5      c-0.6-0.5-1-1.3-1-2.1v-24.9c0-1.5,1.2-2.6,2.6-2.6h27.1c1.5,0,2.6,1.2,2.6,2.6v24.9c0,0.8-0.4,1.6-1,2.1      C110.8,303.6,110.2,303.8,109.6,303.8z M96.1,296.9c3.7,0,7.3,0.3,10.9,1v-19H85.1v19C88.7,297.2,92.4,296.9,96.1,296.9z" fill="#244964"/></g><g><path d="M41.1,366.6c0.4,0.9,0.9,1.9,1.3,2.8c0.3,0.7,0.6,1.3,0.9,1.9h116.2v14.4H50.9c1,1.8,2,3.5,3,5.3h108.3      c1.5,0,2.6-1.2,2.6-2.6v-19.7c0-1.5-1.2-2.6-2.6-2.6H40.9C41,366.2,41,366.4,41.1,366.6z" fill="#244964"/></g><g><path d="M53.9,391h100.9v96c1.7,0.9,3.5,1.8,5.3,2.7V388.4c0-1.5-1.2-2.6-2.6-2.6H50.9      C51.9,387.5,52.9,389.3,53.9,391z" fill="#244964"/></g><g><g><path d="M85.4,432.8v-10.3c0-5.9,4.8-10.6,10.6-10.6c5.9,0,10.6,4.8,10.6,10.6v31.2c0.9,0.8,1.8,1.5,2.6,2.3       v-33.5c0-7.3-5.9-13.3-13.3-13.3s-13.3,5.9-13.3,13.3v7.4C83.7,430.9,84.5,431.8,85.4,432.8z" fill="#244964"/></g><g><path d="M125.4,468.8v-46.3c0-5.9,4.8-10.6,10.6-10.6s10.6,4.8,10.6,10.6v47.7h-19.3c1.3,0.9,2.6,1.8,3.9,2.6       h16.7c0.7,0,1.3-0.6,1.3-1.3v-49c0-7.3-5.9-13.3-13.3-13.3s-13.3,5.9-13.3,13.3v44.4C123.6,467.5,124.5,468.1,125.4,468.8z" fill="#244964"/></g></g><g><path d="M458.8,369.8h-85.7c-0.7,0-1.3-0.6-1.3-1.3l0-0.7c0-38.4,19.8-69.7,44.2-69.7      c24.4,0,44.2,31.2,44.2,69.7l0,0.7C460.1,369.3,459.5,369.8,458.8,369.8z M374.4,367.2h83.1c-0.2-36.7-18.8-66.4-41.5-66.4      C393.2,300.8,374.6,330.5,374.4,367.2z" fill="#244964"/></g><g><path d="M430.2,369.8h-28.4c-0.7,0-1.3-0.6-1.3-1.3l0-0.7c0-33.8,5.4-69.7,15.5-69.7c10.1,0,15.5,35.9,15.5,69.7      l0,0.7C431.5,369.3,430.9,369.8,430.2,369.8z M403.1,367.2h25.8c-0.1-39.2-6.8-66.4-12.9-66.4      C409.9,300.8,403.1,328,403.1,367.2z" fill="#244964"/></g><g><path d="M429.5,278.9h-27.1c-1.5,0-2.6-1.2-2.6-2.6v-3.1c0-8.9,7.3-16.2,16.2-16.2c8.9,0,16.2,7.3,16.2,16.2v3.1      C432.1,277.7,431,278.9,429.5,278.9z M405,273.6h21.8v-0.5c0-6-4.9-10.9-10.9-10.9c-6,0-10.9,4.9-10.9,10.9V273.6z" fill="#244964"/></g><g><path d="M415.9,262.2c-1.5,0-2.6-1.2-2.6-2.6v-29.2c0-1.5,1.2-2.6,2.6-2.6c1.5,0,2.6,1.2,2.6,2.6v29.2      C418.6,261,417.4,262.2,415.9,262.2z" fill="#244964"/></g><g><path d="M354.6,371.2h113.9c0.8-1.8,1.7-3.5,2.5-5.3H357.2c0.9-35.3,26.9-63.8,58.7-63.8      c29.6,0,54.1,24.5,58.2,56.3c0.2-0.5,0.4-0.9,0.4-1.1c1.1-2.8,2.1-5.6,3.1-8.4c-7.5-30-32.3-52.1-61.7-52.1      c-35.3,0-64,31.8-64,71l0,0.7C351.9,370,353.1,371.2,354.6,371.2z" fill="#244964"/></g><g><path d="M429.5,303.8c-0.2,0-0.4,0-0.6-0.1c-8.4-2.1-17.4-2.1-25.8,0c-0.8,0.2-1.6,0-2.3-0.5      c-0.6-0.5-1-1.3-1-2.1v-24.9c0-1.5,1.2-2.6,2.6-2.6h27.1c1.5,0,2.6,1.2,2.6,2.6v24.9c0,0.8-0.4,1.6-1,2.1      C430.7,303.6,430.1,303.8,429.5,303.8z M415.9,296.9c3.7,0,7.3,0.3,10.9,1v-19H405v19C408.6,297.2,412.3,296.9,415.9,296.9z" fill="#244964"/></g><g><path d="M349.8,391h107.9c0.1-0.1,0.1-0.2,0.2-0.3c1-1.6,1.9-3.3,2.9-5H352.4v-14.4h115.9      c0.8-1.8,1.7-3.5,2.5-5.3H349.8c-1.5,0-2.6,1.2-2.6,2.6v19.7C347.1,389.9,348.3,391,349.8,391z" fill="#244964"/></g><g><path d="M355.7,485.6c-0.5,0.2,0.4-0.2,1.5-0.7V391h100.5c0.1-0.1,0.1-0.2,0.2-0.3c1-1.6,1.9-3.3,2.9-5H354.5      c-1.5,0-2.6,1.2-2.6,2.6v98.6C353.2,486.6,354.4,486.1,355.7,485.6z" fill="#244964"/></g><g><g><path d="M364.1,472.8h14.9c1.3-0.9,2.6-1.7,3.8-2.6h-17.4v-47.7c0-5.9,4.8-10.6,10.6-10.6       c5.9,0,10.6,4.8,10.6,10.6v44.9c0.8-0.6,2.1-1.6,2.6-2c0,0,0,0,0,0v-42.9c0-7.3-5.9-13.3-13.3-13.3c-7.3,0-13.3,5.9-13.3,13.3       v49C362.7,472.2,363.3,472.8,364.1,472.8z" fill="#244964"/></g><g><path d="M405.3,451.6v-29.1c0-5.9,4.8-10.6,10.6-10.6c5.9,0,10.6,4.8,10.6,10.6v8.9c0.4-0.4,0.7-0.7,1.1-1.1       c0.5-0.5,1-1.1,1.6-1.7v-6.1c0-7.3-5.9-13.3-13.3-13.3c-7.3,0-13.3,5.9-13.3,13.3v31.4C403.6,453.1,404.5,452.4,405.3,451.6z" fill="#244964"/></g></g><g><g><path d="M241.1,137.8c-0.7,0-1.3-0.6-1.3-1.3v-21.6c0-0.7,0.6-1.3,1.3-1.3c0.7,0,1.3,0.6,1.3,1.3v21.6       C242.4,137.2,241.8,137.8,241.1,137.8z" fill="#244964"/></g><g><path d="M256,137.8c-0.7,0-1.3-0.6-1.3-1.3v-21.6c0-0.7,0.6-1.3,1.3-1.3c0.7,0,1.3,0.6,1.3,1.3v21.6       C257.3,137.2,256.7,137.8,256,137.8z" fill="#244964"/></g><g><path d="M270.9,137.8c-0.7,0-1.3-0.6-1.3-1.3v-21.6c0-0.7,0.6-1.3,1.3-1.3s1.3,0.6,1.3,1.3v21.6       C272.2,137.2,271.6,137.8,270.9,137.8z" fill="#244964"/></g></g><g><path d="M362.5,336.8h-213c-1,0-1.9-0.6-2.4-1.4c-3.4-6.6-7.7-12.5-12.9-17.5c-0.8-0.7-1-1.9-0.6-2.9      c0.4-1,1.4-1.7,2.4-1.7h240c1.1,0,2,0.7,2.4,1.7c0.4,1,0.2,2.1-0.6,2.9c-5.2,5-9.6,10.9-12.9,17.5      C364.4,336.3,363.5,336.8,362.5,336.8z M151.1,331.5h209.8c2.5-4.7,5.5-9,8.9-12.9H142.2C145.6,322.5,148.6,326.9,151.1,331.5z" fill="#244964"/></g><g><path d="M376,318.6H136c-0.7,0-1.3-0.3-1.8-0.7c-4.9-4.7-10.4-8.4-16.4-11.1c-1-0.4-1.6-1.4-1.6-2.4v-12.9      c0-1.5,1.2-2.6,2.6-2.6h274.3c1.5,0,2.6,1.2,2.6,2.6v12.9c0,1-0.6,2-1.6,2.4c-6,2.7-11.5,6.4-16.4,11.1      C377.3,318.3,376.7,318.6,376,318.6z M137.1,313.3h237.9c4.7-4.4,10-7.9,15.6-10.6v-8.6H121.5v8.6      C127.1,305.4,132.3,309,137.1,313.3z" fill="#244964"/></g><g><path d="M351.9,487.1c1.3-0.5,2.5-1,3.8-1.5c-0.5,0.2,0.4-0.2,1.5-0.7v-25.5c0-1.5-1.2-2.6-2.6-2.6H157.5      c-1.5,0-2.6,1.2-2.6,2.6v27.7c1.7,0.9,3.5,1.8,5.3,2.7V462h191.8V487.1z" fill="#244964"/><path d="M266.3,510c10.7-2.5,21.5-4,32.5-5.3h-80.4c5.2,0.8,10.2,2,15.3,3.4c1.8,0.5,3.6,0.8,5.4,1.3      c1-0.1,2.2,0,3.2,0c2.2-0.1,4.2,0.2,6.2,0.6H266.3z" fill="#244964"/></g></g></g><circle cx="256" cy="278.1" fill="none" r="231.6" stroke="#244964" stroke-miterlimit="10" stroke-width="8"/></g></svg>