<?xml version="1.0" ?><!DOCTYPE svg  PUBLIC '-//W3C//DTD SVG 1.1//EN'  'http://www.w3.org/Graphics/SVG/1.1/DTD/svg11.dtd'><svg enable-background="new 0 0 512 512" id="Layer_1" version="1.1" viewBox="0 0 512 512" xml:space="preserve" xmlns="http://www.w3.org/2000/svg" xmlns:xlink="http://www.w3.org/1999/xlink"><g><g><g><circle cx="256" cy="284.3" fill="#D0E5F6" r="220.6"/></g></g><g><path d="M139.5,153.9h-39.2c-1.4,0-2.5-1.1-2.5-2.5c0-1.4,1.1-2.5,2.5-2.5h39.2c1.4,0,2.5,1.1,2.5,2.5    C142,152.7,140.9,153.9,139.5,153.9z" fill="#FFFFFF"/></g><g><path d="M248,119.4h-39.2c-1.4,0-2.5-1.1-2.5-2.5c0-1.4,1.1-2.5,2.5-2.5H248c1.4,0,2.5,1.1,2.5,2.5    C250.5,118.3,249.4,119.4,248,119.4z" fill="#FFFFFF"/></g><g><path d="M161.6,184.6h-39.2c-1.4,0-2.5-1.1-2.5-2.5s1.1-2.5,2.5-2.5h39.2c1.4,0,2.5,1.1,2.5,2.5    S163,184.6,161.6,184.6z" fill="#FFFFFF"/></g><g><path d="M456.2,194.9H417c-1.4,0-2.5-1.1-2.5-2.5c0-1.4,1.1-2.5,2.5-2.5h39.2c1.4,0,2.5,1.1,2.5,2.5    C458.7,193.8,457.6,194.9,456.2,194.9z" fill="#FFFFFF"/></g><g><path d="M470.5,279.9h-39.2c-1.4,0-2.5-1.1-2.5-2.5c0-1.4,1.1-2.5,2.5-2.5h39.2c1.4,0,2.5,1.1,2.5,2.5    C473,278.8,471.9,279.9,470.5,279.9z" fill="#FFFFFF"/></g><g><path d="M398.7,121.9h-39.2c-1.4,0-2.5-1.1-2.5-2.5c0-1.4,1.1-2.5,2.5-2.5h39.2c1.4,0,2.5,1.1,2.5,2.5    C401.2,120.8,400,121.9,398.7,121.9z" fill="#FFFFFF"/></g><g><path d="M193.6,92.5h-39.2c-1.4,0-2.5-1.1-2.5-2.5c0-1.4,1.1-2.5,2.5-2.5h39.2c1.4,0,2.5,1.1,2.5,2.5    C196.1,91.4,195,92.5,193.6,92.5z" fill="#FFFFFF"/></g><g><path d="M77,229.3H37.9c-1.4,0-2.5-1.1-2.5-2.5c0-1.4,1.1-2.5,2.5-2.5H77c1.4,0,2.5,1.1,2.5,2.5    C79.5,228.2,78.4,229.3,77,229.3z" fill="#FFFFFF"/></g><g><path d="M124.8,262.2H85.7c-1.4,0-2.5-1.1-2.5-2.5c0-1.4,1.1-2.5,2.5-2.5h39.2c1.4,0,2.5,1.1,2.5,2.5    C127.4,261.1,126.2,262.2,124.8,262.2z" fill="#FFFFFF"/></g><g><path d="M372.3,169.4h-39.2c-1.4,0-2.5-1.1-2.5-2.5s1.1-2.5,2.5-2.5h39.2c1.4,0,2.5,1.1,2.5,2.5    S373.7,169.4,372.3,169.4z" fill="#FFFFFF"/></g><g><path d="M426.3,226.8h-39.2c-1.4,0-2.5-1.1-2.5-2.5c0-1.4,1.1-2.5,2.5-2.5h39.2c1.4,0,2.5,1.1,2.5,2.5    C428.8,225.7,427.7,226.8,426.3,226.8z" fill="#FFFFFF"/></g><g><g><g><g><path d="M409.3,307.9c-1.8-95.4-69.8-172.1-153.3-172.1h0c-83.5,0-151.5,76.7-153.3,172.1H409.3z" fill="#C5E5D4"/></g></g><g><g><rect fill="#F5F7F9" height="42.1" width="46" x="233" y="95.9"/></g></g><g><g><path d="M256,36.3L256,36.3c-2,0-3.6,1.6-3.7,3.6C251.3,81,233,95.9,233,95.9h22.6h0.9H279       c0,0-18.3-14.8-19.3-55.9C259.6,37.9,258,36.3,256,36.3z" fill="#F4B7A5"/></g></g><g><g><path d="M270.2,84.2h-28.4c-4.5,8.2-8.8,11.7-8.8,11.7h46C279,95.9,274.7,92.4,270.2,84.2z" fill="#F59B80"/></g></g><g><g><rect fill="#FFFFFF" height="30.7" width="322" x="95" y="307.9"/></g></g><g><g><rect fill="#D1DBDE" height="15.3" width="322" x="95" y="307.9"/></g></g><g><g><path d="M120.4,458.6c4,2.8,8.1,5.4,12.2,8.1h246.4c9.2-6.2,18.1-12.7,26.7-19.2c0.3-0.3,0.7-0.5,1-0.7V338.6       H105.2v106.1C109,450.3,115,454.8,120.4,458.6z" fill="#FFFFFF"/></g></g><g><g><rect fill="#D1DBDE" height="11.1" width="301.6" x="105.2" y="338.6"/></g></g><g><g><rect fill="#D3DAE2" height="108.4" width="93.3" x="209.4" y="358.3"/></g></g><g><g><path d="M132.6,466.7h57.6V358.3H123v102.1C126.2,462.5,129.4,464.6,132.6,466.7z" fill="#D3DAE2"/></g></g><g><g><path d="M389,459.8V358.3h-67.2v108.4h57.3C382.4,464.4,385.7,462.1,389,459.8z" fill="#D3DAE2"/></g></g><g><g><rect fill="#BDC4CE" height="17.7" width="93.3" x="209.4" y="358.3"/></g></g><g><g><rect fill="#BDC4CE" height="17.7" width="67.2" x="123" y="358.3"/></g></g><g><g><rect fill="#BDC4CE" height="17.7" width="67.2" x="321.8" y="358.3"/></g></g><g><g><path d="M279.8,505c36.4-1.8,69.3-18.2,99.3-38.3H132.6c4.5,2.9,9.1,5.8,13.6,8.8       c18.4,11.9,40.4,17.9,61.6,22.9C231.2,503.9,255.8,506.1,279.8,505z" fill="#F5F7F9"/></g></g><g><g><path d="M207.9,498.4c23.3,5.6,47.9,7.7,71.9,6.6c20.9-1,40.7-6.9,59.4-15.5l-36.6-22.8h-93.3L174,488.7       C185.1,492.7,196.6,495.7,207.9,498.4z" fill="#FFFFFF"/></g></g><g><g><path d="M256,135.8L256,135.8c-2.3,0-4.7,0.1-7,0.2c46.1,16.5,95.3,65.3,104.7,171.9h55.5       C407.5,212.5,339.5,135.8,256,135.8z" fill="#B6DCC6"/></g></g><g><g><path d="M279,134V95.9h-46v7.4C242.8,104.3,262.1,109.6,279,134z" fill="#D3DAE2"/></g></g><g><g><path d="M233,103.2V138h46v-4C262.1,109.6,242.8,104.3,233,103.2z" fill="#F5F7F9"/></g></g><g><g><circle cx="258.5" cy="240.2" fill="#9CCCB3" r="10.8"/></g></g><g><g><g><circle cx="355.3" cy="240.2" fill="#9CCCB3" r="10.8"/></g></g><g><g><circle cx="161.8" cy="240.2" fill="#9CCCB3" r="10.8"/></g></g></g><g><g><circle cx="256" cy="232.7" fill="#A7D8C0" r="10.8"/></g></g><g><g><g><circle cx="352.7" cy="232.7" fill="#A7D8C0" r="10.8"/></g></g><g><g><circle cx="159.3" cy="232.7" fill="#A7D8C0" r="10.8"/></g></g></g><g><g><polygon fill="#8898A4" points="285.3,404.4 296.9,466.7 285.3,466.7      "/></g></g><g><g><path d="M132.6,466.7h9.4l-19-108.4v102.1C126.2,462.5,129.4,464.6,132.6,466.7z" fill="#BDC4CE"/></g></g><g><g><polygon fill="#BDC4CE" points="209.4,358.3 228.4,466.7 209.4,466.7      "/></g></g><g><g><polygon fill="#BDC4CE" points="321.8,358.3 340.8,466.7 321.8,466.7      "/></g></g><g><g><polygon fill="#F5F7F9" points="285.3,466.7 226.7,466.7 226.7,404.4 256.1,384.8 285.3,404.4      "/></g></g><g><g><path d="M256,415.8c-7.1,0-12.8,5.7-12.8,12.8v38.1h25.6v-38.1C268.8,421.5,263.1,415.8,256,415.8z" fill="#3E5A71"/></g></g><g><g><path d="M247.2,419.2l12.5,47.5h-16.5v-41C243.2,425.7,245.3,420.7,247.2,419.2z" fill="#244964"/></g></g></g><g><g><g><path d="M409.3,310.4H102.7c-0.7,0-1.3-0.3-1.8-0.8c-0.5-0.5-0.7-1.1-0.7-1.8c0.9-46.8,17.5-90.6,46.7-123.4       c29.3-33,68.1-51.1,109.2-51.1c41.1,0,79.9,18.2,109.2,51.1c29.2,32.8,45.8,76.7,46.7,123.4c0,0.7-0.2,1.3-0.7,1.8       C410.6,310.1,410,310.4,409.3,310.4z M105.3,305.4h301.5c-3-92.3-70.1-167.1-150.7-167.1C175.4,138.3,108.2,213,105.3,305.4z" fill="#244964"/></g></g><g><g><path d="M319.3,310.4H192.7c-0.7,0-1.3-0.3-1.8-0.7c-0.5-0.5-0.7-1.1-0.7-1.8C191,210,219.9,133.3,256,133.3       c36.1,0,65,76.7,65.8,174.6c0,0.7-0.3,1.3-0.7,1.8C320.6,310.1,320,310.4,319.3,310.4z M195.2,305.4h121.5       c-1.2-92.3-28.3-167.1-60.8-167.1S196.4,213,195.2,305.4z" fill="#244964"/></g></g><g><g><g><path d="M256,244.7c-6.7,0-12.1-5.4-12.1-12.1c0-6.7,5.4-12.1,12.1-12.1c6.7,0,12.1,5.4,12.1,12.1        C268.1,239.3,262.7,244.7,256,244.7z M256,223.1c-5.3,0-9.5,4.3-9.5,9.6s4.3,9.6,9.5,9.6c5.3,0,9.6-4.3,9.6-9.6        S261.3,223.1,256,223.1z" fill="#244964"/></g></g><g><g><g><path d="M352.7,244.7c-6.7,0-12.1-5.4-12.1-12.1c0-6.7,5.4-12.1,12.1-12.1s12.1,5.4,12.1,12.1         C364.8,239.3,359.4,244.7,352.7,244.7z M352.7,223.1c-5.3,0-9.6,4.3-9.6,9.6s4.3,9.6,9.6,9.6s9.6-4.3,9.6-9.6         S358,223.1,352.7,223.1z" fill="#244964"/></g></g><g><g><path d="M159.3,244.7c-6.7,0-12.1-5.4-12.1-12.1c0-6.7,5.4-12.1,12.1-12.1s12.1,5.4,12.1,12.1         C171.3,239.3,165.9,244.7,159.3,244.7z M159.3,223.1c-5.3,0-9.6,4.3-9.6,9.6s4.3,9.6,9.6,9.6c5.3,0,9.6-4.3,9.6-9.6         S164.5,223.1,159.3,223.1z" fill="#244964"/></g></g></g></g><g><g><path d="M279,140.5h-46c-1.4,0-2.5-1.1-2.5-2.5V95.9c0-1.4,1.1-2.5,2.5-2.5h46c1.4,0,2.5,1.1,2.5,2.5V138       C281.5,139.4,280.4,140.5,279,140.5z M235.5,135.5h41V98.4h-41V135.5z" fill="#244964"/></g></g><g><g><path d="M279,98.4h-46c-1.1,0-2-0.7-2.4-1.7c-0.4-1,0-2.1,0.8-2.8c0.2-0.1,17.4-14.8,18.4-54       c0.1-3.3,2.9-6,6.2-6h0c3.3,0,6.1,2.7,6.2,6c1,39.2,18.2,53.9,18.4,54c0.8,0.7,1.1,1.8,0.8,2.8C281,97.7,280.1,98.4,279,98.4z        M238.8,93.4h34.5c-5.7-7.2-15.3-23.6-16.1-53.3c0-0.6-0.5-1.1-1.2-1.1c-0.6,0-1.2,0.5-1.2,1.1       C254.1,69.8,244.5,86.2,238.8,93.4z" fill="#244964"/></g></g><g><g><path d="M256,38.9c-1.4,0-2.5-1.1-2.5-2.5V4.5c0-1.4,1.1-2.5,2.5-2.5c1.4,0,2.5,1.1,2.5,2.5v31.8       C258.5,37.7,257.4,38.9,256,38.9z" fill="#244964"/></g></g><g><g><path d="M417,341.1H95c-1.4,0-2.5-1.1-2.5-2.5v-30.7c0-1.4,1.1-2.5,2.5-2.5h322c1.4,0,2.5,1.1,2.5,2.5v30.7       C419.5,339.9,418.4,341.1,417,341.1z M97.5,336h317v-25.6h-317V336z" fill="#244964"/></g></g><g><g><path d="M128.8,464.2c2.6,1.7,5.2,3.4,7.8,5h238.7c2.5-1.6,5-3.3,7.5-5H128.8z" fill="#244964"/></g><g><path d="M107.7,447.9V341.1h296.5v107.5c0.5-0.4,1-0.8,1.5-1.1c1.2-0.9,2.3-1.5,3.5-1.8V338.6       c0-1.4-1.1-2.5-2.5-2.5H105.2c-1.4,0-2.5,1.1-2.5,2.5V440C103.9,442.9,105.6,445.5,107.7,447.9z" fill="#244964"/></g></g><g><g><path d="M302.6,469.2h-93.3c-1.4,0-2.5-1.1-2.5-2.5V358.3c0-1.4,1.1-2.5,2.5-2.5h93.3c1.4,0,2.5,1.1,2.5,2.5       v108.4C305.1,468.1,304,469.2,302.6,469.2z M211.9,464.2h88.2V360.8h-88.2V464.2z" fill="#244964"/></g></g><g><g><g><path d="M126.1,462.4V360.8h61.6v103.4h-58.9c2.6,1.7,5.2,3.4,7.8,5h53.6c1.4,0,2.5-1.1,2.5-2.5V358.3        c0-1.4-1.1-2.5-2.5-2.5h-66.6c-1.4,0-2.5,1.1-2.5,2.5V459C122.7,460.1,124.4,461.3,126.1,462.4z" fill="#244964"/></g></g><g><g><path d="M321.8,469.2h53.5c2.5-1.6,5-3.3,7.5-5h-58.5V360.8h61.6V462c1.7-1.2,3.4-2.4,5-3.6V358.3        c0-1.4-1.1-2.5-2.5-2.5h-66.6c-1.4,0-2.5,1.1-2.5,2.5v108.4C319.3,468.1,320.4,469.2,321.8,469.2z" fill="#244964"/></g></g></g><g><g><path d="M136.6,469.2h238.7c2.5-1.6,5-3.3,7.5-5h-254C131.4,465.9,134,467.5,136.6,469.2z" fill="#244964"/></g></g><g><g><path d="M177.1,489.8l33-20.6h91.8l34.5,21.5c1.8-0.8,3.7-1.6,5.5-2.5L304,464.6c-0.4-0.2-0.9-0.4-1.3-0.4       h-93.3c-0.5,0-0.9,0.1-1.3,0.4l-37,23.1C173,488.4,175,489.1,177.1,489.8z" fill="#244964"/></g></g><g><g><path d="M285.3,469.2h-58.5c-1.4,0-2.5-1.1-2.5-2.5v-62.3c0-0.8,0.4-1.6,1.1-2.1l29.4-19.6c0.8-0.6,2-0.6,2.8,0       l29.1,19.6c0.7,0.5,1.1,1.2,1.1,2.1v62.3C287.8,468.1,286.6,469.2,285.3,469.2z M229.3,464.2h53.5v-58.5l-26.6-17.9l-26.9,17.9       V464.2z" fill="#244964"/></g></g><g><g><path d="M268.8,469.2h-25.6c-1.4,0-2.5-1.1-2.5-2.5v-38.1c0-8.5,6.9-15.3,15.3-15.3c8.5,0,15.3,6.9,15.3,15.3       v38.1C271.3,468.1,270.2,469.2,268.8,469.2z M245.7,464.2h20.6v-35.6c0-5.7-4.6-10.3-10.3-10.3c-5.7,0-10.3,4.6-10.3,10.3       V464.2z" fill="#244964"/></g></g></g></g><g><g><path d="M261.5,58.7c0.9,2.4,1.1,5,1.3,7.6c0.1,0.8,0.2,1.7,0.3,2.5c115.6,3.8,208.4,99,208.4,215.5     c0,118.9-96.7,215.6-215.6,215.6c-118.9,0-215.6-96.7-215.6-215.6c0-116.1,92.3-211.1,207.3-215.4c1-2.8,1.1-6,1-8.8     c0-0.5,0-0.9,0.1-1.3C127.7,62.6,30.3,162.3,30.3,284.3C30.3,408.8,131.6,510,256,510c124.4,0,225.7-101.2,225.7-225.7     C481.7,161.8,383.4,61.7,261.5,58.7z" fill="#244964"/></g></g></g></svg>