<?xml version="1.0" ?><!DOCTYPE svg  PUBLIC '-//W3C//DTD SVG 1.1//EN'  'http://www.w3.org/Graphics/SVG/1.1/DTD/svg11.dtd'><svg enable-background="new 0 0 512 512" id="Layer_1" version="1.1" viewBox="0 0 512 512" xml:space="preserve" xmlns="http://www.w3.org/2000/svg" xmlns:xlink="http://www.w3.org/1999/xlink"><g><g><circle cx="256" cy="293.6" fill="#D0E5F6" r="211.5"/></g><path d="M432.4,292.6h-37.5c-1.3,0-2.4-1.1-2.4-2.4s1.1-2.4,2.4-2.4h37.5c1.3,0,2.4,1.1,2.4,2.4   S433.7,292.6,432.4,292.6z" fill="#FFFFFF"/><path d="M352.8,331.1h-37.5c-1.3,0-2.4-1.1-2.4-2.4c0-1.3,1.1-2.4,2.4-2.4h37.5c1.3,0,2.4,1.1,2.4,2.4   C355.2,330,354.1,331.1,352.8,331.1z" fill="#FFFFFF"/><path d="M394,151.7h-37.5c-1.3,0-2.4-1.1-2.4-2.4c0-1.3,1.1-2.4,2.4-2.4H394c1.3,0,2.4,1.1,2.4,2.4   C396.4,150.6,395.4,151.7,394,151.7z" fill="#FFFFFF"/><path d="M133.6,265.3H96.1c-1.3,0-2.4-1.1-2.4-2.4c0-1.3,1.1-2.4,2.4-2.4h37.5c1.3,0,2.4,1.1,2.4,2.4   C136.1,264.2,135,265.3,133.6,265.3z" fill="#FFFFFF"/><path d="M198.2,301h-37.5c-1.3,0-2.4-1.1-2.4-2.4s1.1-2.4,2.4-2.4h37.5c1.3,0,2.4,1.1,2.4,2.4S199.5,301,198.2,301z   " fill="#FFFFFF"/><path d="M202.1,157.9h-37.5c-1.3,0-2.4-1.1-2.4-2.4c0-1.3,1.1-2.4,2.4-2.4h37.5c1.3,0,2.4,1.1,2.4,2.4   C204.5,156.9,203.4,157.9,202.1,157.9z" fill="#FFFFFF"/><path d="M465.7,262.5c0.1-2-0.1-4.1,0-6.1c-0.3,4.5,0,0.3-0.6-1.6c-2.4-8.5-6.6-16.2-8.1-25   c-0.2-1.1-0.3-2.2-0.4-3.3c-4.2,0.3-8.2,1.3-11.9,3.1c-7.1-9.2-18.3-15.1-30.8-15.1c-19.7,0-36,14.6-38.6,33.6c0,0,0,0,0,0   c-11.9,0-21.5,9.3-22.2,21h112C465.4,266.8,465.6,264.7,465.7,262.5z" fill="#FFFFFF"/><path d="M179.4,219.4c-1.1-3.1-4.1-5.4-7.6-5.4c-0.6,0-1.2,0.1-1.8,0.2c0-0.1,0-0.1,0-0.2   c0-10.3-8.4-18.7-18.7-18.7c-2.8,0-5.5,0.6-7.9,1.8c-4-5.2-10.3-8.5-17.4-8.5c-11.1,0-20.3,8.3-21.8,19c0,0,0,0,0,0   c-6.7,0-12.2,5.2-12.5,11.9H179.4z" fill="#FFFFFF"/><path d="M181.4,356.3c-1.1-3.1-4.1-5.4-7.6-5.4c-0.6,0-1.2,0.1-1.8,0.2c0-0.1,0-0.1,0-0.2   c0-10.3-8.4-18.7-18.7-18.7c-2.8,0-5.5,0.6-7.9,1.8c-4-5.2-10.3-8.5-17.4-8.5c-11.1,0-20.3,8.3-21.8,19c0,0,0,0,0,0   c-6.7,0-12.2,5.2-12.5,11.9H181.4z" fill="#FFFFFF"/><path d="M421.7,409.7c-1.1-3.1-4.1-5.4-7.6-5.4c-0.6,0-1.2,0.1-1.8,0.2c0-0.1,0-0.1,0-0.2   c0-10.3-8.4-18.7-18.7-18.7c-2.8,0-5.5,0.6-7.9,1.8c-4-5.2-10.3-8.5-17.4-8.5c-11.1,0-20.3,8.3-21.8,19c0,0,0,0,0,0   c-6.7,0-12.2,5.2-12.5,11.9H421.7z" fill="#FFFFFF"/><g><g><g><g><rect fill="#F5F7F9" height="121.4" width="129" x="191.5" y="262"/></g><g><rect fill="#FFFFFF" height="7.7" width="129" x="191.5" y="352.9"/></g><g><path d="M216.5,297.4c-5.7,0-10.3,4.6-10.3,10.3v45.9h20.5v-45.9C226.7,302,222.1,297.4,216.5,297.4z" fill="#D88B75"/></g><g><path d="M256,297.4c-5.7,0-10.3,4.6-10.3,10.3v45.9h20.5v-45.9C266.3,302,261.7,297.4,256,297.4z" fill="#D88B75"/></g><g><path d="M295.5,297.4c-5.7,0-10.3,4.6-10.3,10.3v45.9h20.5v-45.9C305.8,302,301.2,297.4,295.5,297.4z" fill="#D88B75"/></g><g><path d="M226.7,352.8v-37.9c0-5.7-4.6-10.3-10.3-10.3c-5.7,0-10.3,4.6-10.3,10.3v37.9H226.7z" fill="#F59B80"/></g><g><path d="M266.3,352.8v-37.9c0-5.7-4.6-10.3-10.3-10.3c-5.7,0-10.3,4.6-10.3,10.3v37.9H266.3z" fill="#F59B80"/></g><g><path d="M305.8,352.8v-37.9c0-5.7-4.6-10.3-10.3-10.3c-5.7,0-10.3,4.6-10.3,10.3v37.9H305.8z" fill="#F59B80"/></g><g><path d="M286.8,206c-3.6-13.7-16-23.7-30.8-23.7c-14.8,0-27.2,10.1-30.8,23.7h-24.7v39.3h110.8V206H286.8z" fill="#F5F7F9"/></g><g><path d="M286.8,206c-3.6-13.7-16-23.7-30.8-23.7c-14.8,0-27.2,10.1-30.8,23.7h-24.7v7.2h24.7       c3.6-13.7,16-23.7,30.8-23.7c14.8,0,27.2,10.1,30.8,23.7h24.7V206H286.8z" fill="#FFFFFF"/></g><g><rect fill="#BDC4CE" height="11.1" width="129" x="191.5" y="262"/></g><g><polygon fill="#D3DAE2" points="328,245.3 184,245.3 188.8,262 323.2,262      "/></g><g><path d="M206.5,498.8c2.4,0.9,4.8,1.6,7.2,2.2c0.5,0.1,4.4,0.8,5.3,1c0.1,0,0.1,0,0.2,0       c2.8,0.4,5.5,0.7,8.3,1.1c2.3,0.4,4.6,0.7,6.9,1.2c1.9,0.4,3.7,0.9,5.6,1.3c-0.7-0.2,1.3,0,3.1,0.2c0.7-0.1,1.5-0.2,1.8-0.2       c5.5-0.8,11-1.6,16.4-2.3c6.7-0.9,13.3-1.2,20.1-1.5c3.5-0.2,7-0.3,10.5-0.6c1.6-0.1,3.2-0.3,4.8-0.4c0.2,0,0.3,0,0.5,0       c3.1-0.6,6.2-1.2,9.2-2v-84.3H205.7v84.1C206,498.6,206.2,498.7,206.5,498.8z" fill="#F5F7F9"/></g><g><rect fill="#E8E8E9" height="8.6" width="100.6" x="205.7" y="414.4"/></g><g><polygon fill="#D3DAE2" points="320.5,383.4 191.5,383.4 205,414.4 307,414.4      "/></g><g><polygon fill="#BDC4CE" points="315.8,394.3 320.5,383.4 191.5,383.4 196.2,394.3      "/></g><g><circle cx="256" cy="214.1" fill="#3E5A71" r="19.6"/></g><g><polygon fill="#F4B7A5" points="256,10.7 256,44.7 314.6,27.7      "/></g><g><path d="M226.4,431.3L226.4,431.3c-4.5,0-8.2,3.7-8.2,8.2v15h16.5v-15C234.6,435,230.9,431.3,226.4,431.3z" fill="#6CBFDC"/></g><g><path d="M256,431.3L256,431.3c-4.5,0-8.2,3.7-8.2,8.2v15h16.5v-15C264.2,435,260.5,431.3,256,431.3z" fill="#6CBFDC"/></g><g><path d="M285.6,431.3L285.6,431.3c-4.5,0-8.2,3.7-8.2,8.2v15h16.5v-15C293.9,435,290.2,431.3,285.6,431.3z" fill="#6CBFDC"/></g><g><path d="M226.4,472.2L226.4,472.2c-4.5,0-8.2,3.7-8.2,8.2v15h16.5v-15C234.6,475.9,230.9,472.2,226.4,472.2z" fill="#6CBFDC"/></g><g><path d="M256,472.2L256,472.2c-4.5,0-8.2,3.7-8.2,8.2v15h16.5v-15C264.2,475.9,260.5,472.2,256,472.2z" fill="#6CBFDC"/></g><g><path d="M285.6,472.2L285.6,472.2c-4.5,0-8.2,3.7-8.2,8.2v15h16.5v-15C293.9,475.9,290.2,472.2,285.6,472.2z" fill="#6CBFDC"/></g><g><path d="M234.6,454.6v-10.3c0-4.5-3.7-8.2-8.2-8.2h0c-4.5,0-8.2,3.7-8.2,8.2v10.3H234.6z" fill="#7FCEF2"/></g><g><path d="M264.2,454.6v-10.3c0-4.5-3.7-8.2-8.2-8.2h0c-4.5,0-8.2,3.7-8.2,8.2v10.3H264.2z" fill="#7FCEF2"/></g><g><path d="M293.9,454.6v-10.3c0-4.5-3.7-8.2-8.2-8.2h0c-4.5,0-8.2,3.7-8.2,8.2v10.3H293.9z" fill="#7FCEF2"/></g><g><rect fill="#BDC4CE" height="6.9" width="16.5" x="218.1" y="454.6"/></g><g><rect fill="#BDC4CE" height="6.9" width="16.5" x="247.8" y="454.6"/></g><g><rect fill="#BDC4CE" height="6.9" width="16.5" x="277.4" y="454.6"/></g><g><path d="M219,501.9c0.1,0,0.1,0,0.2,0c1,0.1,2,0.3,3,0.4h12.4v-6.9h-16.5v6.3       C218.5,501.8,218.8,501.9,219,501.9z" fill="#BDC4CE"/></g><g><rect fill="#BDC4CE" height="6.9" width="16.5" x="247.8" y="495.5"/></g><g><path d="M281.3,501.7c3.5-0.2,7-0.3,10.5-0.6c0.7-0.1,1.4-0.1,2-0.2v-5.5h-16.5v6.5       C278.7,501.9,280,501.8,281.3,501.7z" fill="#BDC4CE"/></g><g><path d="M234.6,495.5v-10.2c0-4.5-3.7-8.2-8.2-8.2h0c-4.5,0-8.2,3.7-8.2,8.2v10.2H234.6z" fill="#7FCEF2"/></g><g><path d="M264.2,495.5v-10.2c0-4.5-3.7-8.2-8.2-8.2h0c-4.5,0-8.2,3.7-8.2,8.2v10.2H264.2z" fill="#7FCEF2"/></g><g><path d="M293.9,495.5v-10.2c0-4.5-3.7-8.2-8.2-8.2h0c-4.5,0-8.2,3.7-8.2,8.2v10.2H293.9z" fill="#7FCEF2"/></g><g><path d="M250.7,104.3l-10.3,82.1c4.6-2.6,9.9-4.1,15.6-4.1c5.7,0,11,1.5,15.6,4.1l-10.3-82.1H250.7z" fill="#96C8B4"/></g><g><path d="M241.9,104.3L207.4,206h17.9c2.2-8.4,7.7-15.4,15.1-19.6l10.3-82.1H241.9z" fill="#7EB19A"/></g><g><path d="M270.1,104.3h-8.7l10.3,82.1c7.4,4.2,12.9,11.2,15.1,19.6h17.9L270.1,104.3z" fill="#BADACF"/></g></g><g><g><path d="M184,247.7c-1.3,0-2.4-1.1-2.4-2.4v-19.6c0-1.3,1.1-2.4,2.4-2.4c1.3,0,2.4,1.1,2.4,2.4v19.6       C186.4,246.6,185.3,247.7,184,247.7z" fill="#244964"/></g><g><path d="M320.5,385.8h-129c-1.3,0-2.4-1.1-2.4-2.4V262c0-1.3,1.1-2.4,2.4-2.4h129c1.3,0,2.4,1.1,2.4,2.4v121.4       C322.9,384.7,321.9,385.8,320.5,385.8z M193.9,381h124.2V264.4H193.9V381z" fill="#244964"/></g><g><path d="M323.2,264.4H188.8c-1.1,0-2-0.7-2.3-1.7l-4.8-16.7c-0.2-0.7-0.1-1.5,0.4-2.1c0.5-0.6,1.2-1,1.9-1h144       c0.8,0,1.5,0.4,1.9,1c0.5,0.6,0.6,1.4,0.4,2.1l-4.8,16.7C325.2,263.7,324.3,264.4,323.2,264.4z M190.6,259.6h130.8l3.4-11.9       H187.2L190.6,259.6z" fill="#244964"/></g><g><path d="M206.5,498.8c0.6,0.2,1.1,0.4,1.7,0.6v-82.5h95.7v82.5c1.1-0.2,2.2-0.5,3.2-0.8c0.1,0,0.4-0.1,0.7-0.2       c0.3-0.1,0.6-0.2,0.9-0.3v-83.5c0-1.3-1.1-2.4-2.4-2.4H205.7c-1.3,0-2.4,1.1-2.4,2.4v83.5C204.4,498.1,205.4,498.4,206.5,498.8       z" fill="#244964"/></g><g><path d="M307,416.8H205c-1,0-1.8-0.6-2.2-1.4l-13.5-31c-0.3-0.7-0.3-1.6,0.2-2.3c0.4-0.7,1.2-1.1,2-1.1h129       c0.8,0,1.6,0.4,2,1.1c0.4,0.7,0.5,1.5,0.2,2.3l-13.5,31C308.8,416.3,308,416.8,307,416.8z M206.6,412h98.8l11.4-26.2H195.2       L206.6,412z" fill="#244964"/></g><g><path d="M256,234.9c-11.5,0-20.8-9.3-20.8-20.8c0-11.5,9.3-20.8,20.8-20.8c11.5,0,20.8,9.3,20.8,20.8       C276.8,225.6,267.5,234.9,256,234.9z M256,195.7c-10.1,0-18.4,8.3-18.4,18.4c0,10.1,8.3,18.4,18.4,18.4       c10.1,0,18.4-8.3,18.4-18.4C274.4,203.9,266.1,195.7,256,195.7z" fill="#244964"/></g><g><path d="M328,247.7c-1.3,0-2.4-1.1-2.4-2.4v-19.6c0-1.3,1.1-2.4,2.4-2.4c1.3,0,2.4,1.1,2.4,2.4v19.6       C330.4,246.6,329.3,247.7,328,247.7z" fill="#244964"/></g><g><path d="M256,106.7c-1.3,0-2.4-1.1-2.4-2.4V4.4c0-1.3,1.1-2.4,2.4-2.4s2.4,1.1,2.4,2.4v99.9       C258.4,105.6,257.3,106.7,256,106.7z" fill="#244964"/></g><g><path d="M256,47.1c-0.5,0-1-0.2-1.4-0.5c-0.6-0.5-1-1.2-1-1.9v-34c0-0.8,0.4-1.5,1-1.9c0.6-0.5,1.4-0.6,2.1-0.4       l58.6,17c1,0.3,1.7,1.2,1.7,2.3c0,1.1-0.7,2-1.7,2.3l-58.6,17C256.4,47,256.2,47.1,256,47.1z M258.4,13.9v27.5l47.5-13.8       L258.4,13.9z" fill="#244964"/></g><g><path d="M320.5,287h-129c-0.7,0-1.2-0.5-1.2-1.2c0-0.7,0.5-1.2,1.2-1.2h129c0.7,0,1.2,0.5,1.2,1.2       C321.7,286.5,321.2,287,320.5,287z" fill="#244964"/></g><g><path d="M320.5,354.7h-129c-0.7,0-1.2-0.5-1.2-1.2s0.5-1.2,1.2-1.2h129c0.7,0,1.2,0.5,1.2,1.2       S321.2,354.7,320.5,354.7z" fill="#244964"/></g><g><g><path d="M205.3,287c-0.7,0-1.2-0.5-1.2-1.2v-12.7c0-0.7,0.5-1.2,1.2-1.2s1.2,0.5,1.2,1.2v12.7        C206.5,286.5,205.9,287,205.3,287z" fill="#244964"/></g><g><path d="M216.5,287c-0.7,0-1.2-0.5-1.2-1.2v-12.7c0-0.7,0.5-1.2,1.2-1.2s1.2,0.5,1.2,1.2v12.7        C217.7,286.5,217.1,287,216.5,287z" fill="#244964"/></g><g><path d="M227.7,287c-0.7,0-1.2-0.5-1.2-1.2v-12.7c0-0.7,0.5-1.2,1.2-1.2s1.2,0.5,1.2,1.2v12.7        C228.9,286.5,228.3,287,227.7,287z" fill="#244964"/></g></g><g><g><path d="M244.8,287c-0.7,0-1.2-0.5-1.2-1.2v-12.7c0-0.7,0.5-1.2,1.2-1.2c0.7,0,1.2,0.5,1.2,1.2v12.7        C246,286.5,245.5,287,244.8,287z" fill="#244964"/></g><g><path d="M256,287c-0.7,0-1.2-0.5-1.2-1.2v-12.7c0-0.7,0.5-1.2,1.2-1.2c0.7,0,1.2,0.5,1.2,1.2v12.7        C257.2,286.5,256.7,287,256,287z" fill="#244964"/></g><g><path d="M267.2,287c-0.7,0-1.2-0.5-1.2-1.2v-12.7c0-0.7,0.5-1.2,1.2-1.2s1.2,0.5,1.2,1.2v12.7        C268.4,286.5,267.9,287,267.2,287z" fill="#244964"/></g></g><g><g><path d="M284.3,287c-0.7,0-1.2-0.5-1.2-1.2v-12.7c0-0.7,0.5-1.2,1.2-1.2s1.2,0.5,1.2,1.2v12.7        C285.5,286.5,285,287,284.3,287z" fill="#244964"/></g><g><path d="M295.5,287c-0.7,0-1.2-0.5-1.2-1.2v-12.7c0-0.7,0.5-1.2,1.2-1.2c0.7,0,1.2,0.5,1.2,1.2v12.7        C296.7,286.5,296.2,287,295.5,287z" fill="#244964"/></g><g><path d="M306.7,287c-0.7,0-1.2-0.5-1.2-1.2v-12.7c0-0.7,0.5-1.2,1.2-1.2s1.2,0.5,1.2,1.2v12.7        C307.9,286.5,307.4,287,306.7,287z" fill="#244964"/></g></g><g><path d="M226.7,354.7h-20.5c-0.7,0-1.2-0.5-1.2-1.2v-45.9c0-6.3,5.1-11.5,11.5-11.5c6.3,0,11.5,5.1,11.5,11.5       v45.9C227.9,354.2,227.4,354.7,226.7,354.7z M207.4,352.3h18.1v-44.7c0-5-4.1-9.1-9.1-9.1c-5,0-9.1,4.1-9.1,9.1V352.3z" fill="#244964"/></g><g><path d="M266.3,354.7h-20.5c-0.7,0-1.2-0.5-1.2-1.2v-45.9c0-6.3,5.1-11.5,11.5-11.5c6.3,0,11.5,5.1,11.5,11.5       v45.9C267.5,354.2,266.9,354.7,266.3,354.7z M246.9,352.3h18.1v-44.7c0-5-4.1-9.1-9.1-9.1c-5,0-9.1,4.1-9.1,9.1V352.3z" fill="#244964"/></g><g><path d="M305.8,354.7h-20.5c-0.7,0-1.2-0.5-1.2-1.2v-45.9c0-6.3,5.1-11.5,11.5-11.5c6.3,0,11.5,5.1,11.5,11.5       v45.9C307,354.2,306.5,354.7,305.8,354.7z M286.5,352.3h18.1v-44.7c0-5-4.1-9.1-9.1-9.1c-5,0-9.1,4.1-9.1,9.1V352.3z" fill="#244964"/></g><g><g><path d="M217.3,415.9c-0.5,0-1-0.3-1.2-0.9l-6.6-23.3c-0.2-0.6,0.2-1.3,0.8-1.5c0.6-0.2,1.3,0.2,1.5,0.8        l6.6,23.3c0.2,0.6-0.2,1.3-0.8,1.5C217.5,415.9,217.4,415.9,217.3,415.9z" fill="#244964"/></g><g><path d="M232.8,415.9c-0.6,0-1.1-0.4-1.2-1l-3.9-23.3c-0.1-0.7,0.3-1.3,1-1.4c0.7-0.1,1.3,0.3,1.4,1l3.9,23.3        c0.1,0.7-0.3,1.3-1,1.4C232.9,415.9,232.8,415.9,232.8,415.9z" fill="#244964"/></g><g><path d="M248.3,415.9c-0.6,0-1.2-0.5-1.2-1.1l-1.3-23.3c0-0.7,0.5-1.2,1.1-1.3c0.7,0,1.2,0.5,1.3,1.1l1.3,23.3        C249.5,415.3,249,415.8,248.3,415.9C248.3,415.9,248.3,415.9,248.3,415.9z" fill="#244964"/></g><g><path d="M263.7,415.9C263.7,415.9,263.7,415.9,263.7,415.9c-0.7,0-1.2-0.6-1.2-1.3l1.3-23.3        c0-0.7,0.6-1.2,1.3-1.1c0.7,0,1.2,0.6,1.1,1.3l-1.3,23.3C264.9,415.4,264.4,415.9,263.7,415.9z" fill="#244964"/></g><g><path d="M279.2,415.9c-0.1,0-0.1,0-0.2,0c-0.7-0.1-1.1-0.7-1-1.4l3.9-23.3c0.1-0.7,0.7-1.1,1.4-1        c0.7,0.1,1.1,0.7,1,1.4l-3.9,23.3C280.3,415.5,279.8,415.9,279.2,415.9z" fill="#244964"/></g><g><path d="M294.7,415.9c-0.1,0-0.2,0-0.3,0c-0.6-0.2-1-0.8-0.8-1.5l6.6-23.3c0.2-0.6,0.8-1,1.5-0.8        c0.6,0.2,1,0.8,0.8,1.5l-6.6,23.3C295.7,415.5,295.3,415.9,294.7,415.9z" fill="#244964"/></g></g><g><g><path d="M234.6,455.8h-16.5c-0.7,0-1.2-0.5-1.2-1.2v-15c0-5.2,4.2-9.4,9.4-9.4c5.2,0,9.4,4.2,9.4,9.4v15        C235.8,455.2,235.3,455.8,234.6,455.8z M219.3,453.3h14.1v-13.8c0-3.9-3.2-7-7-7s-7,3.2-7,7V453.3z" fill="#244964"/></g><g><path d="M264.2,455.8h-16.5c-0.7,0-1.2-0.5-1.2-1.2v-15c0-5.2,4.2-9.4,9.4-9.4c5.2,0,9.4,4.2,9.4,9.4v15        C265.4,455.2,264.9,455.8,264.2,455.8z M249,453.3H263v-13.8c0-3.9-3.2-7-7-7c-3.9,0-7,3.2-7,7V453.3z" fill="#244964"/></g><g><path d="M293.9,455.8h-16.5c-0.7,0-1.2-0.5-1.2-1.2v-15c0-5.2,4.2-9.4,9.4-9.4c5.2,0,9.4,4.2,9.4,9.4v15        C295.1,455.2,294.5,455.8,293.9,455.8z M278.6,453.3h14.1v-13.8c0-3.9-3.2-7-7-7c-3.9,0-7,3.2-7,7V453.3z" fill="#244964"/></g></g><g><g><path d="M234.6,496.7h-16.5c-0.7,0-1.2-0.5-1.2-1.2v-15c0-5.2,4.2-9.4,9.4-9.4c5.2,0,9.4,4.2,9.4,9.4v15        C235.8,496.1,235.3,496.7,234.6,496.7z M219.3,494.3h14.1v-13.8c0-3.9-3.2-7-7-7s-7,3.2-7,7V494.3z" fill="#244964"/></g><g><path d="M264.2,496.7h-16.5c-0.7,0-1.2-0.5-1.2-1.2v-15c0-5.2,4.2-9.4,9.4-9.4c5.2,0,9.4,4.2,9.4,9.4v15        C265.4,496.1,264.9,496.7,264.2,496.7z M249,494.3H263v-13.8c0-3.9-3.2-7-7-7c-3.9,0-7,3.2-7,7V494.3z" fill="#244964"/></g><g><path d="M293.9,496.7h-16.5c-0.7,0-1.2-0.5-1.2-1.2v-15c0-5.2,4.2-9.4,9.4-9.4c5.2,0,9.4,4.2,9.4,9.4v15        C295.1,496.1,294.5,496.7,293.9,496.7z M278.6,494.3h14.1v-13.8c0-3.9-3.2-7-7-7c-3.9,0-7,3.2-7,7V494.3z" fill="#244964"/></g></g><g><path d="M311.4,247.7H200.6c-1.3,0-2.4-1.1-2.4-2.4V206c0-1.3,1.1-2.4,2.4-2.4h22.9       c4.5-14.1,17.6-23.7,32.6-23.7c14.9,0,28.1,9.7,32.6,23.7h22.9c1.3,0,2.4,1.1,2.4,2.4v39.3       C313.8,246.6,312.8,247.7,311.4,247.7z M203,242.9h106v-34.4h-22.3c-1.1,0-2.1-0.7-2.3-1.8c-3.4-12.9-15.1-21.9-28.4-21.9       s-25.1,9-28.4,21.9c-0.3,1.1-1.2,1.8-2.3,1.8H203V242.9z" fill="#244964"/></g><g><path d="M304.6,208.5h-17.9c-1.1,0-2.1-0.7-2.3-1.8c-3.4-12.9-15.1-21.9-28.4-21.9s-25.1,9-28.4,21.9       c-0.3,1.1-1.2,1.8-2.3,1.8h-17.9c-0.8,0-1.5-0.4-2-1c-0.5-0.6-0.6-1.4-0.3-2.2l34.5-101.8c0.3-1,1.2-1.6,2.3-1.6h28.1       c1,0,1.9,0.7,2.3,1.6l34.5,101.8c0.3,0.7,0.1,1.5-0.3,2.2C306.1,208.1,305.4,208.5,304.6,208.5z M288.6,203.6h12.7l-32.9-96.9       h-24.7l-32.9,96.9h12.7c4.5-14.1,17.6-23.7,32.6-23.7C270.9,179.9,284.1,189.6,288.6,203.6z" fill="#244964"/></g><g><path d="M264.2,215.3H256c-0.7,0-1.2-0.5-1.2-1.2v-12.4c0-0.7,0.5-1.2,1.2-1.2c0.7,0,1.2,0.5,1.2,1.2v11.2h7       c0.7,0,1.2,0.5,1.2,1.2S264.9,215.3,264.2,215.3z" fill="#F5F7F9"/></g><g><g><path d="M240.4,187.7c-0.1,0-0.1,0-0.2,0c-0.7-0.1-1.1-0.7-1-1.3l10.3-82.2c0.1-0.7,0.7-1.1,1.3-1        c0.7,0.1,1.1,0.7,1,1.3l-10.3,82.2C241.5,187.3,241,187.7,240.4,187.7z" fill="#244964"/></g><g><path d="M271.6,187.7c-0.6,0-1.1-0.4-1.2-1.1l-10.3-82.2c-0.1-0.7,0.4-1.3,1-1.3c0.7-0.1,1.3,0.4,1.3,1        l10.3,82.2c0.1,0.7-0.4,1.3-1,1.3C271.7,187.7,271.7,187.7,271.6,187.7z" fill="#244964"/></g></g></g></g><g><path d="M245.7,232h-45.1c-0.7,0-1.2-0.5-1.2-1.2s0.5-1.2,1.2-1.2h45.1c0.7,0,1.2,0.5,1.2,1.2     S246.4,232,245.7,232z" fill="#244964"/></g><g><path d="M311.6,232h-45.2c-0.7,0-1.2-0.5-1.2-1.2s0.5-1.2,1.2-1.2h45.2c0.7,0,1.2,0.5,1.2,1.2     S312.3,232,311.6,232z" fill="#244964"/></g></g><g><path d="M256,510c-119.3,0-216.4-97.1-216.4-216.4c0-119.3,97.1-216.4,216.4-216.4c119.3,0,216.4,97.1,216.4,216.4    C472.4,412.9,375.3,510,256,510z M256,86.9c-114,0-206.7,92.7-206.7,206.7c0,114,92.7,206.7,206.7,206.7    c114,0,206.7-92.7,206.7-206.7C462.7,179.7,370,86.9,256,86.9z" fill="#244964"/></g></g></svg>