<?xml version="1.0" ?><!DOCTYPE svg  PUBLIC '-//W3C//DTD SVG 1.1//EN'  'http://www.w3.org/Graphics/SVG/1.1/DTD/svg11.dtd'><svg enable-background="new 0 0 512 512" id="Layer_1" version="1.1" viewBox="0 0 512 512" xml:space="preserve" xmlns="http://www.w3.org/2000/svg" xmlns:xlink="http://www.w3.org/1999/xlink"><g><circle cx="256" cy="256" fill="#D0E5F6" r="248.2"/><path d="M50.6,395.4c44.7,65.7,120,108.8,205.4,108.8s160.7-43.1,205.4-108.8H50.6z" fill="#64ADD5"/><g><path d="M384.4,466.7h-104c-0.8,0-1.5,0.8-1.5,1.9s0.7,1.9,1.5,1.9h100.3C381.8,469.1,383,467.9,384.4,466.7z" fill="#D0E5F6"/></g><g><path d="M196.9,470.5h-8.1c-0.8,0-1.5-0.8-1.5-1.9s0.7-1.9,1.5-1.9h8.1c0.8,0,1.5,0.8,1.5,1.9    S197.7,470.5,196.9,470.5z" fill="#D0E5F6"/></g><g><path d="M300.8,414.5h-8.1c-0.8,0-1.5-0.8-1.5-1.9s0.7-1.9,1.5-1.9h8.1c0.8,0,1.5,0.8,1.5,1.9    S301.6,414.5,300.8,414.5z" fill="#D0E5F6"/></g><g><path d="M331.1,414.5H323c-0.8,0-1.5-0.8-1.5-1.9s0.7-1.9,1.5-1.9h8.1c0.8,0,1.5,0.8,1.5,1.9    S331.9,414.5,331.1,414.5z" fill="#D0E5F6"/></g><g><path d="M419.6,414.5h-8.1c-0.8,0-1.5-0.8-1.5-1.9s0.7-1.9,1.5-1.9h8.1c0.8,0,1.5,0.8,1.5,1.9    S420.4,414.5,419.6,414.5z" fill="#D0E5F6"/></g><g><path d="M280.6,414.5h-8.1c-0.8,0-1.5-0.8-1.5-1.9s0.7-1.9,1.5-1.9h8.1c0.8,0,1.5,0.8,1.5,1.9    S281.4,414.5,280.6,414.5z" fill="#D0E5F6"/></g><g><path d="M419.2,438.9c0.7-0.6,1.1-1,1.3-1.1c0.5-0.6,1-1.1,1.4-1.6c0.3-0.3,0.6-0.7,0.9-1h-69.9    c-0.8,0-1.5,0.8-1.5,1.9s0.7,1.9,1.5,1.9L419.2,438.9C419.2,438.9,419.2,438.9,419.2,438.9z" fill="#D0E5F6"/></g><g><path d="M147.6,470.5h24.3c0.8,0,1.5-0.8,1.5-1.9s-0.7-1.9-1.5-1.9H140C142.6,468,145.1,469.2,147.6,470.5z" fill="#D0E5F6"/></g><g><path d="M321.3,438.9h-49c-0.8,0-1.5-0.8-1.5-1.9s0.7-1.9,1.5-1.9h49c0.8,0,1.5,0.8,1.5,1.9    S322.1,438.9,321.3,438.9z" fill="#D0E5F6"/></g><g><path d="M232.3,438.9h-91.4c-0.8,0-1.5-0.8-1.5-1.9s0.7-1.9,1.5-1.9h91.4c0.8,0,1.5,0.8,1.5,1.9    S233.1,438.9,232.3,438.9z" fill="#D0E5F6"/></g><g><path d="M119.2,414.5H91.4c-0.8,0-1.5-0.8-1.5-1.9s0.7-1.9,1.5-1.9h27.9c0.8,0,1.5,0.8,1.5,1.9    S120,414.5,119.2,414.5z" fill="#D0E5F6"/></g><g><path d="M389.9,414.5H362c-0.8,0-1.5-0.8-1.5-1.9s0.7-1.9,1.5-1.9h27.9c0.8,0,1.5,0.8,1.5,1.9    S390.7,414.5,389.9,414.5z" fill="#D0E5F6"/></g><g><path d="M206.8,414.5h-27.9c-0.8,0-1.5-0.8-1.5-1.9s0.7-1.9,1.5-1.9h27.9c0.8,0,1.5,0.8,1.5,1.9    S207.6,414.5,206.8,414.5z" fill="#D0E5F6"/></g><g><g><polygon fill="#3E5A71" points="34.7,321.9 73.8,264.7 96.3,325.7    "/></g><g><polygon fill="#9FACB8" points="131.4,185.5 140.8,264.7 192.1,264.7 171.4,210.5    "/></g><g><path d="M161.8,239.4c0,0-57.4-28.6-127.1-17.2l52.5,91.5h11.1l9.4-15.5l43.5,9l7.4,19.6l14.8,6.5l18.9-22.9     L161.8,239.4z" fill="#FFFFFF"/></g><g><polygon fill="#3E5A71" points="98.2,313.8 107.1,299.2 151.1,307.2 158.9,328.7 113.4,313.8    "/></g><g opacity="0.3"><path d="M161.8,239.4c0,0-21.2-10.5-53.4-16.3c9.9,12.2,15.2,36.6-27.1,80.3l5.9,10.3h11.1l9.4-15.5l43.5,9     l7.4,19.6l14.8,6.5l18.9-22.9L161.8,239.4z" fill="#D3DAE2"/></g><g><polygon fill="#9FACB8" points="202.8,128.3 230.8,268 292.6,250 259.6,176.4    "/></g><g><path d="M259.4,236.6c0,0-38.5-47.1-127.9-51.1c0,0,42.6,98,41.8,147.9h18l11.5-19.6l50,9.8l9.8,27h19.7     L259.4,236.6z" fill="#FFFFFF"/></g><g><path d="M483.8,348.8c2.9-7.8,5.5-15.7,7.8-23.7c4.3-15,7.4-30.3,9.8-45.7c0-0.1,0-0.2,0-0.2c0.2-2,0.5-4,0.7-6     c0.4-4,0.8-8,1.1-12c0.5-7.8,0.8-15.6,0.8-23.4c0-1.4,0.1-2.7,0.3-4.1c-72.3-9-121.9,32.8-121.9,32.8l100.8,84.1     C483.3,349.9,483.6,349.4,483.8,348.8z" fill="#FFFFFF"/></g><g><path d="M262.6,350.5l-43.2-17.2h-46.2l-59.9-19.6H87.2l-61.7,9.6l-1.6,14.4c1.3,5.1,2.8,10.1,4.4,15.1     c0.9,2.9,1.9,5.7,3,8.5c0.3,0.7,2,5.3,2.7,7.2c0.6,1.4,3,6.7,3.4,7.5c1.3,2.7,2.6,5.4,4,8c1.3,2.5,2.7,5,4.2,7.4     c0.1,0.2,0.3,0.4,0.5,0.7h415.4c6-9.2,11.4-18.7,16.1-28.7c0.4-0.9,3.7-8.5,3.6-8c0.7-1.7,1.3-3.3,1.9-5H262.6z" fill="#F4B7A5"/></g><g opacity="0.3"><path d="M483.8,348.8c0.6-1.6,1.2-3.2,1.7-4.8c-22.4-22.2-53.7-56.2-56.4-75.9c-1.6-12,0.8-21.1,4.3-27.8     c-31.9,10.1-51.1,26.2-51.1,26.2l100.8,84.1C483.3,349.9,483.6,349.4,483.8,348.8z" fill="#D3DAE2"/></g><g><polygon fill="#3E5A71" points="192,332.2 202.8,313.8 252.8,323.6 262.6,350.5 219.4,333.4    "/></g><g><polygon fill="#3E5A71" points="295.8,349.9 344.9,305.7 393.1,327.8 444.3,323.5 476,350.5    "/></g><g><path d="M483.1,350.5C483.1,350.5,483.1,350.5,483.1,350.5l-100.8-85.8l-95.1,85.8h12.7l36-31.3l53.9,14.2v17.2     h8.4v-17.2l45-5.2l29.2,22.4H483.1z" fill="#BDC4CE"/></g><g opacity="0.3"><path d="M259.4,236.6c0,0-22.4-27.3-72.6-42.1c21.8,25.3,35.2,69-11.2,138.8h15.8l11.5-19.6l50,9.8l9.8,27h19.7     L259.4,236.6z" fill="#D3DAE2"/></g><g><path d="M202.8,128.3c0,0,115.6,7.4,179.6,136.4l-95.1,85.8h-13.9C273.3,350.5,263.5,206.7,202.8,128.3z" fill="#FFFFFF"/></g><g opacity="0.3"><path d="M273.3,150.5c0.3,0.2,74.8,70.8,48.5,168.9l60.6-54.6C351.7,202.9,309.2,169,273.3,150.5z" fill="#D3DAE2"/></g><g opacity="0.5"><path d="M273.3,350.5l-35-111.1l-5,7.9l-8.3-37l14.7,9.2l10.5,8.1C250.1,227.7,275,338.8,273.3,350.5z" fill="#3E5A71"/></g></g><g><g><path d="M34.7,325.2c-0.6,0-1.3-0.2-1.8-0.6c-1.5-1-1.9-3-0.9-4.5l31.1-45.5c1-1.5,3-1.9,4.5-0.9     c1.5,1,1.9,3,0.9,4.5l-31.1,45.5C36.8,324.7,35.7,325.2,34.7,325.2z" fill="#244964"/></g><g><path d="M136.7,233c-1.6,0-3-1.2-3.2-2.9l-5.2-44.2c-0.2-1.8,1.1-3.4,2.9-3.6c1.7-0.2,3.4,1.1,3.6,2.9l5.2,44.2     c0.2,1.8-1.1,3.4-2.9,3.6C136.9,233,136.8,233,136.7,233z" fill="#244964"/></g><g><path d="M173.3,335c-0.2,0-0.4,0-0.7-0.1l-14.8-6.5c-0.4-0.2-0.7-0.5-0.9-0.9l-7.1-18.8l-41.5-8.6l-8.8,14.5     c-0.3,0.5-0.8,0.8-1.4,0.8H87.2c-0.9,0-1.6-0.7-1.6-1.6s0.7-1.6,1.6-1.6h10.2l9-14.7c0.4-0.6,1-0.9,1.7-0.7l43.5,9     c0.5,0.1,1,0.5,1.2,1l7.1,19l14.1,6.3c0.8,0.4,1.2,1.3,0.8,2.1C174.5,334.6,173.9,335,173.3,335z" fill="#244964"/></g><g><path d="M87.2,317c-1.1,0-2.2-0.6-2.8-1.6l-52.5-91.5c-0.5-0.9-0.6-2.1-0.1-3c0.5-1,1.4-1.6,2.4-1.8     c50.5-8.3,94.6,4,116.3,12.1c1.7,0.6,2.5,2.5,1.9,4.2c-0.6,1.7-2.5,2.5-4.2,1.9c-20.5-7.6-61.2-19.1-108.3-12.5L90,312.1     c0.9,1.6,0.4,3.5-1.2,4.4C88.3,316.9,87.7,317,87.2,317z" fill="#244964"/></g><g><path d="M218.6,210.2c-1.5,0-2.9-1.1-3.2-2.6L199.6,129c-0.4-1.8,0.8-3.5,2.6-3.8c1.8-0.4,3.5,0.8,3.8,2.5     l15.8,78.7c0.4,1.8-0.8,3.5-2.6,3.8C219,210.2,218.8,210.2,218.6,210.2z" fill="#244964"/></g><g><path d="M481.9,353.5c0.6-1.6,1.2-3.1,1.8-4.7c0.2-0.5,0.4-1,0.6-1.6l-96.8-80.7c11.8-8.6,56.3-37.1,116.5-29.6     c0.1-2.2,0.3-4.4,0.8-6.5c-73-9-124,33-124.6,33.5c-0.7,0.6-1.2,1.5-1.2,2.5c0,1,0.4,1.9,1.2,2.5L481.1,353     C481.4,353.2,481.6,353.4,481.9,353.5z" fill="#244964"/></g><g><path d="M44.1,388.9c0.5,0.8,1,1.7,1.5,2.5c0.4,0.6,1.7,2.4,2.7,4h410.9c1.5-2.1,2.9-4.3,4.3-6.5H44.1z" fill="#244964"/><path d="M263.3,347.3l-42.6-16.9c-0.4-0.2-0.8-0.2-1.2-0.2h-45.6l-59.4-19.4c-0.3-0.1-0.7-0.2-1-0.2H87.2     c-0.2,0-0.3,0-0.5,0L25,320.1c-1.4,0.2-2.6,1.4-2.7,2.8l-0.8,7c0.6,1.4,1.1,2.9,1.5,4.4c0.9,3.9,2,7.7,3.1,11.5     c0.1-0.2,0.1-0.5,0.2-0.7l2.2-19l59-9.2h25.5l59.4,19.4c0.3,0.1,0.7,0.2,1,0.2h45.5l42.6,16.9c0.4,0.2,0.8,0.2,1.2,0.2h219.2     c0.7-1.7,1.3-3.3,1.9-5c0.2-0.5,0.4-1,0.6-1.5H263.3z" fill="#244964"/></g><g><path d="M168.9,333.6c-0.7,0-1.3-0.4-1.5-1.1L137.3,243l-48.8,71.6c-0.5,0.7-1.5,0.9-2.3,0.4     c-0.7-0.5-0.9-1.5-0.4-2.3l50.6-74.3c0.3-0.5,0.9-0.8,1.6-0.7c0.6,0.1,1.1,0.5,1.3,1.1l31.1,92.5c0.3,0.9-0.2,1.8-1,2.1     C169.3,333.5,169.1,333.6,168.9,333.6z" fill="#244964"/></g><g><path d="M472.4,352.1h10c0.4-1.1,0.9-2.2,1.3-3.3l-100.4-85.4c-0.6-0.5-1.5-0.5-2.1,0l-95.1,85.8     c-0.5,0.5-0.7,1.2-0.4,1.8c0.2,0.6,0.8,1,1.5,1h12.7c0.4,0,0.8-0.1,1.1-0.4l35.3-30.8l51.9,13.6v15.9c0,0.9,0.7,1.6,1.6,1.6h8.4     c0.9,0,1.6-0.7,1.6-1.6v-15.7l42.9-5l28.6,22C471.7,352,472.1,352.1,472.4,352.1z M443.1,326.5l-45,5.2c-0.8,0.1-1.4,0.8-1.4,1.6     v15.5h-5.2v-15.5c0-0.7-0.5-1.4-1.2-1.6l-53.9-14.2c-0.5-0.1-1.1,0-1.5,0.3l-35.5,30.9h-7.8l90.9-82l96.4,82H473l-28.7-22     C443.9,326.6,443.5,326.5,443.1,326.5z" fill="#244964"/></g><g><path d="M273.3,352.1c-0.7,0-1.3-0.4-1.6-1.1l-34-107.7l-57.1,91c-0.5,0.8-1.5,1-2.2,0.5c-0.8-0.5-1-1.5-0.5-2.2     l58.9-93.9c0.3-0.5,0.9-0.8,1.6-0.8c0.6,0.1,1.2,0.5,1.3,1.1L274.8,350c0.3,0.9-0.2,1.8-1.1,2     C273.6,352.1,273.5,352.1,273.3,352.1z" fill="#244964"/></g><g><path d="M206.9,356.6H29.6c0.4,1.1,0.7,2.2,1.1,3.3h176.2c0.9,0,1.6-0.7,1.6-1.6S207.8,356.6,206.9,356.6z" fill="#244964"/></g><g><path d="M99.9,343.2H25.3c0.3,1.1,0.7,2.2,1,3.3h73.6c0.9,0,1.6-0.7,1.6-1.6C101.5,343.9,100.8,343.2,99.9,343.2z     " fill="#244964"/></g><g><path d="M244.8,346.4H124.7c-0.9,0-1.6-0.7-1.6-1.6s0.7-1.6,1.6-1.6h120.1c0.9,0,1.6,0.7,1.6,1.6     S245.7,346.4,244.8,346.4z" fill="#244964"/></g><g><path d="M397.2,376.9H99.9c-0.9,0-1.6-0.7-1.6-1.6s0.7-1.6,1.6-1.6h297.3c0.9,0,1.6,0.7,1.6,1.6     S398.1,376.9,397.2,376.9z" fill="#244964"/></g><g><path d="M81.3,307.3H45.8c-0.9,0-1.6-0.7-1.6-1.6s0.7-1.6,1.6-1.6h35.5c0.9,0,1.6,0.7,1.6,1.6     S82.2,307.3,81.3,307.3z" fill="#244964"/></g><g><path d="M75.2,294.4H54.6c-0.9,0-1.6-0.7-1.6-1.6c0-0.9,0.7-1.6,1.6-1.6h20.5c0.9,0,1.6,0.7,1.6,1.6     C76.8,293.7,76.1,294.4,75.2,294.4z" fill="#244964"/></g><g><path d="M287.2,353.8h-13.9c-1.7,0-3.1-1.3-3.2-3c-0.1-1.4-10.5-143.7-69.8-220.4c-0.8-1-0.9-2.4-0.3-3.5     c0.6-1.1,1.8-1.8,3.1-1.7c1.2,0.1,30,2.1,67,20.1c34.1,16.6,81.8,50.6,115.3,118.1c0.6,1.3,0.3,2.9-0.7,3.9l-95.1,85.8     C288.8,353.5,288,353.8,287.2,353.8z M276.3,347.3h9.7l92.3-83.3C345.8,199.6,300,167,267.2,151.1     c-25.1-12.2-46.5-16.9-57.2-18.6C261.8,205.4,274.5,326.6,276.3,347.3z" fill="#244964"/></g><g><path d="M262.6,352.1c-0.7,0-1.3-0.4-1.5-1.1l-9.5-26.1l-48-9.4l-10.9,18.6c-0.3,0.5-0.8,0.8-1.4,0.8h-18     c-0.9,0-1.6-0.7-1.6-1.6c0-0.9,0.7-1.6,1.6-1.6h17.1l11-18.8c0.3-0.6,1-0.9,1.7-0.8l50,9.8c0.6,0.1,1,0.5,1.2,1l9.8,27     c0.3,0.8-0.1,1.8-1,2.1C263,352.1,262.8,352.1,262.6,352.1z" fill="#244964"/></g><g><path d="M173.3,336.6C173.2,336.6,173.2,336.6,173.3,336.6c-1.9,0-3.3-1.5-3.3-3.3     c0.8-48.6-41.1-145.5-41.5-146.5c-0.4-1-0.3-2.2,0.3-3.1c0.6-0.9,1.7-1.5,2.8-1.4c64.9,3,103.5,28.2,120.7,42.9     c1.4,1.2,1.5,3.2,0.3,4.6c-1.2,1.4-3.2,1.5-4.6,0.3c-16.1-13.8-51.7-37.2-111.5-41.1c8.6,20.6,40.8,100.2,40,144.4     C176.5,335.2,175,336.6,173.3,336.6z" fill="#244964"/></g></g><path d="M75,169.1H31c-1.6,0-2.8-1.3-2.8-2.8s1.3-2.8,2.8-2.8h44c1.6,0,2.8,1.3,2.8,2.8S76.6,169.1,75,169.1z" fill="#FFFFFF"/><path d="M329.8,118.3h-44c-1.6,0-2.8-1.3-2.8-2.8s1.3-2.8,2.8-2.8h44c1.6,0,2.8,1.3,2.8,2.8   S331.3,118.3,329.8,118.3z" fill="#FFFFFF"/><path d="M206,72.1h-44c-1.6,0-2.8-1.3-2.8-2.8c0-1.6,1.3-2.8,2.8-2.8h44c1.6,0,2.8,1.3,2.8,2.8   C208.9,70.9,207.6,72.1,206,72.1z" fill="#FFFFFF"/><path d="M498,197.3h-44c-1.6,0-2.8-1.3-2.8-2.8s1.3-2.8,2.8-2.8h44c1.6,0,2.8,1.3,2.8,2.8S499.6,197.3,498,197.3z" fill="#FFFFFF"/><path d="M411,63.2c-1.4-1.1-1.7-1.4-0.8-0.7c-1.1-0.8-2.2-1.7-3.3-2.5c-2.3-1.7-4.6-3.4-6.9-5.1   c-5.5-4-11-8-16.6-11.9c-2.8-2-5.3-4.2-7.4-6.6c-10.8,6.1-18.5,17-20.3,29.8c0,0,0,0,0,0c-12.4,0-22.5,9.7-23.2,21.9h106.1   C430,79.2,420.7,71,411,63.2z" fill="#FFFFFF"/><path d="M149.8,129.2c-1.3-3.7-4.8-6.3-8.9-6.3c-0.7,0-1.4,0.1-2.1,0.3c0-0.1,0-0.2,0-0.3   c0-12.1-9.8-21.9-21.9-21.9c-3.3,0-6.4,0.8-9.3,2.1c-4.7-6.1-12.1-10-20.4-10c-13.1,0-23.8,9.7-25.6,22.3c0,0,0,0,0,0   c-7.9,0-14.3,6.2-14.7,13.9H149.8z" fill="#FFFFFF"/><g><path d="M256,510C115.9,510,2,396.1,2,256C2,115.9,115.9,2,256,2c140.1,0,254,113.9,254,254    C510,396.1,396.1,510,256,510z M256,13.6C122.4,13.6,13.6,122.4,13.6,256c0,133.6,108.7,242.4,242.4,242.4    c133.6,0,242.4-108.7,242.4-242.4C498.4,122.4,389.6,13.6,256,13.6z" fill="#244964"/></g><path d="M424.5,170.9c-0.4-10.2-8.8-18.3-19.1-18.3c-7.3,0-13.6,4-16.8,10c-1.5-0.8-3.2-1.3-5-1.3   c-5.5,0-10,4.2-10.4,9.6H424.5z" fill="#FFFFFF"/></g></svg>