<?xml version="1.0" ?><!DOCTYPE svg  PUBLIC '-//W3C//DTD SVG 1.1//EN'  'http://www.w3.org/Graphics/SVG/1.1/DTD/svg11.dtd'><svg enable-background="new 0 0 512 512" id="Layer_1" version="1.1" viewBox="0 0 512 512" xml:space="preserve" xmlns="http://www.w3.org/2000/svg" xmlns:xlink="http://www.w3.org/1999/xlink"><g><circle cx="256" cy="289.5" fill="#D0E5F6" r="215.5"/><path d="M132.1,464.3c16,8.8,32.5,16.8,48.1,26.2V370.9h-52.8v90.7C129,462.5,130.5,463.4,132.1,464.3z" fill="#AFD5E2"/><path d="M75.5,397.7v10.4c11.1,14.2,22.9,27.7,35.3,40.7c1.4,1.5,2.5,3.1,3.5,4.8c4.6,3,9.3,5.8,14.1,8.5v-64.4   H75.5z" fill="#AFD5E2"/><path d="M54.5,370.6c0.8,2.1,1.7,4.2,2.6,6.3c0.3,0.6,2,4.6,2.2,5.1c1.8,3.9,3.6,7.7,5.5,11.5   c1.4,1.9,2.7,3.8,4.1,5.7c1.4,2,2.9,3.9,4.4,5.9c0.6,0.8,1.3,1.7,1.9,2.5c-1-1.2-1-1.3-0.1-0.1c7.4,9.5,15.2,18.7,23.2,27.6V318.6   H45.4v24.9c1.2,4.2,2.4,8.4,3.8,12.5C50.8,361,52.6,365.8,54.5,370.6z" fill="#AFD5E2"/><path d="M382.4,464.9c4.9-3.3,6.3-4.4,9.5-7c8.1-6.7,15.7-14,22.9-21.7c3.4-3.7,6.9-7.4,10.2-11.2   c1.4-1.6,2.8-3.3,4.1-4.9c0,0,1.6-2.2,2.1-2.8c5.7-7.9,10.7-16.3,15.2-24.9c2.3-4.4,4.4-8.8,6.4-13.3c0.1-0.3,0.6-1.4,1-2.2   c0.2-0.4,0.4-0.9,0.4-1c0.9-2.1,1.7-4.3,2.5-6.4c4.2-10.9,7.7-22,10.8-33.2h-96.9v136.1C374.6,469.9,378.5,467.5,382.4,464.9z" fill="#AFD5E2"/><path d="M359.1,477.7c1.1-0.4,2.2-0.9,3.3-1.3c0.1-0.1,0.3-0.1,0.4-0.2c1.8-0.8,3.5-1.7,5.2-2.6   c4.9-2.7,9.7-5.5,14.4-8.7c4.9-3.3,6.3-4.4,9.5-7c7.3-6,14.1-12.4,20.5-19.2v-50.4h-80.7v99.2C339.1,483.7,351.6,480.8,359.1,477.7   z" fill="#AFD5E2"/><path d="M471.9,318.6H357.4V336h110C469,330.3,470.5,324.5,471.9,318.6z" fill="#AFD5E2"/><g><path d="M344.3,198.1H167.7c-6.4,0-11.6-5.2-11.6-11.6v-22.1h199.8v22.1C355.9,192.9,350.7,198.1,344.3,198.1z" fill="#F5F7F9"/></g><g><path d="M325.2,231.8H186.8c-6.2,0-11.3-5-11.3-11.3v-22.5h161v22.5C336.5,226.8,331.5,231.8,325.2,231.8z" fill="#F5F7F9"/></g><g><path d="M304.4,265.6h-96.8c-5.8,0-10.4-4.7-10.4-10.4v-23.3h117.6v23.3C314.8,260.9,310.1,265.6,304.4,265.6z" fill="#F5F7F9"/></g><g><path d="M355.9,177.5c0-0.2,0-0.4,0-0.6v-12.6H156.1v12.6c0,0.2,0,0.4,0,0.6H355.9z" fill="#D3DAE2"/></g><g><rect fill="#D3DAE2" height="12.7" width="161" x="175.5" y="198.1"/></g><g><rect fill="#D3DAE2" height="11.9" width="117.6" x="197.2" y="231.8"/></g><g><rect fill="#F4B7A5" height="40.5" width="73" x="219.5" y="265.6"/></g><g><rect fill="#F59B80" height="16.4" width="73" x="219.5" y="265.6"/></g><g><path d="M194.2,497.2c0.7,0.3,1.3,0.8,2,1.2c0.7,0,1.5,0.5,1.9,0.7c0.7,0.3,1.3,0.6,1.5,0.6    c2.7,0.9,5.5,1.5,8.3,2.1c1.5,0.3,3,0.6,4.4,0.8c0.2,0,0.9,0.1,1.5,0.2c1,0.1,2.6,0.3,2.9,0.3c1.3,0.1,2.6,0.3,4,0.4    c3.2,0.3,6.4,0.5,9.6,0.6c5.8,0.3,11.6,0.4,17.4,0.5c12.4,0.2,24.9,0.8,37.3-0.6c0.5-0.1,2.1-0.3,2.8-0.4c2.1-0.4,4.2-0.8,6.3-1.2    c3.8-0.8,7.6-1.7,11.3-2.7c8.3-2.3,16.5-5,24.6-8c0.6-0.2,1.2-0.4,1.9-0.5V306.1H180.2v185.2C185.4,491.6,190.4,493.7,194.2,497.2    z" fill="#F5F7F9"/></g><g opacity="0.3"><path d="M329.9,491.9c0.6-0.2,1.2-0.4,1.9-0.5V306.1H180.2l143.6,188C325.9,493.3,327.9,492.6,329.9,491.9z" fill="#D3DAE2"/></g><g><rect fill="#F5F7F9" height="33.7" width="91.3" x="210.4" y="130.7"/></g><g><rect fill="#D3DAE2" height="13.8" width="91.3" x="210.4" y="130.7"/></g><g><g><path d="M341.7,200.6H170.3c-9.2,0-16.7-7.5-16.7-16.7v-19.5c0-1.4,1.1-2.5,2.5-2.5h199.8c1.4,0,2.5,1.1,2.5,2.5     v19.5C358.3,193.1,350.9,200.6,341.7,200.6z M158.6,166.8v17.1c0,6.5,5.3,11.8,11.8,11.8h171.3c6.5,0,11.8-5.3,11.8-11.8v-17.1     H158.6z" fill="#244964"/></g><g><path d="M322.7,234.3H189.3c-9,0-16.3-7.3-16.3-16.3v-19.9c0-1.4,1.1-2.5,2.5-2.5h161c1.4,0,2.5,1.1,2.5,2.5V218     C339,227,331.7,234.3,322.7,234.3z M177.9,200.6V218c0,6.3,5.1,11.4,11.4,11.4h133.4c6.3,0,11.4-5.1,11.4-11.4v-17.4H177.9z" fill="#244964"/></g><g><path d="M302,268h-92c-8.4,0-15.2-6.8-15.2-15.2v-20.9c0-1.4,1.1-2.5,2.5-2.5h117.6c1.4,0,2.5,1.1,2.5,2.5v20.9     C317.2,261.2,310.4,268,302,268z M199.7,234.3v18.5c0,5.7,4.6,10.3,10.3,10.3h92c5.7,0,10.3-4.6,10.3-10.3v-18.5H199.7z" fill="#244964"/></g><g><path d="M292.5,308.5h-73c-1.4,0-2.5-1.1-2.5-2.5v-40.5c0-1.4,1.1-2.5,2.5-2.5h73c1.4,0,2.5,1.1,2.5,2.5v40.5     C295,307.4,293.9,308.5,292.5,308.5z M221.9,303.6H290V268h-68.1V303.6z" fill="#244964"/></g><g><path d="M182.7,491.6V308.5h146.6v183.6c0.2-0.1,0.4-0.1,0.6-0.2c1.4-0.5,2.9-0.8,4.3-0.9V306.1     c0-1.4-1.1-2.5-2.5-2.5H180.2c-1.4,0-2.5,1.1-2.5,2.5v185.2C179.4,491.2,181.1,491.3,182.7,491.6z" fill="#244964"/></g><g><path d="M301.6,166.8h-91.3c-1.4,0-2.5-1.1-2.5-2.5v-33.7c0-1.4,1.1-2.5,2.5-2.5h91.3c1.4,0,2.5,1.1,2.5,2.5v33.7     C304.1,165.7,303,166.8,301.6,166.8z M212.8,161.9h86.4v-28.8h-86.4V161.9z" fill="#244964"/></g><g><path d="M256,133.1c-1.4,0-2.5-1.1-2.5-2.5V4.5c0-1.4,1.1-2.5,2.5-2.5c1.4,0,2.5,1.1,2.5,2.5v126.2     C258.5,132,257.4,133.1,256,133.1z" fill="#244964"/></g><g><g><path d="M211.7,352.2c-0.7,0-1.2-0.5-1.2-1.2v-7.1c0-0.7,0.5-1.2,1.2-1.2c0.7,0,1.2,0.5,1.2,1.2v7.1      C212.9,351.6,212.4,352.2,211.7,352.2z" fill="#244964"/></g><g><path d="M241.2,352.2c-0.7,0-1.2-0.5-1.2-1.2v-7.1c0-0.7,0.5-1.2,1.2-1.2c0.7,0,1.2,0.5,1.2,1.2v7.1      C242.5,351.6,241.9,352.2,241.2,352.2z" fill="#244964"/></g><g><path d="M241.2,352.2c-0.7,0-1.2-0.5-1.2-1.2v-7.1c0-0.7,0.5-1.2,1.2-1.2c0.7,0,1.2,0.5,1.2,1.2v7.1      C242.5,351.6,241.9,352.2,241.2,352.2z" fill="#244964"/></g><g><path d="M270.8,352.2c-0.7,0-1.2-0.5-1.2-1.2v-7.1c0-0.7,0.5-1.2,1.2-1.2s1.2,0.5,1.2,1.2v7.1      C272,351.6,271.4,352.2,270.8,352.2z" fill="#244964"/></g><g><path d="M270.8,352.2c-0.7,0-1.2-0.5-1.2-1.2v-7.1c0-0.7,0.5-1.2,1.2-1.2s1.2,0.5,1.2,1.2v7.1      C272,351.6,271.4,352.2,270.8,352.2z" fill="#244964"/></g><g><path d="M300.3,352.2c-0.7,0-1.2-0.5-1.2-1.2v-7.1c0-0.7,0.5-1.2,1.2-1.2c0.7,0,1.2,0.5,1.2,1.2v7.1      C301.5,351.6,301,352.2,300.3,352.2z" fill="#244964"/></g></g><g><g><path d="M211.7,397.7c-0.7,0-1.2-0.5-1.2-1.2v-7.1c0-0.7,0.5-1.2,1.2-1.2c0.7,0,1.2,0.5,1.2,1.2v7.1      C212.9,397.2,212.4,397.7,211.7,397.7z" fill="#244964"/></g><g><path d="M241.2,397.7c-0.7,0-1.2-0.5-1.2-1.2v-7.1c0-0.7,0.5-1.2,1.2-1.2c0.7,0,1.2,0.5,1.2,1.2v7.1      C242.5,397.2,241.9,397.7,241.2,397.7z" fill="#244964"/></g><g><path d="M241.2,397.7c-0.7,0-1.2-0.5-1.2-1.2v-7.1c0-0.7,0.5-1.2,1.2-1.2c0.7,0,1.2,0.5,1.2,1.2v7.1      C242.5,397.2,241.9,397.7,241.2,397.7z" fill="#244964"/></g><g><path d="M270.8,397.7c-0.7,0-1.2-0.5-1.2-1.2v-7.1c0-0.7,0.5-1.2,1.2-1.2s1.2,0.5,1.2,1.2v7.1      C272,397.2,271.4,397.7,270.8,397.7z" fill="#244964"/></g><g><path d="M270.8,397.7c-0.7,0-1.2-0.5-1.2-1.2v-7.1c0-0.7,0.5-1.2,1.2-1.2s1.2,0.5,1.2,1.2v7.1      C272,397.2,271.4,397.7,270.8,397.7z" fill="#244964"/></g><g><path d="M300.3,397.7c-0.7,0-1.2-0.5-1.2-1.2v-7.1c0-0.7,0.5-1.2,1.2-1.2c0.7,0,1.2,0.5,1.2,1.2v7.1      C301.5,397.2,301,397.7,300.3,397.7z" fill="#244964"/></g></g><g><g><path d="M211.7,443.3c-0.7,0-1.2-0.5-1.2-1.2V435c0-0.7,0.5-1.2,1.2-1.2c0.7,0,1.2,0.5,1.2,1.2v7.1      C212.9,442.8,212.4,443.3,211.7,443.3z" fill="#244964"/></g><g><path d="M241.2,443.3c-0.7,0-1.2-0.5-1.2-1.2V435c0-0.7,0.5-1.2,1.2-1.2c0.7,0,1.2,0.5,1.2,1.2v7.1      C242.5,442.8,241.9,443.3,241.2,443.3z" fill="#244964"/></g><g><path d="M241.2,443.3c-0.7,0-1.2-0.5-1.2-1.2V435c0-0.7,0.5-1.2,1.2-1.2c0.7,0,1.2,0.5,1.2,1.2v7.1      C242.5,442.8,241.9,443.3,241.2,443.3z" fill="#244964"/></g><g><path d="M270.8,443.3c-0.7,0-1.2-0.5-1.2-1.2V435c0-0.7,0.5-1.2,1.2-1.2s1.2,0.5,1.2,1.2v7.1      C272,442.8,271.4,443.3,270.8,443.3z" fill="#244964"/></g><g><path d="M270.8,443.3c-0.7,0-1.2-0.5-1.2-1.2V435c0-0.7,0.5-1.2,1.2-1.2s1.2,0.5,1.2,1.2v7.1      C272,442.8,271.4,443.3,270.8,443.3z" fill="#244964"/></g><g><path d="M300.3,443.3c-0.7,0-1.2-0.5-1.2-1.2V435c0-0.7,0.5-1.2,1.2-1.2c0.7,0,1.2,0.5,1.2,1.2v7.1      C301.5,442.8,301,443.3,300.3,443.3z" fill="#244964"/></g></g><g><g><path d="M211.7,488.9c-0.7,0-1.2-0.5-1.2-1.2v-7.1c0-0.7,0.5-1.2,1.2-1.2c0.7,0,1.2,0.5,1.2,1.2v7.1      C212.9,488.3,212.4,488.9,211.7,488.9z" fill="#244964"/></g><g><path d="M241.2,488.9c-0.7,0-1.2-0.5-1.2-1.2v-7.1c0-0.7,0.5-1.2,1.2-1.2c0.7,0,1.2,0.5,1.2,1.2v7.1      C242.5,488.3,241.9,488.9,241.2,488.9z" fill="#244964"/></g><g><path d="M241.2,488.9c-0.7,0-1.2-0.5-1.2-1.2v-7.1c0-0.7,0.5-1.2,1.2-1.2c0.7,0,1.2,0.5,1.2,1.2v7.1      C242.5,488.3,241.9,488.9,241.2,488.9z" fill="#244964"/></g><g><path d="M270.8,488.9c-0.7,0-1.2-0.5-1.2-1.2v-7.1c0-0.7,0.5-1.2,1.2-1.2s1.2,0.5,1.2,1.2v7.1      C272,488.3,271.4,488.9,270.8,488.9z" fill="#244964"/></g><g><path d="M270.8,488.9c-0.7,0-1.2-0.5-1.2-1.2v-7.1c0-0.7,0.5-1.2,1.2-1.2s1.2,0.5,1.2,1.2v7.1      C272,488.3,271.4,488.9,270.8,488.9z" fill="#244964"/></g><g><path d="M300.3,488.9c-0.7,0-1.2-0.5-1.2-1.2v-7.1c0-0.7,0.5-1.2,1.2-1.2c0.7,0,1.2,0.5,1.2,1.2v7.1      C301.5,488.3,301,488.9,300.3,488.9z" fill="#244964"/></g></g><g><circle cx="256" cy="102.8" fill="#F5F7F9" r="6.7"/><path d="M256,112c-5.1,0-9.2-4.1-9.2-9.2c0-5.1,4.1-9.2,9.2-9.2c5.1,0,9.2,4.1,9.2,9.2     C265.2,107.9,261.1,112,256,112z M256,98.5c-2.4,0-4.3,1.9-4.3,4.3c0,2.4,1.9,4.3,4.3,4.3c2.4,0,4.3-1.9,4.3-4.3     C260.3,100.4,258.4,98.5,256,98.5z" fill="#244964"/></g><g><circle cx="256" cy="68.5" fill="#F5F7F9" r="6.7"/><path d="M256,77.7c-5.1,0-9.2-4.1-9.2-9.2c0-5.1,4.1-9.2,9.2-9.2c5.1,0,9.2,4.1,9.2,9.2     C265.2,73.5,261.1,77.7,256,77.7z M256,64.2c-2.4,0-4.3,1.9-4.3,4.3c0,2.4,1.9,4.3,4.3,4.3c2.4,0,4.3-1.9,4.3-4.3     C260.3,66.1,258.4,64.2,256,64.2z" fill="#244964"/></g><g><circle cx="256" cy="34.2" fill="#F5F7F9" r="6.7"/><path d="M256,43.3c-5.1,0-9.2-4.1-9.2-9.2c0-5.1,4.1-9.2,9.2-9.2c5.1,0,9.2,4.1,9.2,9.2     C265.2,39.2,261.1,43.3,256,43.3z M256,29.9c-2.4,0-4.3,1.9-4.3,4.3c0,2.4,1.9,4.3,4.3,4.3c2.4,0,4.3-1.9,4.3-4.3     C260.3,31.8,258.4,29.9,256,29.9z" fill="#244964"/></g></g><path d="M426.7,196c-3.8,0-7.4,1.2-10.4,3.2c-0.3-10.1-8.5-18.2-18.7-18.2c-10.3,0-18.7,8.4-18.7,18.7   c0,1.3,0.1,2.7,0.4,3.9c-0.7-0.1-1.4-0.2-2.2-0.2c-8,0-14.5,6.5-14.5,14.5c0,8,6.5,14.5,14.5,14.5h49.5c10.1,0,18.2-8.2,18.2-18.2   S436.8,196,426.7,196z" fill="#FFFFFF"/><path d="M144.7,254.9c-2.9,0-5.6,0.9-7.9,2.5c-0.2-7.7-6.5-13.8-14.2-13.8c-7.8,0-14.2,6.3-14.2,14.2   c0,1,0.1,2,0.3,3c-0.5-0.1-1.1-0.1-1.7-0.1c-6.1,0-11,4.9-11,11c0,6.1,4.9,11,11,11h37.5c7.6,0,13.8-6.2,13.8-13.8   S152.4,254.9,144.7,254.9z" fill="#FFFFFF"/><path d="M261.3,69.2c-0.3,2.7-2.2,5.3-5.7,5.3c-3.5,0-5.4-2.5-5.7-5.3C131.1,72.5,35.5,170.1,35.5,289.5   C35.5,411.1,134.4,510,256,510c121.6,0,220.5-98.9,220.5-220.5C476.5,169.8,380.4,72,261.3,69.2z M256,500.2   c-116.1,0-210.6-94.5-210.6-210.6c0-116.1,94.5-210.6,210.6-210.6c116.1,0,210.6,94.5,210.6,210.6   C466.6,405.7,372.1,500.2,256,500.2z" fill="#244964"/></g></svg>